{"glyphs":{"0":{"ha":848,"x_min":52,"x_max":796,"o":"m 732 713 l 732 353 q 642 136 732 226 q 424 46 551 46 q 206 136 296 46 q 116 353 116 226 l 116 713 q 206 930 116 840 q 424 1020 296 1020 q 642 930 551 1020 q 732 713 732 840 m 796 353 l 796 713 q 687 976 796 867 q 424 1085 578 1085 q 161 976 270 1085 q 52 713 52 867 l 52 353 q 161 90 52 199 q 424 -19 270 -19 q 687 90 578 -19 q 796 353 796 199 "},"1":{"ha":848,"x_min":361,"x_max":486,"o":"m 486 1085 l 444 1085 l 361 978 l 425 978 l 425 0 l 486 0 l 486 1085 "},"2":{"ha":848,"x_min":102,"x_max":745,"o":"m 106 0 l 745 0 l 745 61 l 175 61 q 309 264 201 184 q 503 410 417 345 q 652 543 589 474 q 745 776 745 642 q 651 1005 745 910 q 422 1100 556 1100 q 193 1004 288 1100 q 102 827 118 928 l 164 804 q 239 960 174 895 q 422 1036 315 1036 q 606 960 530 1036 q 682 776 682 884 q 608 588 682 669 q 448 443 534 507 q 249 294 361 378 q 106 0 137 210 "},"3":{"ha":848,"x_min":102,"x_max":745,"o":"m 386 606 q 608 497 534 578 q 682 309 682 416 q 606 125 682 201 q 422 50 530 50 q 239 125 315 50 q 164 281 174 191 l 102 258 q 193 81 118 157 q 422 -15 288 -15 q 651 80 556 -15 q 745 309 745 175 q 652 543 745 443 q 490 644 588 612 q 587 718 535 663 q 638 869 638 773 q 571 1032 638 964 q 406 1100 503 1100 q 242 1032 311 1100 q 190 949 205 996 l 248 926 q 288 988 261 960 q 406 1036 338 1036 q 524 988 475 1036 q 573 869 573 939 q 526 750 573 800 q 438 684 479 700 q 335 668 398 669 l 335 607 l 386 606 "},"4":{"ha":848,"x_min":117,"x_max":730,"o":"m 565 1085 l 117 317 l 565 317 l 565 0 l 626 0 l 626 317 l 730 317 l 730 378 l 626 378 l 626 1085 l 565 1085 m 565 954 l 565 378 l 222 378 l 565 954 "},"5":{"ha":848,"x_min":79,"x_max":769,"o":"m 191 748 l 292 1024 l 580 1024 l 580 1085 l 241 1085 l 241 1063 l 116 720 l 165 677 q 356 710 270 710 q 477 691 422 710 q 667 530 604 646 q 705 381 705 457 q 690 285 705 334 q 534 95 651 157 q 386 57 462 57 q 290 72 338 57 q 123 191 180 105 l 79 142 q 271 11 149 48 q 388 -7 330 -7 q 564 38 479 -7 q 751 266 705 113 q 769 380 769 323 q 722 559 769 472 q 494 752 648 700 q 351 776 426 776 q 267 768 311 776 q 191 748 225 759 "},"6":{"ha":848,"x_min":50,"x_max":798,"o":"m 208 571 q 426 661 298 661 q 644 571 553 661 q 734 353 734 481 q 644 136 734 226 q 426 46 553 46 q 208 136 298 46 q 118 353 118 226 q 163 526 118 481 q 208 571 208 571 m 184 637 q 224 703 202 672 q 507 1051 329 852 q 536 1085 522 1068 l 452 1085 q 433 1064 443 1075 q 165 733 273 885 q 50 342 56 581 l 54 342 q 163 90 58 195 q 426 -19 272 -19 q 689 90 581 -19 q 798 353 798 199 q 689 617 798 508 q 426 726 581 726 q 184 637 287 726 "},"7":{"ha":848,"x_min":104,"x_max":743,"o":"m 743 1085 l 104 1085 l 104 1024 l 674 1024 q 488 722 648 901 q 219 391 328 543 q 104 0 111 239 l 168 0 q 279 361 174 213 q 561 709 383 510 q 743 1085 739 909 "},"8":{"ha":848,"x_min":73,"x_max":775,"o":"m 423 51 q 396 50 410 50 q 212 125 288 50 q 136 309 136 201 q 210 497 136 416 q 424 604 282 576 q 637 497 566 576 q 711 309 711 416 q 635 125 711 201 q 452 50 559 50 q 425 51 438 50 l 423 51 m 424 -14 q 452 -15 438 -15 q 681 80 586 -15 q 775 309 775 175 q 682 543 775 443 q 520 644 618 612 q 616 718 565 663 q 668 869 668 773 q 601 1032 668 964 q 436 1100 533 1100 l 412 1100 q 247 1032 315 1100 q 180 869 180 964 q 231 718 180 773 q 328 644 283 663 q 165 543 230 612 q 73 309 73 443 q 167 80 73 175 q 396 -15 262 -15 q 424 -14 410 -15 m 423 1036 l 425 1036 q 436 1036 430 1036 q 554 988 505 1036 q 603 869 603 939 q 556 750 603 800 q 469 684 509 700 q 424 673 448 677 q 379 684 399 677 q 292 750 339 700 q 245 869 245 800 q 294 988 245 939 q 412 1036 342 1036 q 423 1036 418 1036 "},"9":{"ha":848,"x_min":50,"x_max":798,"o":"m 640 495 q 422 405 549 405 q 204 495 294 405 q 114 713 114 585 q 204 930 114 840 q 422 1020 294 1020 q 640 930 549 1020 q 730 713 730 840 q 685 540 730 585 q 640 495 640 495 m 663 429 q 623 363 646 394 q 340 15 519 214 q 312 -19 326 -2 l 396 -19 q 414 2 405 -9 q 683 333 574 181 q 798 724 791 485 l 794 724 q 685 976 790 871 q 422 1085 576 1085 q 158 976 267 1085 q 50 713 50 867 q 158 449 50 558 q 422 340 267 340 q 663 429 561 340 "}," ":{"ha":480,"x_min":0,"x_max":0,"o":""}," ":{"ha":480,"x_min":0,"x_max":0,"o":""},"!":{"ha":292,"x_min":85,"x_max":207,"o":"m 146 112 q 103 94 121 112 q 85 52 85 77 q 103 8 85 26 q 146 -9 121 -9 q 189 8 171 -9 q 207 52 207 26 q 189 94 207 77 q 146 112 171 112 m 175 1085 l 114 1085 l 114 187 l 175 187 l 175 1085 "},"\"":{"ha":390,"x_min":85,"x_max":305,"o":"m 85 676 l 146 676 l 146 1083 l 85 1083 l 85 676 m 244 676 l 305 676 l 305 1083 l 244 1083 l 244 676 "},"#":{"ha":1121,"x_min":85,"x_max":1036,"o":"m 517 668 l 593 970 l 532 970 l 456 668 l 155 668 l 139 607 l 441 607 l 402 451 l 100 451 l 85 390 l 387 390 l 311 88 l 372 88 l 448 390 l 604 390 l 528 88 l 589 88 l 665 390 l 966 390 l 982 451 l 680 451 l 719 607 l 1021 607 l 1036 668 l 734 668 l 810 970 l 749 970 l 673 668 l 517 668 m 658 607 l 619 451 l 463 451 l 502 607 l 658 607 "},"$":{"ha":686,"x_min":68,"x_max":618,"o":"m 377 581 q 496 498 446 549 q 560 345 560 435 q 496 190 560 254 q 377 128 445 138 l 377 581 m 316 958 l 316 668 q 242 722 271 693 q 201 821 201 762 q 243 920 201 879 q 316 958 274 951 m 316 604 l 316 127 q 187 189 242 134 q 123 322 132 244 l 68 302 q 146 149 81 214 q 316 68 218 76 l 316 -26 l 377 -26 l 377 69 q 537 149 469 80 q 618 345 618 229 q 537 539 618 458 q 377 642 470 606 l 377 956 q 440 920 412 947 q 475 866 463 897 l 528 887 q 482 960 514 929 q 377 1015 437 1005 l 377 1127 l 316 1127 l 316 1017 q 201 960 250 1009 q 142 821 142 901 q 201 680 142 738 q 316 604 245 635 "},"%":{"ha":828,"x_min":54,"x_max":774,"o":"m 751 891 l 701 926 l 78 37 l 128 2 l 751 891 m 211 824 q 100 778 146 824 q 54 667 54 732 q 100 556 54 602 q 211 511 146 511 q 322 556 276 511 q 368 667 368 602 q 322 778 368 732 q 211 824 276 824 m 211 765 q 280 736 251 765 q 309 667 309 708 q 280 598 309 627 q 211 570 251 570 q 142 598 170 570 q 113 667 113 627 q 142 736 113 708 q 211 765 170 765 m 618 417 q 507 371 553 417 q 461 260 461 326 q 507 150 461 195 q 618 104 553 104 q 729 150 683 104 q 774 260 774 195 q 729 371 774 326 q 618 417 683 417 m 618 358 q 687 330 658 358 q 715 260 715 301 q 687 191 715 220 q 618 163 658 163 q 549 191 577 163 q 520 260 520 220 q 549 330 520 301 q 618 358 577 358 "},"&":{"ha":884,"x_min":51,"x_max":823,"o":"m 621 224 q 557 124 602 169 q 372 47 480 47 q 187 124 264 47 q 111 309 111 201 q 185 498 111 417 q 408 608 260 580 l 457 609 l 457 666 q 355 682 396 667 q 267 749 315 698 q 219 869 219 800 q 269 989 219 940 q 388 1038 318 1038 q 507 989 458 1038 q 547 928 535 962 l 602 950 q 551 1031 588 995 q 388 1098 483 1098 q 225 1030 292 1098 q 158 869 158 963 q 209 719 158 774 q 309 644 260 665 q 144 541 208 610 q 51 309 51 442 q 145 81 51 176 q 372 -13 239 -13 q 600 82 505 -13 q 680 214 658 140 q 714 219 696 214 q 804 288 774 235 q 823 359 823 322 q 818 399 823 378 q 749 488 802 458 q 678 507 714 507 q 640 502 659 507 l 641 441 q 677 447 661 447 q 720 436 701 447 q 761 383 751 418 q 764 359 764 371 q 753 317 764 338 q 699 275 734 285 q 675 272 687 272 q 633 283 653 272 q 575 330 614 294 q 505 390 532 375 q 447 406 477 406 q 414 401 431 406 q 341 345 366 389 q 325 287 325 317 q 330 254 325 271 q 383 184 342 206 q 436 170 409 170 q 470 174 453 170 l 476 230 q 448 228 460 228 q 413 235 426 228 q 387 270 393 245 q 384 287 384 279 q 393 317 384 302 q 429 345 405 338 q 446 347 437 347 q 476 339 461 347 q 522 302 490 332 q 604 233 571 251 q 621 224 612 228 "},"'":{"ha":231,"x_min":85,"x_max":146,"o":"m 85 676 l 146 676 l 146 1083 l 85 1083 l 85 676 "},"(":{"ha":477,"x_min":68,"x_max":409,"o":"m 409 1104 l 409 1164 q 206 1013 295 1125 q 68 543 68 840 q 206 72 68 244 q 409 -79 295 -40 l 409 -22 q 243 115 317 22 q 121 543 121 270 q 243 969 121 814 q 409 1104 317 1062 "},")":{"ha":477,"x_min":68,"x_max":409,"o":"m 68 1164 l 68 1104 q 233 969 159 1062 q 356 543 356 814 q 233 115 356 270 q 68 -22 159 22 l 68 -79 q 271 72 182 -40 q 409 543 409 244 q 271 1013 409 840 q 68 1164 182 1125 "},"*":{"ha":543,"x_min":87,"x_max":455,"o":"m 302 939 l 302 1083 l 241 1083 l 241 938 l 122 1021 l 87 971 l 218 880 l 87 788 l 122 738 l 241 821 l 241 676 l 302 676 l 302 821 l 420 738 l 455 788 l 324 880 l 455 971 l 420 1021 l 302 939 "},"+":{"ha":712,"x_min":85,"x_max":627,"o":"m 326 371 l 326 130 l 387 130 l 387 371 l 627 371 l 627 432 l 387 432 l 387 673 l 326 673 l 326 432 l 85 432 l 85 371 l 326 371 "},",":{"ha":257,"x_min":7,"x_max":189,"o":"m 189 113 l 77 113 l 7 -149 l 64 -149 l 189 113 "},"-":{"ha":570,"x_min":85,"x_max":485,"o":"m 85 432 l 85 371 l 485 371 l 485 432 l 85 432 "},"­":{"ha":570,"x_min":85,"x_max":485,"o":"m 85 432 l 485 432 l 485 371 l 85 371 l 85 432 "},".":{"ha":258,"x_min":68,"x_max":190,"o":"m 129 112 q 86 94 104 112 q 68 52 68 77 q 86 8 68 26 q 129 -9 104 -9 q 172 8 154 -9 q 190 52 190 26 q 172 94 190 77 q 129 112 154 112 "},"/":{"ha":493,"x_min":-34,"x_max":527,"o":"m 457 1085 l -34 0 l 35 0 l 527 1085 l 457 1085 "},":":{"ha":292,"x_min":85,"x_max":207,"o":"m 146 112 q 103 94 121 112 q 85 52 85 77 q 103 8 85 26 q 146 -9 121 -9 q 189 8 171 -9 q 207 52 207 26 q 189 94 207 77 q 146 112 171 112 m 146 530 q 103 513 121 530 q 85 470 85 495 q 103 427 85 444 q 146 409 121 409 q 189 427 171 409 q 207 470 207 444 q 189 513 207 495 q 146 530 171 530 "},";":{"ha":323,"x_min":56,"x_max":239,"o":"m 239 113 l 126 113 l 56 -149 l 113 -149 l 239 113 m 146 530 q 103 513 121 530 q 85 470 85 495 q 103 427 85 444 q 146 409 121 409 q 189 427 171 409 q 207 470 207 444 q 189 513 207 495 q 146 530 171 530 "},";":{"ha":323,"x_min":56,"x_max":239,"o":"m 239 113 l 113 -149 l 56 -149 l 126 113 l 239 113 m 146 530 q 189 513 171 530 q 207 470 207 495 q 189 427 207 444 q 146 409 171 409 q 103 427 121 409 q 85 470 85 444 q 103 513 85 495 q 146 530 121 530 "},"<":{"ha":915,"x_min":68,"x_max":847,"o":"m 847 98 l 847 163 l 246 382 l 847 600 l 847 665 l 68 382 l 847 98 "},"=":{"ha":712,"x_min":85,"x_max":627,"o":"m 85 541 l 85 479 l 627 479 l 627 541 l 85 541 m 85 323 l 85 262 l 627 262 l 627 323 l 85 323 "},">":{"ha":915,"x_min":68,"x_max":847,"o":"m 68 163 l 68 98 l 847 382 l 68 665 l 68 600 l 669 382 l 68 163 "},"?":{"ha":648,"x_min":86,"x_max":546,"o":"m 385 555 q 522 715 481 629 q 546 814 546 764 q 532 891 546 852 q 416 1021 501 980 q 317 1044 367 1044 q 239 1031 279 1044 q 108 913 150 1000 q 86 826 86 870 l 86 821 l 146 818 q 163 889 146 854 q 259 975 193 951 q 315 985 288 985 q 388 968 352 985 q 475 871 451 937 q 484 815 484 843 q 467 742 484 778 q 374 621 439 684 q 211 425 265 538 q 178 287 178 357 q 197 180 178 234 l 253 199 q 237 287 237 243 q 264 399 237 344 q 385 555 305 485 m 221 112 q 178 94 196 112 q 160 52 160 77 q 178 8 160 26 q 221 -9 196 -9 q 264 8 246 -9 q 282 52 282 26 q 264 94 282 77 q 221 112 246 112 "},"@":{"ha":1103,"x_min":85,"x_max":1018,"o":"m 738 328 q 688 238 726 277 q 553 182 632 182 q 419 238 475 182 q 364 372 364 294 q 419 507 364 451 q 553 563 475 563 q 688 507 632 563 q 738 417 726 468 l 738 328 m 736 212 l 736 157 q 800 90 741 102 q 817 88 808 88 q 955 186 892 88 q 1018 371 1018 285 q 882 701 1018 564 q 552 838 745 838 q 222 701 359 838 q 85 371 85 564 q 222 42 85 179 q 552 -95 359 -95 q 761 -47 680 -95 l 722 -7 q 552 -40 669 -40 q 261 80 382 -40 q 141 371 141 201 q 261 662 141 541 q 552 783 382 783 q 843 662 722 783 q 964 371 964 541 q 911 217 964 292 q 829 142 859 142 q 791 171 804 142 l 791 610 l 736 610 l 736 533 q 552 619 654 619 q 378 547 450 619 q 305 372 305 474 q 378 199 305 271 q 552 126 450 126 q 736 212 654 126 "},"A":{"ha":876,"x_min":34,"x_max":842,"o":"m 604 477 l 273 477 l 438 932 l 604 477 m 626 416 l 777 0 l 842 0 l 438 1110 l 34 0 l 99 0 l 250 416 l 626 416 "},"B":{"ha":723,"x_min":102,"x_max":662,"o":"m 294 1085 l 102 1085 l 102 0 l 312 0 l 312 1 q 553 107 452 3 q 662 374 662 220 q 553 637 662 528 q 410 727 486 711 q 496 884 496 800 q 437 1026 496 967 q 294 1085 378 1085 m 163 682 l 290 682 q 507 591 417 682 q 597 374 597 501 q 507 153 597 246 q 312 60 425 68 l 312 61 l 163 61 l 163 682 m 163 1024 l 294 1024 q 397 984 355 1024 q 438 884 438 945 q 397 785 438 823 q 310 747 361 751 l 163 747 l 163 1024 "},"C":{"ha":1082,"x_min":85,"x_max":1014,"o":"m 968 173 q 640 49 828 49 q 292 193 436 49 q 147 543 147 338 q 292 891 147 747 q 640 1036 436 1036 q 968 911 828 1036 l 1014 954 q 640 1098 855 1098 q 247 935 410 1098 q 85 543 85 772 q 247 150 85 312 q 640 -13 410 -13 q 1014 132 855 -13 l 968 173 "},"D":{"ha":813,"x_min":102,"x_max":745,"o":"m 163 1021 l 168 1021 q 538 892 409 1021 q 683 543 683 747 q 538 193 683 338 q 168 63 409 63 l 163 63 l 163 1021 m 163 1084 l 163 1085 l 102 1085 l 102 0 l 163 0 l 163 1 l 168 1 q 583 149 435 1 q 745 543 745 312 q 583 936 745 772 q 168 1084 435 1084 l 163 1084 "},"E":{"ha":729,"x_min":102,"x_max":644,"o":"m 644 1085 l 102 1085 l 102 0 l 644 0 l 644 61 l 163 61 l 163 512 l 644 512 l 644 573 l 163 573 l 163 1024 l 644 1024 l 644 1085 "},"F":{"ha":661,"x_min":102,"x_max":576,"o":"m 576 1085 l 102 1085 l 102 0 l 163 0 l 163 512 l 576 512 l 576 573 l 163 573 l 163 1024 l 576 1024 l 576 1085 "},"G":{"ha":1099,"x_min":85,"x_max":1014,"o":"m 1010 135 l 1010 488 l 949 488 l 949 157 q 640 49 815 49 q 292 193 436 49 q 147 543 147 338 q 292 891 147 747 q 640 1036 436 1036 q 968 911 828 1036 l 1014 954 q 640 1098 855 1098 q 247 935 410 1098 q 85 543 85 772 q 247 150 85 312 q 640 -13 410 -13 q 1010 135 855 -13 "},"H":{"ha":780,"x_min":102,"x_max":678,"o":"m 163 486 l 617 486 l 617 0 l 678 0 l 678 1085 l 617 1085 l 617 547 l 163 547 l 163 1085 l 102 1085 l 102 0 l 163 0 l 163 486 "},"I":{"ha":292,"x_min":115,"x_max":176,"o":"m 176 1085 l 115 1085 l 115 0 l 176 0 l 176 1085 "},"J":{"ha":581,"x_min":85,"x_max":476,"o":"m 476 206 l 476 1085 l 415 1085 l 415 213 q 379 92 415 127 q 282 52 338 52 q 265 50 273 50 q 182 81 219 50 q 125 191 138 118 l 85 176 q 142 48 85 106 q 282 -9 200 -9 q 422 49 364 -9 q 476 206 476 103 "},"K":{"ha":744,"x_min":102,"x_max":683,"o":"m 163 526 l 222 600 l 608 0 l 683 0 l 262 648 l 588 1085 l 509 1085 l 163 623 l 163 1085 l 102 1085 l 102 0 l 163 0 l 163 526 "},"L":{"ha":644,"x_min":102,"x_max":583,"o":"m 102 0 l 583 0 l 583 61 l 163 61 l 163 1085 l 102 1085 l 102 0 "},"M":{"ha":1158,"x_min":102,"x_max":1056,"o":"m 172 1085 l 102 1085 l 104 1080 l 104 0 l 165 0 l 165 975 l 579 260 l 992 975 l 992 0 l 1053 0 l 1053 1080 l 1056 1085 l 986 1085 l 579 380 l 172 1085 "},"N":{"ha":889,"x_min":102,"x_max":787,"o":"m 102 1085 l 102 0 l 163 0 l 163 975 l 726 0 l 787 0 l 787 1085 l 726 1085 l 726 120 l 169 1085 l 102 1085 "},"O":{"ha":1283,"x_min":85,"x_max":1198,"o":"m 642 1101 q 248 938 411 1101 q 85 544 85 774 q 248 150 85 313 q 642 -13 411 -13 q 1035 150 872 -13 q 1198 544 1198 313 q 1035 938 1198 774 q 642 1101 872 1101 m 642 1038 q 991 893 846 1038 q 1136 544 1136 749 q 991 194 1136 339 q 642 49 846 49 q 292 194 437 49 q 147 544 147 339 q 292 893 147 749 q 642 1038 437 1038 "},"P":{"ha":739,"x_min":102,"x_max":701,"o":"m 163 376 l 347 376 q 597 480 494 376 q 701 731 701 584 q 597 981 701 878 q 387 1085 511 1068 l 102 1085 l 102 0 l 163 0 l 163 376 m 163 1023 l 347 1023 q 554 938 468 1023 q 640 731 640 852 q 554 524 640 610 q 347 438 468 438 l 163 438 l 163 1023 "},"Q":{"ha":1283,"x_min":85,"x_max":1198,"o":"m 642 1038 q 991 893 846 1038 q 1136 544 1136 749 q 991 194 1136 339 q 642 49 846 49 q 292 194 437 49 q 147 544 147 339 q 292 893 147 749 q 642 1038 437 1038 m 635 -13 q 622 -20 629 -16 q 528 -139 550 -60 q 522 -172 523 -156 l 583 -172 q 587 -156 584 -164 q 652 -73 602 -101 q 717 -55 683 -55 q 755 -60 736 -55 q 854 -105 785 -68 q 969 -163 928 -153 q 1015 -170 992 -170 q 1090 -149 1054 -170 q 1166 -53 1148 -117 q 1173 -16 1172 -34 l 1112 -16 q 1107 -37 1111 -26 q 1061 -97 1097 -77 q 1013 -110 1038 -110 q 985 -106 1000 -110 q 905 -68 962 -99 q 772 -2 821 -16 q 765 0 768 -1 q 1036 151 918 33 q 1198 544 1198 313 q 1035 938 1198 774 q 642 1101 872 1101 q 248 938 411 1101 q 85 544 85 774 q 248 151 85 313 q 635 -13 409 -11 "},"R":{"ha":739,"x_min":102,"x_max":701,"o":"m 163 1023 l 347 1023 q 554 938 468 1023 q 640 731 640 852 q 554 524 640 610 q 347 438 468 438 l 163 438 l 163 1023 m 366 377 l 608 0 l 683 0 l 433 386 q 597 480 526 408 q 701 731 701 584 q 597 981 701 878 q 387 1085 511 1068 l 102 1085 l 102 0 l 163 0 l 163 376 l 347 376 q 366 377 357 376 "},"S":{"ha":707,"x_min":34,"x_max":673,"o":"m 372 601 q 536 494 469 561 q 613 309 613 417 q 536 124 613 201 q 351 47 460 47 q 167 124 243 47 q 92 278 101 190 l 34 257 q 124 82 49 157 q 351 -13 218 -13 q 578 81 484 -13 q 673 309 673 176 q 578 536 673 442 q 359 667 490 625 q 232 750 278 705 q 182 869 182 800 q 232 989 182 940 q 351 1038 281 1038 q 471 989 421 1038 q 511 928 498 962 l 566 950 q 514 1031 551 995 q 351 1098 446 1098 q 189 1030 256 1098 q 121 869 121 963 q 189 707 121 774 q 372 601 256 640 "},"T":{"ha":678,"x_min":34,"x_max":644,"o":"m 370 1024 l 644 1024 l 644 1085 l 34 1085 l 34 1024 l 309 1024 l 309 0 l 370 0 l 370 1024 "},"U":{"ha":912,"x_min":102,"x_max":810,"o":"m 749 1085 l 749 345 q 663 138 749 224 q 456 52 578 52 q 249 138 335 52 q 163 345 163 224 l 163 1085 l 102 1085 l 102 345 q 205 94 102 198 q 456 -9 309 -9 q 707 94 603 -9 q 810 305 793 181 l 810 1085 l 749 1085 "},"V":{"ha":876,"x_min":34,"x_max":842,"o":"m 98 1085 l 34 1085 l 437 -25 l 842 1085 l 777 1085 l 437 153 l 98 1085 "},"W":{"ha":1134,"x_min":85,"x_max":1049,"o":"m 536 163 q 498 111 521 134 q 353 52 437 52 q 207 112 269 52 q 146 256 146 172 l 146 1085 l 85 1085 l 85 251 q 163 69 87 145 q 353 -9 241 -9 q 542 68 463 -9 q 567 96 556 82 q 592 68 578 82 q 781 -9 671 -9 q 971 69 892 -9 q 1049 251 1047 145 l 1049 1085 l 988 1085 l 988 256 q 927 112 988 172 q 781 52 865 52 q 636 111 697 52 q 597 163 613 134 l 597 1085 l 536 1085 l 536 163 "},"X":{"ha":826,"x_min":34,"x_max":792,"o":"m 34 0 l 103 0 l 412 536 l 722 0 l 792 0 l 447 596 l 730 1085 l 661 1085 l 412 656 l 165 1085 l 96 1085 l 378 596 l 34 0 "},"Y":{"ha":876,"x_min":34,"x_max":842,"o":"m 407 439 l 407 0 l 468 0 l 468 439 l 842 1085 l 772 1085 l 437 507 l 104 1085 l 34 1085 l 407 439 "},"Z":{"ha":900,"x_min":102,"x_max":798,"o":"m 693 1024 l 102 0 l 798 0 l 798 61 l 206 61 l 798 1085 l 102 1085 l 102 1024 l 693 1024 "},"[":{"ha":380,"x_min":85,"x_max":295,"o":"m 146 -193 l 146 1024 l 295 1024 l 295 1085 l 85 1085 l 85 -254 l 295 -254 l 295 -193 l 146 -193 "},"\\":{"ha":493,"x_min":-34,"x_max":527,"o":"m 527 0 l 36 1085 l -34 1085 l 458 0 l 527 0 "},"]":{"ha":380,"x_min":85,"x_max":295,"o":"m 234 1024 l 234 -193 l 85 -193 l 85 -254 l 295 -254 l 295 1085 l 85 1085 l 85 1024 l 234 1024 "},"^":{"ha":625,"x_min":68,"x_max":557,"o":"m 348 1085 l 277 1085 l 68 723 l 139 723 l 313 1023 l 486 723 l 557 723 l 348 1085 "},"_":{"ha":712,"x_min":17,"x_max":695,"o":"m 17 -20 l 17 -81 l 695 -81 l 695 -20 l 17 -20 "},"`":{"ha":427,"x_min":102,"x_max":325,"o":"m 214 941 l 102 941 l 268 814 l 325 814 l 214 941 "},"a":{"ha":922,"x_min":85,"x_max":821,"o":"m 821 0 l 821 666 l 760 666 l 760 572 q 721 617 742 595 q 457 726 612 726 q 194 617 303 726 q 85 353 85 508 q 194 90 85 199 q 457 -19 303 -19 q 721 90 612 -19 q 760 136 742 112 l 760 0 l 821 0 m 760 293 q 675 136 743 204 q 457 46 585 46 q 239 136 330 46 q 149 353 149 226 q 239 571 149 481 q 457 661 330 661 q 675 571 585 661 q 760 414 743 503 l 760 293 "},"b":{"ha":922,"x_min":102,"x_max":837,"o":"m 102 1085 l 102 0 l 163 0 l 163 135 q 201 90 180 112 q 465 -19 311 -19 q 728 90 619 -19 q 837 353 837 199 q 728 617 837 508 q 465 726 619 726 q 201 617 311 726 q 163 572 180 595 l 163 1085 l 102 1085 m 163 417 q 247 571 180 505 q 465 661 337 661 q 682 571 592 661 q 772 353 772 481 q 682 136 772 226 q 465 46 592 46 q 247 136 337 46 q 163 290 180 203 l 163 417 "},"c":{"ha":798,"x_min":61,"x_max":737,"o":"m 673 160 q 651 136 663 148 q 433 46 561 46 q 216 136 307 46 q 126 354 126 227 q 216 571 126 481 q 433 661 307 661 q 651 572 561 661 q 673 547 663 559 l 737 571 q 697 617 720 595 q 433 726 588 726 q 170 617 279 726 q 61 354 61 508 q 170 90 61 199 q 433 -19 279 -19 q 697 90 588 -19 q 737 137 720 113 l 673 160 "},"d":{"ha":922,"x_min":85,"x_max":821,"o":"m 821 0 l 821 1085 l 760 1085 l 760 572 q 721 617 742 595 q 457 726 612 726 q 194 617 303 726 q 85 353 85 508 q 194 90 85 199 q 457 -19 303 -19 q 721 90 612 -19 q 760 136 742 112 l 760 0 l 821 0 m 760 293 q 675 136 743 204 q 457 46 585 46 q 239 136 330 46 q 149 353 149 226 q 239 571 149 481 q 457 661 330 661 q 675 571 585 661 q 760 414 743 503 l 760 293 "},"e":{"ha":798,"x_min":61,"x_max":737,"o":"m 229 125 l 663 559 l 709 605 q 697 617 703 611 q 665 647 681 633 q 433 726 566 726 q 170 617 279 726 q 61 354 61 508 q 170 90 61 199 q 433 -19 279 -19 q 697 90 588 -19 q 737 137 720 113 l 673 160 q 651 136 663 148 q 433 46 561 46 q 229 125 315 46 m 618 600 l 187 170 q 126 354 126 249 q 216 571 126 481 q 433 661 307 661 q 618 600 538 661 "},"f":{"ha":355,"x_min":61,"x_max":395,"o":"m 190 605 l 326 605 l 326 666 l 190 666 l 190 842 q 230 932 192 895 q 321 971 273 971 q 376 959 347 971 l 395 1013 q 315 1027 353 1027 q 186 976 242 1027 q 129 846 133 922 l 129 666 l 61 666 l 61 605 l 129 605 l 129 0 l 190 0 l 190 605 "},"g":{"ha":925,"x_min":85,"x_max":821,"o":"m 759 417 l 759 288 q 675 136 741 201 q 457 45 585 45 q 239 136 330 45 q 149 353 149 226 q 239 571 149 481 q 457 661 330 661 q 675 571 585 661 q 759 417 741 505 m 758 132 q 668 -62 750 20 q 451 -152 578 -152 q 233 -62 323 -152 q 212 -38 222 -50 l 147 -61 q 187 -108 165 -85 q 451 -217 296 -217 q 714 -108 605 -217 q 821 149 821 -1 l 821 666 l 760 666 l 760 572 q 721 617 742 595 q 457 726 612 726 q 194 617 303 726 q 85 353 85 508 q 194 90 85 199 q 457 -19 303 -19 q 721 90 612 -19 q 758 132 741 111 "},"h":{"ha":718,"x_min":102,"x_max":616,"o":"m 102 1085 l 102 0 l 163 0 l 163 530 q 203 586 176 559 q 349 645 264 645 q 494 585 433 645 q 555 440 555 525 l 555 0 l 616 0 l 616 446 q 541 632 614 558 q 349 706 467 706 q 163 631 240 706 l 163 1085 l 102 1085 "},"i":{"ha":292,"x_min":85,"x_max":207,"o":"m 176 666 l 115 666 l 115 0 l 176 0 l 176 666 m 146 902 q 103 884 121 902 q 85 842 85 867 q 103 798 85 816 q 146 781 121 781 q 189 798 171 781 q 207 842 207 816 q 189 884 207 867 q 146 902 171 902 "},"j":{"ha":309,"x_min":33,"x_max":207,"o":"m 33 -94 l 33 -155 q 176 0 176 -143 l 176 666 l 115 666 l 115 -1 q 33 -94 115 -84 m 146 902 q 103 884 121 902 q 85 842 85 867 q 103 798 85 816 q 146 781 121 781 q 189 798 171 781 q 207 842 207 816 q 189 884 207 867 q 146 902 171 902 "},"k":{"ha":558,"x_min":102,"x_max":524,"o":"m 427 666 l 348 666 l 163 437 l 163 949 l 102 949 l 102 0 l 163 0 l 163 340 l 222 414 l 448 0 l 524 0 l 262 463 l 427 666 "},"l":{"ha":264,"x_min":102,"x_max":163,"o":"m 163 1085 l 102 1085 l 102 0 l 163 0 l 163 1085 "},"m":{"ha":932,"x_min":102,"x_max":831,"o":"m 102 666 l 102 0 l 163 0 l 163 519 q 203 604 168 570 q 299 644 243 644 q 396 604 355 644 q 436 514 433 567 l 435 514 l 435 0 l 496 0 l 496 505 q 537 604 496 564 q 633 644 577 644 q 730 604 690 644 q 770 514 768 567 l 770 514 l 770 0 l 831 0 l 831 514 q 773 648 828 592 q 633 705 715 705 q 494 648 551 705 q 466 614 477 631 q 439 648 454 632 q 299 705 381 705 q 163 650 220 705 l 163 666 l 102 666 "},"n":{"ha":726,"x_min":102,"x_max":625,"o":"m 163 517 q 212 586 178 553 q 357 645 273 645 q 502 585 441 645 q 564 440 564 525 l 564 0 l 625 0 l 625 446 q 549 632 623 558 q 357 706 475 706 q 163 623 246 706 l 163 666 l 102 666 l 102 0 l 163 0 l 163 517 "},"o":{"ha":867,"x_min":61,"x_max":806,"o":"m 433 726 q 170 617 279 726 q 61 353 61 508 q 170 90 61 199 q 433 -19 279 -19 q 697 90 588 -19 q 806 353 806 199 q 697 617 806 508 q 433 726 588 726 m 433 661 q 651 571 561 661 q 741 353 741 481 q 651 136 741 226 q 433 46 561 46 q 216 136 306 46 q 125 353 125 226 q 216 571 125 481 q 433 661 306 661 "},"p":{"ha":905,"x_min":102,"x_max":837,"o":"m 102 666 l 102 -254 l 163 -254 l 163 135 q 201 90 180 112 q 465 -19 311 -19 q 728 90 619 -19 q 837 353 837 199 q 728 617 837 508 q 465 726 619 726 q 201 617 311 726 q 163 572 180 595 l 163 666 l 102 666 m 163 417 q 247 571 180 505 q 465 661 337 661 q 682 571 592 661 q 772 353 772 481 q 682 136 772 226 q 465 45 592 45 q 247 136 337 45 q 163 290 180 202 l 163 417 "},"q":{"ha":905,"x_min":68,"x_max":804,"o":"m 804 -254 l 804 666 l 743 666 l 743 572 q 704 617 725 595 q 440 726 595 726 q 177 617 286 726 q 68 353 68 508 q 177 90 68 199 q 440 -19 286 -19 q 704 90 595 -19 q 743 136 725 112 l 743 -254 l 804 -254 m 743 293 q 658 136 726 203 q 440 45 568 45 q 222 136 313 45 q 132 353 132 226 q 222 571 132 481 q 440 661 313 661 q 658 571 568 661 q 743 414 726 503 l 743 293 "},"r":{"ha":406,"x_min":102,"x_max":372,"o":"m 102 666 l 102 0 l 163 0 l 163 344 q 253 551 166 465 q 372 615 315 612 l 372 682 q 207 597 288 677 q 163 545 182 572 l 163 666 l 102 666 "},"s":{"ha":544,"x_min":78,"x_max":473,"o":"m 285 342 q 372 279 351 300 q 412 182 412 239 q 372 85 412 125 q 275 45 332 45 q 179 85 219 45 q 138 184 138 125 l 78 169 q 136 42 78 100 q 275 -16 193 -16 q 415 42 357 -16 q 473 182 473 100 q 415 321 473 263 q 292 406 378 358 q 220 457 237 440 q 191 527 191 486 q 220 597 191 568 q 290 626 249 626 q 356 600 331 626 q 389 523 382 574 l 441 544 l 441 547 q 399 644 441 602 q 290 688 356 688 q 177 641 224 688 q 130 527 130 593 q 177 414 130 461 q 285 342 207 385 "},"t":{"ha":454,"x_min":61,"x_max":393,"o":"m 197 666 l 61 666 l 61 605 l 197 605 l 197 0 l 258 0 l 258 605 l 393 605 l 393 666 l 258 666 l 258 949 l 197 949 l 197 666 "},"u":{"ha":745,"x_min":102,"x_max":644,"o":"m 376 -9 q 568 64 494 -9 q 644 251 642 138 l 644 666 l 583 666 l 583 256 q 521 112 583 172 q 376 52 460 52 q 224 112 286 52 q 163 256 163 172 l 163 666 l 102 666 l 102 251 q 178 64 104 138 q 376 -9 252 -9 "},"v":{"ha":722,"x_min":34,"x_max":688,"o":"m 361 111 l 104 666 l 34 666 l 361 -18 l 688 666 l 617 666 l 361 111 "},"w":{"ha":932,"x_min":102,"x_max":831,"o":"m 435 176 q 396 92 431 126 q 299 52 355 52 q 203 92 243 52 q 162 182 165 129 l 163 182 l 163 666 l 102 666 l 102 182 q 159 49 104 104 q 299 -9 217 -9 q 439 49 381 -9 q 467 81 455 64 q 494 49 478 64 q 633 -9 551 -9 q 773 49 715 -9 q 831 182 828 104 l 831 666 l 770 666 l 770 182 l 770 182 q 730 92 768 129 q 633 52 690 52 q 537 92 577 52 q 496 191 496 132 l 496 666 l 435 666 l 435 176 "},"x":{"ha":591,"x_min":51,"x_max":540,"o":"m 503 666 l 431 666 l 296 431 l 159 666 l 89 666 l 260 369 l 262 366 l 260 362 l 51 0 l 122 0 l 296 300 l 469 0 l 540 0 l 331 362 l 329 366 l 331 369 l 503 666 "},"y":{"ha":682,"x_min":51,"x_max":631,"o":"m 341 60 l 341 59 l 631 666 l 562 666 l 341 189 l 120 666 l 51 666 l 311 123 l 131 -254 l 191 -254 l 341 60 "},"z":{"ha":678,"x_min":102,"x_max":576,"o":"m 446 605 l 102 0 l 576 0 l 576 61 l 206 61 l 551 666 l 102 666 l 102 605 l 446 605 "},"{":{"ha":587,"x_min":85,"x_max":503,"o":"m 85 443 l 85 388 q 98 390 91 390 q 182 360 130 390 q 284 228 260 315 q 297 125 297 179 q 293 64 297 95 q 283 -27 283 16 q 294 -113 283 -73 q 385 -229 315 -189 q 477 -254 429 -254 q 503 -252 490 -254 l 503 -202 q 480 -203 491 -203 q 410 -184 444 -203 q 344 -100 359 -156 q 334 -15 334 -62 q 336 28 334 5 q 347 130 347 80 q 332 241 347 187 q 207 404 302 349 q 183 416 195 410 q 207 427 195 421 q 332 589 302 482 q 347 701 347 644 q 336 802 347 751 q 334 846 334 825 q 344 930 334 893 q 410 1016 359 987 q 478 1034 443 1034 q 503 1032 490 1034 l 503 1083 q 477 1085 490 1085 q 385 1059 429 1085 q 294 944 315 1020 q 283 859 283 904 q 293 767 283 816 q 297 706 297 736 q 284 603 297 652 q 182 471 260 515 q 98 441 130 441 q 85 443 91 441 "},"|":{"ha":264,"x_min":102,"x_max":163,"o":"m 163 1085 l 102 1085 l 102 -254 l 163 -254 l 163 1085 "},"}":{"ha":587,"x_min":85,"x_max":503,"o":"m 503 388 l 503 443 q 489 441 496 441 q 406 471 458 441 q 303 603 328 515 q 290 706 290 652 q 294 767 290 736 q 304 859 304 816 q 293 944 304 904 q 203 1059 273 1020 q 111 1085 159 1085 q 85 1083 98 1085 l 85 1032 q 109 1034 97 1034 q 178 1016 144 1034 q 243 930 229 987 q 254 846 254 893 q 252 802 254 825 q 241 701 241 751 q 255 589 241 644 q 380 427 285 482 q 404 416 392 421 q 380 404 392 410 q 255 241 285 349 q 241 130 241 187 q 252 28 241 80 q 254 -15 254 5 q 243 -100 254 -62 q 178 -184 229 -156 q 107 -203 143 -203 q 85 -202 96 -203 l 85 -252 q 111 -254 98 -254 q 203 -229 159 -254 q 293 -113 273 -189 q 304 -27 304 -73 q 294 64 304 16 q 290 125 290 95 q 303 228 290 179 q 406 360 328 315 q 489 390 458 390 q 503 388 496 390 "},"~":{"ha":866,"x_min":85,"x_max":781,"o":"m 433 584 q 243 651 315 651 q 206 646 223 651 q 100 545 131 621 q 85 479 86 512 l 146 470 q 157 522 146 496 q 230 590 178 574 q 248 592 238 592 q 433 518 304 592 q 622 451 551 451 q 660 456 643 451 q 766 557 734 481 q 781 623 779 590 l 720 632 q 709 580 720 606 q 636 512 688 528 q 618 510 628 510 q 433 584 560 510 "},"¡":{"ha":292,"x_min":85,"x_max":207,"o":"m 146 976 q 189 994 171 976 q 207 1036 207 1011 q 189 1080 207 1062 q 146 1097 171 1097 q 103 1080 121 1097 q 85 1036 85 1062 q 103 994 85 1011 q 146 976 121 976 m 117 3 l 178 3 l 178 901 l 117 901 l 117 3 "},"¢":{"ha":687,"x_min":67,"x_max":618,"o":"m 374 478 l 374 962 q 541 892 471 961 q 559 870 549 882 l 618 892 q 583 934 601 916 q 374 1023 496 1021 l 374 1127 l 313 1127 l 313 1018 q 156 934 224 1002 q 67 720 67 845 q 156 507 67 595 q 313 422 224 438 l 313 313 l 374 313 l 374 418 q 583 507 496 419 q 618 549 601 525 l 559 570 q 541 549 549 558 q 374 478 471 479 m 313 956 l 313 484 q 199 549 248 499 q 127 720 127 620 q 199 892 127 821 q 313 956 248 941 "},"£":{"ha":766,"x_min":68,"x_max":699,"o":"m 304 376 l 426 376 l 426 437 l 292 437 q 210 630 268 536 q 157 804 163 727 q 156 824 156 814 q 203 952 156 895 q 342 1024 258 1017 q 361 1025 351 1025 q 490 977 433 1025 q 562 840 554 923 q 563 821 563 830 q 553 756 563 785 l 611 736 q 626 814 626 771 q 624 844 626 828 q 530 1025 614 954 q 360 1087 454 1087 q 334 1086 347 1087 q 154 993 224 1076 q 92 824 92 918 q 93 798 92 811 q 178 566 102 688 q 229 437 211 502 l 87 437 l 87 376 l 241 376 q 245 342 244 359 q 247 313 247 328 q 174 115 247 201 q 68 14 152 88 l 127 -56 q 264 3 193 -23 q 343 14 297 14 q 460 0 394 14 q 585 -15 524 -15 q 699 -1 644 -15 l 687 59 q 585 47 639 47 q 457 62 524 47 q 360 73 409 73 q 193 43 278 73 q 309 317 309 179 q 307 347 309 332 q 304 376 306 362 "},"¤":{"ha":754,"x_min":68,"x_max":686,"o":"m 205 991 l 111 1086 l 68 1042 l 162 948 q 102 777 102 875 q 162 605 102 678 l 68 511 l 111 467 l 205 562 q 377 501 279 501 q 549 562 475 501 l 643 467 l 686 511 l 592 605 q 652 777 652 678 q 592 948 652 875 l 686 1042 l 643 1086 l 549 991 q 377 1052 475 1052 q 205 991 279 1052 m 505 948 q 529 928 517 939 q 549 905 540 917 q 591 777 591 850 q 549 648 591 703 q 529 625 540 636 q 505 605 517 614 q 377 562 450 562 q 249 605 304 562 q 226 625 237 614 q 205 648 214 636 q 163 777 163 703 q 205 905 163 850 q 226 928 214 917 q 249 948 237 939 q 377 991 304 991 q 505 948 450 991 "},"¥":{"ha":876,"x_min":34,"x_max":842,"o":"m 441 512 l 434 512 l 104 1085 l 34 1085 l 365 512 l 167 512 l 167 451 l 400 451 l 407 439 l 407 370 l 167 370 l 167 309 l 407 309 l 407 0 l 468 0 l 468 309 l 709 309 l 709 370 l 468 370 l 468 439 l 475 451 l 709 451 l 709 512 l 510 512 l 842 1085 l 772 1085 l 441 512 "},"¦":{"ha":264,"x_min":102,"x_max":163,"o":"m 163 1085 l 102 1085 l 102 509 l 163 509 l 163 1085 m 163 321 l 102 321 l 102 -254 l 163 -254 l 163 321 "},"§":{"ha":785,"x_min":68,"x_max":718,"o":"m 597 234 q 552 298 581 269 q 369 404 485 365 q 204 511 271 444 q 127 695 127 587 q 170 846 127 804 q 188 866 180 857 q 233 802 204 831 q 416 696 300 735 q 581 589 514 656 q 658 405 658 513 q 615 254 658 296 q 597 234 605 243 m 170 924 q 128 889 153 913 q 68 695 68 829 q 162 469 68 562 q 381 338 251 380 q 509 254 463 300 q 558 135 558 205 q 509 15 558 64 q 389 -34 459 -34 q 270 15 319 -34 q 230 76 242 43 l 175 54 q 227 -26 189 9 q 389 -94 294 -94 q 552 -26 485 -94 q 619 135 619 41 q 616 176 619 157 q 657 211 633 186 q 718 405 718 271 q 623 631 718 538 q 404 762 534 720 q 277 846 323 800 q 227 965 227 895 q 277 1085 227 1036 q 396 1134 326 1134 q 515 1085 466 1134 q 555 1024 543 1057 l 610 1046 q 559 1126 596 1090 q 396 1194 491 1194 q 233 1126 300 1194 q 166 965 166 1059 q 170 924 166 943 "},"¨":{"ha":495,"x_min":85,"x_max":410,"o":"m 146 902 q 103 884 121 902 q 85 842 85 867 q 103 798 85 816 q 146 781 121 781 q 189 798 171 781 q 207 842 207 816 q 189 884 207 867 q 146 902 171 902 m 349 902 q 306 884 324 902 q 288 842 288 867 q 306 798 288 816 q 349 781 324 781 q 392 798 374 781 q 410 842 410 816 q 392 884 410 867 q 349 902 374 902 "},"©":{"ha":953,"x_min":67,"x_max":882,"o":"m 622 300 q 608 283 614 290 q 482 231 555 231 q 357 283 409 231 q 304 409 304 336 q 357 535 304 483 q 482 587 409 587 q 608 535 555 587 q 622 518 614 528 l 668 535 q 641 568 654 554 q 482 633 575 633 q 323 568 389 633 q 258 409 258 502 q 323 250 258 316 q 482 184 389 184 q 641 250 575 184 q 668 283 654 264 l 622 300 m 475 817 q 186 697 306 817 q 67 409 67 578 q 186 121 67 240 q 475 1 306 1 q 762 121 643 1 q 882 409 882 240 q 762 697 882 578 q 475 817 643 817 m 475 768 q 728 663 623 768 q 833 409 833 558 q 728 155 833 260 q 475 50 623 50 q 220 155 326 50 q 115 409 115 260 q 220 663 115 558 q 475 768 326 768 "},"ª":{"ha":595,"x_min":68,"x_max":528,"o":"m 89 640 l 89 1045 l 68 1045 l 68 619 l 479 619 l 479 640 l 89 640 m 528 726 l 528 1056 l 490 1056 l 490 1019 q 479 1031 489 1021 q 349 1085 425 1085 q 218 1031 272 1085 q 165 901 165 977 q 218 771 165 825 q 349 718 272 718 q 479 771 425 718 q 490 784 489 782 l 490 726 l 528 726 m 490 872 q 450 799 483 831 q 349 757 408 757 q 246 799 288 757 q 203 901 203 841 q 246 1003 203 961 q 349 1046 288 1046 q 450 1004 408 1046 q 490 930 483 972 l 490 872 "},"«":{"ha":665,"x_min":68,"x_max":597,"o":"m 301 313 l 597 1 l 597 72 l 372 313 l 597 555 l 597 625 l 301 313 m 68 313 l 359 1 l 359 72 l 134 313 l 359 555 l 359 625 l 68 313 "},"®":{"ha":787,"x_min":68,"x_max":720,"o":"m 317 930 l 395 930 q 486 892 448 930 q 524 802 524 854 q 486 711 524 749 q 395 673 448 673 l 317 673 l 317 930 m 495 489 q 394 471 447 471 q 317 481 353 471 q 278 495 297 486 q 191 555 231 516 q 106 759 106 640 q 191 962 106 878 q 394 1046 275 1046 q 597 962 513 1046 q 681 759 681 878 q 597 555 681 640 q 530 505 566 526 l 442 641 q 513 683 479 650 q 561 801 561 732 q 513 918 561 869 q 414 966 472 958 l 279 966 l 279 530 l 317 530 l 317 635 l 401 635 l 495 489 m 531 464 q 624 528 591 495 q 720 759 720 624 q 624 989 720 894 q 394 1085 528 1085 q 163 989 258 1085 q 68 759 68 894 q 163 528 68 624 q 394 433 258 433 q 501 448 471 433 q 531 464 531 464 "},"¯":{"ha":570,"x_min":85,"x_max":485,"o":"m 85 968 l 85 907 l 485 907 l 485 968 l 85 968 "},"°":{"ha":517,"x_min":102,"x_max":415,"o":"m 258 1085 q 148 1039 193 1085 q 102 928 102 994 q 148 818 102 863 q 258 772 193 772 q 369 818 323 772 q 415 928 415 863 q 369 1039 415 994 q 258 1085 323 1085 m 258 1037 q 335 1005 303 1037 q 367 928 367 973 q 335 852 367 884 q 258 820 303 820 q 182 852 214 820 q 150 928 150 884 q 182 1005 150 973 q 258 1037 214 1037 "},"±":{"ha":712,"x_min":85,"x_max":627,"o":"m 326 371 l 326 130 l 387 130 l 387 371 l 627 371 l 627 432 l 387 432 l 387 673 l 326 673 l 326 432 l 85 432 l 85 371 l 326 371 m 85 61 l 85 0 l 627 0 l 627 61 l 85 61 "},"²":{"ha":610,"x_min":85,"x_max":525,"o":"m 87 427 l 525 427 l 525 477 l 156 477 q 237 587 171 541 q 365 675 309 636 q 463 755 421 713 q 525 899 525 817 q 461 1041 525 981 q 304 1100 397 1100 q 146 1040 212 1100 q 85 926 96 992 l 146 905 q 194 1005 153 968 q 304 1048 240 1048 q 415 1005 368 1048 q 462 899 462 962 q 415 789 462 836 q 313 703 368 741 q 183 613 257 665 q 87 427 109 562 "},"³":{"ha":610,"x_min":85,"x_max":525,"o":"m 279 790 q 416 728 370 774 q 462 618 462 682 q 415 513 462 556 q 304 470 368 470 q 194 512 240 470 q 146 612 153 549 l 85 592 q 146 478 96 525 q 304 418 212 418 q 461 477 397 418 q 525 618 525 536 q 463 762 525 701 q 371 821 419 806 q 420 861 385 826 q 455 955 455 895 q 409 1057 455 1013 q 294 1100 362 1100 q 178 1056 227 1100 q 141 999 153 1034 l 198 979 q 226 1023 210 1007 q 294 1048 254 1048 q 362 1022 334 1048 q 391 955 391 995 q 362 886 391 915 q 310 849 334 858 q 237 841 286 841 l 237 791 l 279 790 "},"´":{"ha":427,"x_min":102,"x_max":325,"o":"m 325 941 l 212 941 l 102 814 l 159 814 l 325 941 "},"µ":{"ha":709,"x_min":102,"x_max":608,"o":"m 548 75 l 548 0 l 608 0 l 608 666 l 548 666 l 548 203 q 494 115 534 154 q 349 55 433 55 q 203 114 264 55 q 163 170 176 141 l 163 666 l 102 666 l 102 -254 l 163 -254 l 163 68 q 349 -6 240 -6 q 541 68 467 -6 q 548 75 545 72 "},"¶":{"ha":770,"x_min":35,"x_max":736,"o":"m 553 1086 l 616 1086 l 616 -254 l 677 -254 l 677 1086 l 736 1086 l 736 1147 l 404 1147 l 404 1147 l 349 1147 q 138 1043 225 1130 q 35 793 35 939 q 138 542 35 646 q 389 438 242 438 l 492 438 l 492 -254 l 553 -254 l 553 1086 "},"·":{"ha":273,"x_min":85,"x_max":189,"o":"m 137 594 q 100 579 115 594 q 85 543 85 564 q 100 506 85 521 q 137 491 115 491 q 173 506 158 491 q 189 543 189 521 q 173 579 189 564 q 137 594 158 594 "},"∙":{"ha":273,"x_min":85,"x_max":189,"o":"m 137 594 q 173 579 158 594 q 189 543 189 564 q 173 506 189 521 q 137 491 158 491 q 100 506 115 491 q 85 543 85 521 q 100 579 85 564 q 137 594 115 594 "},"¸":{"ha":174,"x_min":7,"x_max":168,"o":"m 106 0 l 62 0 l 33 -73 q 85 -87 62 -73 q 113 -125 109 -103 l 113 -130 q 96 -161 113 -148 q 45 -176 76 -176 q 14 -172 28 -176 l 7 -209 q 50 -214 27 -214 q 138 -187 104 -214 q 168 -134 168 -165 q 167 -125 168 -130 q 121 -61 161 -87 q 102 -51 111 -56 l 104 -24 l 103 -24 l 104 -20 l 106 0 "},"¹":{"ha":610,"x_min":250,"x_max":359,"o":"m 359 1085 l 315 1085 l 250 1007 l 298 1007 l 298 420 l 359 420 l 359 1085 "},"º":{"ha":620,"x_min":68,"x_max":552,"o":"m 359 757 q 246 799 285 760 q 203 901 203 841 q 246 1004 203 961 q 359 1046 285 1042 q 471 1004 432 1042 q 513 901 513 961 q 471 799 513 841 q 359 757 432 760 m 349 718 l 368 718 q 498 771 445 718 q 552 901 552 825 q 498 1031 552 977 q 368 1085 445 1085 l 349 1085 q 218 1031 272 1085 q 165 901 165 977 q 218 771 165 825 q 349 718 272 718 m 89 640 l 89 1045 l 68 1045 l 68 619 l 479 619 l 479 640 l 89 640 "},"»":{"ha":665,"x_min":68,"x_max":597,"o":"m 68 1 l 363 313 l 68 625 l 68 555 l 292 313 l 68 72 l 68 1 m 306 1 l 597 313 l 306 625 l 306 555 l 530 313 l 306 72 l 306 1 "},"¿":{"ha":648,"x_min":102,"x_max":562,"o":"m 264 533 q 126 372 168 458 q 102 273 102 323 q 116 197 102 235 q 233 66 147 108 q 332 43 281 43 q 409 57 370 43 q 541 174 498 88 q 562 262 562 218 l 562 267 l 503 270 q 486 199 503 234 q 389 113 455 136 q 333 103 361 103 q 260 120 296 103 q 174 217 197 151 q 164 273 164 245 q 182 346 164 310 q 274 467 210 404 q 437 663 383 549 q 471 801 471 730 q 452 908 471 854 l 395 888 q 411 801 411 844 q 384 688 411 744 q 264 533 343 603 m 427 976 q 470 994 452 976 q 488 1036 488 1011 q 470 1080 488 1062 q 427 1097 452 1097 q 384 1080 402 1097 q 366 1036 366 1062 q 384 994 366 1011 q 427 976 402 976 "},"À":{"ha":876,"x_min":34,"x_max":842,"o":"m 604 477 l 273 477 l 438 932 l 604 477 m 626 416 l 777 0 l 842 0 l 438 1110 l 34 0 l 99 0 l 250 416 l 626 416 m 401 1360 l 289 1360 l 455 1233 l 512 1233 l 401 1360 "},"Á":{"ha":876,"x_min":34,"x_max":842,"o":"m 604 477 l 273 477 l 438 932 l 604 477 m 626 416 l 777 0 l 842 0 l 438 1110 l 34 0 l 99 0 l 250 416 l 626 416 m 587 1360 l 474 1360 l 363 1233 l 420 1233 l 587 1360 "},"Â":{"ha":876,"x_min":34,"x_max":842,"o":"m 604 477 l 273 477 l 438 932 l 604 477 m 626 416 l 777 0 l 842 0 l 438 1110 l 34 0 l 99 0 l 250 416 l 626 416 m 470 1317 l 399 1317 l 244 1158 l 315 1158 l 435 1255 l 561 1158 l 631 1158 l 470 1317 "},"Ã":{"ha":876,"x_min":34,"x_max":842,"o":"m 604 477 l 273 477 l 438 932 l 604 477 m 626 416 l 777 0 l 842 0 l 438 1110 l 34 0 l 99 0 l 250 416 l 626 416 m 434 1270 q 356 1301 395 1301 q 328 1297 342 1301 q 260 1194 275 1281 l 307 1194 q 355 1251 321 1249 l 358 1251 q 442 1211 391 1251 q 520 1179 481 1179 q 549 1183 534 1179 q 616 1286 602 1199 l 569 1286 q 522 1230 555 1232 l 518 1230 q 434 1270 485 1230 "},"Ä":{"ha":876,"x_min":34,"x_max":842,"o":"m 604 477 l 273 477 l 438 932 l 604 477 m 626 416 l 777 0 l 842 0 l 438 1110 l 34 0 l 99 0 l 250 416 l 626 416 m 336 1321 q 293 1303 311 1321 q 275 1261 275 1286 q 293 1217 275 1235 q 336 1200 311 1200 q 379 1217 361 1200 q 397 1261 397 1235 q 379 1303 397 1286 q 336 1321 361 1321 m 540 1321 q 497 1303 515 1321 q 479 1261 479 1286 q 497 1217 479 1235 q 540 1200 515 1200 q 583 1217 565 1200 q 601 1261 601 1235 q 583 1303 601 1286 q 540 1321 565 1321 "},"Å":{"ha":876,"x_min":34,"x_max":842,"o":"m 604 477 l 273 477 l 438 932 l 604 477 m 626 416 l 777 0 l 842 0 l 438 1110 l 34 0 l 99 0 l 250 416 l 626 416 m 438 1343 q 379 1318 404 1343 q 355 1259 355 1294 q 379 1201 355 1225 q 438 1177 404 1177 q 497 1201 473 1177 q 522 1259 522 1225 q 497 1318 522 1294 q 438 1343 473 1343 m 438 1299 q 465 1287 454 1299 q 477 1259 477 1276 q 465 1232 477 1244 q 438 1221 454 1221 q 410 1232 422 1221 q 399 1259 399 1244 q 410 1287 399 1276 q 438 1299 422 1299 "},"Æ":{"ha":1137,"x_min":27,"x_max":1052,"o":"m 1052 1085 l 509 1085 l 509 1083 l 27 0 l 113 0 l 291 416 l 509 416 l 509 0 l 1052 0 l 1052 61 l 570 61 l 570 512 l 1052 512 l 1052 573 l 570 573 l 570 1024 l 1052 1024 l 1052 1085 m 509 931 l 509 477 l 313 477 l 509 931 "},"Ç":{"ha":1082,"x_min":85,"x_max":1014,"o":"m 524 -2 l 496 -73 q 548 -87 524 -73 q 575 -125 572 -103 l 575 -130 q 558 -161 575 -148 q 508 -176 538 -176 q 477 -172 491 -176 l 469 -209 q 513 -214 490 -214 q 601 -187 566 -214 q 630 -134 630 -165 q 629 -125 630 -130 q 583 -61 624 -87 q 564 -51 574 -56 l 566 -24 l 566 -24 l 566 -20 l 568 -9 q 640 -13 603 -13 q 1014 132 855 -13 l 968 173 q 640 49 828 49 q 292 193 436 49 q 147 543 147 338 q 292 891 147 747 q 640 1036 436 1036 q 968 911 828 1036 l 1014 954 q 640 1098 855 1098 q 247 935 410 1098 q 85 543 85 772 q 248 150 85 312 q 524 -2 367 30 "},"È":{"ha":729,"x_min":102,"x_max":644,"o":"m 644 1085 l 102 1085 l 102 0 l 644 0 l 644 61 l 163 61 l 163 512 l 644 512 l 644 573 l 163 573 l 163 1024 l 644 1024 l 644 1085 m 337 1360 l 224 1360 l 391 1233 l 448 1233 l 337 1360 "},"É":{"ha":729,"x_min":102,"x_max":644,"o":"m 644 1085 l 102 1085 l 102 0 l 644 0 l 644 61 l 163 61 l 163 512 l 644 512 l 644 573 l 163 573 l 163 1024 l 644 1024 l 644 1085 m 522 1360 l 409 1360 l 298 1233 l 355 1233 l 522 1360 "},"Ê":{"ha":729,"x_min":102,"x_max":644,"o":"m 644 1085 l 102 1085 l 102 0 l 644 0 l 644 61 l 163 61 l 163 512 l 644 512 l 644 573 l 163 573 l 163 1024 l 644 1024 l 644 1085 m 406 1317 l 335 1317 l 180 1158 l 251 1158 l 370 1255 l 496 1158 l 567 1158 l 406 1317 "},"Ë":{"ha":729,"x_min":102,"x_max":644,"o":"m 644 1085 l 102 1085 l 102 0 l 644 0 l 644 61 l 163 61 l 163 512 l 644 512 l 644 573 l 163 573 l 163 1024 l 644 1024 l 644 1085 m 271 1321 q 228 1303 246 1321 q 210 1261 210 1286 q 228 1217 210 1235 q 271 1200 246 1200 q 314 1217 296 1200 q 332 1261 332 1235 q 314 1303 332 1286 q 271 1321 296 1321 m 475 1321 q 432 1303 450 1321 q 414 1261 414 1286 q 432 1217 414 1235 q 475 1200 450 1200 q 518 1217 500 1200 q 536 1261 536 1235 q 518 1303 536 1286 q 475 1321 500 1321 "},"Ì":{"ha":292,"x_min":-3,"x_max":220,"o":"m 176 1085 l 115 1085 l 115 0 l 176 0 l 176 1085 m 110 1360 l -3 1360 l 163 1233 l 220 1233 l 110 1360 "},"Í":{"ha":292,"x_min":71,"x_max":294,"o":"m 176 1085 l 115 1085 l 115 0 l 176 0 l 176 1085 m 294 1360 l 182 1360 l 71 1233 l 128 1233 l 294 1360 "},"Î":{"ha":292,"x_min":-47,"x_max":340,"o":"m 177 1085 l 116 1085 l 116 0 l 177 0 l 177 1085 m 178 1317 l 108 1317 l -47 1158 l 24 1158 l 143 1255 l 269 1158 l 340 1158 l 178 1317 "},"Ï":{"ha":292,"x_min":-17,"x_max":309,"o":"m 176 1085 l 115 1085 l 115 0 l 176 0 l 176 1085 m 44 1321 q 1 1303 19 1321 q -17 1261 -17 1286 q 1 1217 -17 1235 q 44 1200 19 1200 q 87 1217 69 1200 q 105 1261 105 1235 q 87 1303 105 1286 q 44 1321 69 1321 m 248 1321 q 204 1303 222 1321 q 186 1261 186 1286 q 204 1217 186 1235 q 248 1200 222 1200 q 291 1217 273 1200 q 309 1261 309 1235 q 291 1303 309 1286 q 248 1321 273 1321 "},"Ð":{"ha":871,"x_min":34,"x_max":786,"o":"m 142 573 l 34 573 l 34 512 l 142 512 l 142 0 l 203 0 l 203 1 l 208 1 q 623 149 476 1 q 786 543 786 312 q 623 936 786 772 q 208 1084 476 1084 l 203 1084 l 203 1085 l 142 1085 l 142 573 m 203 573 l 203 1021 l 208 1021 q 579 892 450 1021 q 724 543 724 747 q 579 193 724 338 q 208 63 450 63 l 203 63 l 203 512 l 454 512 l 454 573 l 203 573 "},"Ñ":{"ha":889,"x_min":102,"x_max":787,"o":"m 102 1085 l 102 0 l 163 0 l 163 975 l 726 0 l 787 0 l 787 1085 l 726 1085 l 726 120 l 169 1085 l 102 1085 m 441 1270 q 363 1301 401 1301 q 334 1297 349 1301 q 267 1194 281 1281 l 314 1194 q 361 1251 328 1249 l 365 1251 q 449 1211 398 1251 q 527 1179 488 1179 q 555 1183 541 1179 q 623 1286 608 1199 l 576 1286 q 528 1230 562 1232 l 525 1230 q 441 1270 492 1230 "},"Ò":{"ha":1283,"x_min":85,"x_max":1198,"o":"m 642 1101 q 248 938 411 1101 q 85 544 85 774 q 248 150 85 313 q 642 -13 411 -13 q 1035 150 872 -13 q 1198 544 1198 313 q 1035 938 1198 774 q 642 1101 872 1101 m 642 1038 q 991 893 846 1038 q 1136 544 1136 749 q 991 194 1136 339 q 642 49 846 49 q 292 194 437 49 q 147 544 147 339 q 292 893 147 749 q 642 1038 437 1038 m 606 1360 l 493 1360 l 659 1233 l 716 1233 l 606 1360 "},"Ó":{"ha":1283,"x_min":85,"x_max":1198,"o":"m 642 1101 q 248 938 411 1101 q 85 544 85 774 q 248 150 85 313 q 642 -13 411 -13 q 1035 150 872 -13 q 1198 544 1198 313 q 1035 938 1198 774 q 642 1101 872 1101 m 642 1038 q 991 893 846 1038 q 1136 544 1136 749 q 991 194 1136 339 q 642 49 846 49 q 292 194 437 49 q 147 544 147 339 q 292 893 147 749 q 642 1038 437 1038 m 790 1360 l 677 1360 l 567 1233 l 624 1233 l 790 1360 "},"Ô":{"ha":1283,"x_min":85,"x_max":1198,"o":"m 642 1101 q 248 938 411 1101 q 85 544 85 774 q 248 150 85 313 q 642 -13 411 -13 q 1035 150 872 -13 q 1198 544 1198 313 q 1035 938 1198 774 q 642 1101 872 1101 m 642 1038 q 991 893 846 1038 q 1136 544 1136 749 q 991 194 1136 339 q 642 49 846 49 q 292 194 437 49 q 147 544 147 339 q 292 893 147 749 q 642 1038 437 1038 m 674 1317 l 604 1317 l 448 1158 l 519 1158 l 639 1255 l 765 1158 l 836 1158 l 674 1317 "},"Õ":{"ha":1283,"x_min":85,"x_max":1198,"o":"m 642 1101 q 248 938 411 1101 q 85 544 85 774 q 248 150 85 313 q 642 -13 411 -13 q 1035 150 872 -13 q 1198 544 1198 313 q 1035 938 1198 774 q 642 1101 872 1101 m 642 1038 q 991 893 846 1038 q 1136 544 1136 749 q 991 194 1136 339 q 642 49 846 49 q 292 194 437 49 q 147 544 147 339 q 292 893 147 749 q 642 1038 437 1038 m 638 1270 q 560 1301 599 1301 q 532 1297 546 1301 q 464 1194 479 1281 l 511 1194 q 559 1251 525 1249 l 562 1251 q 646 1211 595 1251 q 724 1179 686 1179 q 753 1183 739 1179 q 820 1286 806 1199 l 773 1286 q 726 1230 760 1232 l 722 1230 q 638 1270 689 1230 "},"Ö":{"ha":1283,"x_min":85,"x_max":1198,"o":"m 642 1101 q 248 938 411 1101 q 85 544 85 774 q 248 150 85 313 q 642 -13 411 -13 q 1035 150 872 -13 q 1198 544 1198 313 q 1035 938 1198 774 q 642 1101 872 1101 m 642 1038 q 991 893 846 1038 q 1136 544 1136 749 q 991 194 1136 339 q 642 49 846 49 q 292 194 437 49 q 147 544 147 339 q 292 893 147 749 q 642 1038 437 1038 m 540 1321 q 497 1303 515 1321 q 479 1261 479 1286 q 497 1217 479 1235 q 540 1200 515 1200 q 583 1217 565 1200 q 601 1261 601 1235 q 583 1303 601 1286 q 540 1321 565 1321 m 743 1321 q 700 1303 718 1321 q 682 1261 682 1286 q 700 1217 682 1235 q 743 1200 718 1200 q 786 1217 768 1200 q 804 1261 804 1235 q 786 1303 804 1286 q 743 1321 768 1321 "},"×":{"ha":712,"x_min":142,"x_max":569,"o":"m 356 358 l 526 188 l 569 231 l 399 401 l 569 572 l 526 615 l 356 445 l 186 615 l 142 572 l 313 401 l 142 231 l 186 188 l 356 358 "},"Ø":{"ha":1283,"x_min":85,"x_max":1198,"o":"m 823 1006 l 405 108 q 292 194 345 142 q 147 544 147 339 q 292 893 147 749 q 642 1038 437 1038 q 823 1006 739 1038 m 460 82 l 878 979 q 991 894 939 946 q 1136 544 1136 749 q 991 194 1136 339 q 642 49 846 49 q 460 82 544 49 m 905 1036 l 963 1161 l 907 1187 l 849 1062 q 642 1101 753 1101 q 248 938 411 1101 q 85 544 85 774 q 248 151 85 313 q 378 52 309 90 l 320 -73 l 376 -99 l 434 26 q 642 -13 530 -13 q 1035 150 872 -13 q 1198 544 1198 313 q 1036 938 1198 774 q 905 1036 975 998 "},"Ù":{"ha":912,"x_min":102,"x_max":810,"o":"m 749 1085 l 749 345 q 663 138 749 224 q 456 52 578 52 q 249 138 335 52 q 163 345 163 224 l 163 1085 l 102 1085 l 102 345 q 205 94 102 198 q 456 -9 309 -9 q 707 94 603 -9 q 810 305 793 181 l 810 1085 l 749 1085 m 420 1360 l 307 1360 l 473 1233 l 530 1233 l 420 1360 "},"Ú":{"ha":912,"x_min":102,"x_max":810,"o":"m 749 1085 l 749 345 q 663 138 749 224 q 456 52 578 52 q 249 138 335 52 q 163 345 163 224 l 163 1085 l 102 1085 l 102 345 q 205 94 102 198 q 456 -9 309 -9 q 707 94 603 -9 q 810 305 793 181 l 810 1085 l 749 1085 m 605 1360 l 492 1360 l 382 1233 l 439 1233 l 605 1360 "},"Û":{"ha":912,"x_min":102,"x_max":810,"o":"m 749 1085 l 749 345 q 663 138 749 224 q 456 52 578 52 q 249 138 335 52 q 163 345 163 224 l 163 1085 l 102 1085 l 102 345 q 205 94 102 198 q 456 -9 309 -9 q 707 94 603 -9 q 810 305 793 181 l 810 1085 l 749 1085 m 488 1317 l 418 1317 l 262 1158 l 334 1158 l 453 1255 l 579 1158 l 650 1158 l 488 1317 "},"Ü":{"ha":912,"x_min":102,"x_max":810,"o":"m 749 1085 l 749 345 q 663 138 749 224 q 456 52 578 52 q 249 138 335 52 q 163 345 163 224 l 163 1085 l 102 1085 l 102 345 q 205 94 102 198 q 456 -9 309 -9 q 707 94 603 -9 q 810 305 793 181 l 810 1085 l 749 1085 m 355 1321 q 312 1303 330 1321 q 294 1261 294 1286 q 312 1217 294 1235 q 355 1200 330 1200 q 398 1217 380 1200 q 416 1261 416 1235 q 398 1303 416 1286 q 355 1321 380 1321 m 558 1321 q 515 1303 533 1321 q 497 1261 497 1286 q 515 1217 497 1235 q 558 1200 533 1200 q 601 1217 583 1200 q 619 1261 619 1235 q 601 1303 619 1286 q 558 1321 583 1321 "},"Ý":{"ha":876,"x_min":34,"x_max":842,"o":"m 407 439 l 407 0 l 468 0 l 468 439 l 842 1085 l 772 1085 l 437 507 l 104 1085 l 34 1085 l 407 439 m 587 1360 l 474 1360 l 363 1233 l 420 1233 l 587 1360 "},"Þ":{"ha":762,"x_min":102,"x_max":701,"o":"m 163 897 l 163 1085 l 102 1085 l 102 0 l 163 0 l 163 189 l 347 189 q 597 292 494 189 q 701 543 701 396 q 597 793 701 690 q 387 897 511 880 l 163 897 m 163 250 l 163 836 l 347 836 q 554 750 468 836 q 640 543 640 665 q 554 336 640 422 q 347 250 468 250 l 163 250 "},"ß":{"ha":735,"x_min":95,"x_max":674,"o":"m 292 1090 q 153 1033 203 1087 q 95 869 102 979 l 95 0 l 156 0 l 156 859 q 195 982 160 941 q 302 1027 231 1024 l 310 1027 q 412 986 376 1027 q 450 883 450 943 q 412 787 450 823 q 279 747 373 751 l 279 682 q 519 591 429 682 q 610 374 610 501 q 519 153 610 246 q 324 60 437 68 l 324 61 l 211 61 l 211 0 l 324 0 l 324 1 q 566 107 465 3 q 674 374 674 220 q 422 727 665 630 q 510 878 510 783 l 510 889 q 443 1043 505 992 q 303 1090 385 1090 l 292 1090 "},"à":{"ha":922,"x_min":85,"x_max":821,"o":"m 821 0 l 821 666 l 760 666 l 760 572 q 721 617 742 595 q 457 726 612 726 q 194 617 303 726 q 85 353 85 508 q 194 90 85 199 q 457 -19 303 -19 q 721 90 612 -19 q 760 136 742 112 l 760 0 l 821 0 m 760 293 q 675 136 743 204 q 457 46 585 46 q 239 136 330 46 q 149 353 149 226 q 239 571 149 481 q 457 661 330 661 q 675 571 585 661 q 760 414 743 503 l 760 293 m 416 941 l 304 941 l 470 814 l 527 814 l 416 941 "},"á":{"ha":922,"x_min":85,"x_max":821,"o":"m 821 0 l 821 666 l 760 666 l 760 572 q 721 617 742 595 q 457 726 612 726 q 194 617 303 726 q 85 353 85 508 q 194 90 85 199 q 457 -19 303 -19 q 721 90 612 -19 q 760 136 742 112 l 760 0 l 821 0 m 760 293 q 675 136 743 204 q 457 46 585 46 q 239 136 330 46 q 149 353 149 226 q 239 571 149 481 q 457 661 330 661 q 675 571 585 661 q 760 414 743 503 l 760 293 m 602 941 l 489 941 l 378 814 l 435 814 l 602 941 "},"â":{"ha":922,"x_min":85,"x_max":821,"o":"m 821 0 l 821 666 l 760 666 l 760 572 q 721 617 742 595 q 457 726 612 726 q 194 617 303 726 q 85 353 85 508 q 194 90 85 199 q 457 -19 303 -19 q 721 90 612 -19 q 760 136 742 112 l 760 0 l 821 0 m 760 293 q 675 136 743 204 q 457 46 585 46 q 239 136 330 46 q 149 353 149 226 q 239 571 149 481 q 457 661 330 661 q 675 571 585 661 q 760 414 743 503 l 760 293 m 485 898 l 414 898 l 259 739 l 330 739 l 450 836 l 576 739 l 646 739 l 485 898 "},"ã":{"ha":922,"x_min":85,"x_max":821,"o":"m 821 0 l 821 666 l 760 666 l 760 572 q 721 617 742 595 q 457 726 612 726 q 194 617 303 726 q 85 353 85 508 q 194 90 85 199 q 457 -19 303 -19 q 721 90 612 -19 q 760 136 742 112 l 760 0 l 821 0 m 760 293 q 675 136 743 204 q 457 46 585 46 q 239 136 330 46 q 149 353 149 226 q 239 571 149 481 q 457 661 330 661 q 675 571 585 661 q 760 414 743 503 l 760 293 m 449 851 q 371 882 410 882 q 342 878 357 882 q 275 774 290 862 l 322 774 q 370 831 336 829 l 373 831 q 457 791 406 831 q 535 760 496 760 q 564 764 549 760 q 631 867 616 780 l 584 867 q 536 810 570 812 l 533 810 q 449 851 500 810 "},"ä":{"ha":922,"x_min":85,"x_max":821,"o":"m 821 0 l 821 666 l 760 666 l 760 572 q 721 617 742 595 q 457 726 612 726 q 194 617 303 726 q 85 353 85 508 q 194 90 85 199 q 457 -19 303 -19 q 721 90 612 -19 q 760 136 742 112 l 760 0 l 821 0 m 760 293 q 675 136 743 204 q 457 46 585 46 q 239 136 330 46 q 149 353 149 226 q 239 571 149 481 q 457 661 330 661 q 675 571 585 661 q 760 414 743 503 l 760 293 m 351 902 q 308 884 326 902 q 290 842 290 867 q 308 798 290 816 q 351 781 326 781 q 394 798 376 781 q 412 842 412 816 q 394 884 412 867 q 351 902 376 902 m 555 902 q 512 884 530 902 q 494 842 494 867 q 512 798 494 816 q 555 781 530 781 q 598 798 580 781 q 616 842 616 816 q 598 884 616 867 q 555 902 580 902 "},"å":{"ha":922,"x_min":85,"x_max":821,"o":"m 821 0 l 821 666 l 760 666 l 760 572 q 721 617 742 595 q 457 726 612 726 q 194 617 303 726 q 85 353 85 508 q 194 90 85 199 q 457 -19 303 -19 q 721 90 612 -19 q 760 136 742 112 l 760 0 l 821 0 m 760 293 q 675 136 743 204 q 457 46 585 46 q 239 136 330 46 q 149 353 149 226 q 239 571 149 481 q 457 661 330 661 q 675 571 585 661 q 760 414 743 503 l 760 293 m 453 924 q 394 899 418 924 q 370 840 370 875 q 394 782 370 806 q 453 758 418 758 q 512 782 488 758 q 536 840 536 806 q 512 899 536 875 q 453 924 488 924 m 453 880 q 480 868 469 880 q 492 840 492 857 q 480 813 492 825 q 453 802 469 802 q 425 813 437 802 q 414 840 414 825 q 425 868 414 857 q 453 880 437 880 "},"æ":{"ha":1472,"x_min":61,"x_max":1411,"o":"m 704 501 q 736 414 727 460 l 736 293 q 704 205 727 246 q 651 136 684 169 q 433 46 561 46 q 216 136 306 46 q 125 353 125 226 q 216 571 125 481 q 433 661 306 661 q 651 571 561 661 q 704 501 684 538 m 1338 450 l 797 450 l 797 534 q 829 571 811 553 q 1047 661 920 661 q 1265 571 1175 661 q 1338 450 1316 519 m 797 174 l 797 389 l 1411 388 q 1311 617 1407 520 q 1047 726 1202 726 q 797 629 902 726 l 797 666 l 736 666 l 736 572 q 697 617 718 595 q 433 726 588 726 q 170 617 279 726 q 61 353 61 508 q 170 90 61 199 q 433 -19 279 -19 q 697 90 588 -19 q 736 136 718 112 l 736 0 l 797 0 l 797 78 q 1047 -19 902 -19 q 1311 90 1202 -19 q 1359 146 1348 127 l 1294 169 q 1265 136 1280 152 q 1047 46 1175 46 q 829 136 920 46 q 797 174 811 154 "},"ç":{"ha":798,"x_min":61,"x_max":737,"o":"m 369 -14 l 345 -73 q 397 -87 374 -73 q 425 -125 421 -103 l 425 -130 q 408 -161 425 -148 q 357 -176 388 -176 q 326 -172 340 -176 l 319 -209 q 362 -214 339 -214 q 450 -187 416 -214 q 479 -134 479 -165 q 479 -125 479 -130 q 433 -61 473 -87 q 414 -51 423 -56 l 416 -24 l 415 -24 l 416 -20 l 416 -18 q 433 -19 425 -19 q 697 90 588 -19 q 737 137 720 113 l 673 160 q 651 136 663 148 q 433 46 561 46 q 216 136 307 46 q 126 354 126 227 q 216 571 126 481 q 433 661 307 661 q 651 572 561 661 q 673 547 663 559 l 737 571 q 697 617 720 595 q 433 726 588 726 q 170 617 279 726 q 61 354 61 508 q 170 90 61 199 q 369 -14 256 5 "},"è":{"ha":798,"x_min":61,"x_max":737,"o":"m 229 125 l 663 559 l 709 605 q 697 617 703 611 q 665 647 681 633 q 433 726 566 726 q 170 617 279 726 q 61 354 61 508 q 170 90 61 199 q 433 -19 279 -19 q 697 90 588 -19 q 737 137 720 113 l 673 160 q 651 136 663 148 q 433 46 561 46 q 229 125 315 46 m 618 600 l 187 170 q 126 354 126 249 q 216 571 126 481 q 433 661 307 661 q 618 600 538 661 m 363 941 l 250 941 l 416 814 l 473 814 l 363 941 "},"é":{"ha":798,"x_min":61,"x_max":737,"o":"m 229 125 l 663 559 l 709 605 q 697 617 703 611 q 665 647 681 633 q 433 726 566 726 q 170 617 279 726 q 61 354 61 508 q 170 90 61 199 q 433 -19 279 -19 q 697 90 588 -19 q 737 137 720 113 l 673 160 q 651 136 663 148 q 433 46 561 46 q 229 125 315 46 m 618 600 l 187 170 q 126 354 126 249 q 216 571 126 481 q 433 661 307 661 q 618 600 538 661 m 548 941 l 435 941 l 325 814 l 382 814 l 548 941 "},"ê":{"ha":798,"x_min":61,"x_max":737,"o":"m 229 125 l 663 559 l 709 605 q 697 617 703 611 q 665 647 681 633 q 433 726 566 726 q 170 617 279 726 q 61 354 61 508 q 170 90 61 199 q 433 -19 279 -19 q 697 90 588 -19 q 737 137 720 113 l 673 160 q 651 136 663 148 q 433 46 561 46 q 229 125 315 46 m 618 600 l 187 170 q 126 354 126 249 q 216 571 126 481 q 433 661 307 661 q 618 600 538 661 m 431 898 l 361 898 l 205 739 l 277 739 l 396 836 l 522 739 l 593 739 l 431 898 "},"ë":{"ha":798,"x_min":61,"x_max":737,"o":"m 229 125 l 663 559 l 709 605 q 697 617 703 611 q 665 647 681 633 q 433 726 566 726 q 170 617 279 726 q 61 354 61 508 q 170 90 61 199 q 433 -19 279 -19 q 697 90 588 -19 q 737 137 720 113 l 673 160 q 651 136 663 148 q 433 46 561 46 q 229 125 315 46 m 618 600 l 187 170 q 126 354 126 249 q 216 571 126 481 q 433 661 307 661 q 618 600 538 661 m 298 902 q 255 884 273 902 q 237 842 237 867 q 255 798 237 816 q 298 781 273 781 q 341 798 323 781 q 359 842 359 816 q 341 884 359 867 q 298 902 323 902 m 501 902 q 458 884 476 902 q 440 842 440 867 q 458 798 440 816 q 501 781 476 781 q 544 798 526 781 q 562 842 562 816 q 544 884 562 867 q 501 902 526 902 "},"ì":{"ha":292,"x_min":-3,"x_max":220,"o":"m 176 666 l 115 666 l 115 0 l 176 0 l 176 666 m 110 941 l -3 941 l 163 814 l 220 814 l 110 941 "},"í":{"ha":292,"x_min":71,"x_max":294,"o":"m 176 666 l 115 666 l 115 0 l 176 0 l 176 666 m 294 941 l 182 941 l 71 814 l 128 814 l 294 941 "},"î":{"ha":292,"x_min":-47,"x_max":340,"o":"m 177 666 l 116 666 l 116 0 l 177 0 l 177 666 m 178 898 l 108 898 l -47 739 l 24 739 l 143 836 l 269 739 l 340 739 l 178 898 "},"ï":{"ha":292,"x_min":-17,"x_max":309,"o":"m 176 666 l 115 666 l 115 0 l 176 0 l 176 666 m 44 902 q 1 884 19 902 q -17 842 -17 867 q 1 798 -17 816 q 44 781 19 781 q 87 798 69 781 q 105 842 105 816 q 87 884 105 867 q 44 902 69 902 m 248 902 q 204 884 222 902 q 186 842 186 867 q 204 798 186 816 q 248 781 222 781 q 291 798 273 781 q 309 842 309 816 q 291 884 309 867 q 248 902 273 902 "},"ð":{"ha":867,"x_min":61,"x_max":806,"o":"m 216 571 q 433 661 306 661 q 651 571 561 661 q 741 353 741 481 q 651 136 741 226 q 433 46 561 46 q 216 136 306 46 q 125 353 125 226 q 171 526 125 481 q 216 571 216 571 m 649 659 l 542 765 l 591 765 l 591 826 l 480 826 l 402 904 l 315 904 l 386 826 l 327 826 l 327 765 l 441 765 l 477 724 q 433 726 456 726 q 170 617 279 726 q 61 353 61 508 q 170 90 61 199 q 433 -19 279 -19 q 697 90 588 -19 q 806 353 806 199 q 697 617 806 508 q 649 659 674 640 "},"ñ":{"ha":726,"x_min":102,"x_max":625,"o":"m 163 517 q 212 586 178 553 q 357 645 273 645 q 502 585 441 645 q 564 440 564 525 l 564 0 l 625 0 l 625 446 q 549 632 623 558 q 357 706 475 706 q 163 623 246 706 l 163 666 l 102 666 l 102 0 l 163 0 l 163 517 m 359 851 q 281 882 320 882 q 253 878 267 882 q 185 774 200 862 l 233 774 q 280 831 246 829 l 283 831 q 368 791 317 831 q 446 760 407 760 q 474 764 460 760 q 541 867 527 780 l 494 867 q 447 810 481 812 l 444 810 q 359 851 410 810 "},"ò":{"ha":867,"x_min":61,"x_max":806,"o":"m 433 726 q 170 617 279 726 q 61 353 61 508 q 170 90 61 199 q 433 -19 279 -19 q 697 90 588 -19 q 806 353 806 199 q 697 617 806 508 q 433 726 588 726 m 433 661 q 651 571 561 661 q 741 353 741 481 q 651 136 741 226 q 433 46 561 46 q 216 136 306 46 q 125 353 125 226 q 216 571 125 481 q 433 661 306 661 m 397 941 l 285 941 l 451 814 l 508 814 l 397 941 "},"ó":{"ha":867,"x_min":61,"x_max":806,"o":"m 433 726 q 170 617 279 726 q 61 353 61 508 q 170 90 61 199 q 433 -19 279 -19 q 697 90 588 -19 q 806 353 806 199 q 697 617 806 508 q 433 726 588 726 m 433 661 q 651 571 561 661 q 741 353 741 481 q 651 136 741 226 q 433 46 561 46 q 216 136 306 46 q 125 353 125 226 q 216 571 125 481 q 433 661 306 661 m 582 941 l 469 941 l 359 814 l 416 814 l 582 941 "},"ô":{"ha":867,"x_min":61,"x_max":806,"o":"m 433 726 q 170 617 279 726 q 61 353 61 508 q 170 90 61 199 q 433 -19 279 -19 q 697 90 588 -19 q 806 353 806 199 q 697 617 806 508 q 433 726 588 726 m 433 661 q 651 571 561 661 q 741 353 741 481 q 651 136 741 226 q 433 46 561 46 q 216 136 306 46 q 125 353 125 226 q 216 571 125 481 q 433 661 306 661 m 466 898 l 395 898 l 240 739 l 311 739 l 431 836 l 557 739 l 627 739 l 466 898 "},"õ":{"ha":867,"x_min":61,"x_max":806,"o":"m 433 726 q 170 617 279 726 q 61 353 61 508 q 170 90 61 199 q 433 -19 279 -19 q 697 90 588 -19 q 806 353 806 199 q 697 617 806 508 q 433 726 588 726 m 433 661 q 651 571 561 661 q 741 353 741 481 q 651 136 741 226 q 433 46 561 46 q 216 136 306 46 q 125 353 125 226 q 216 571 125 481 q 433 661 306 661 m 430 851 q 352 882 391 882 q 323 878 338 882 q 256 774 271 862 l 303 774 q 351 831 317 829 l 354 831 q 438 791 387 831 q 516 760 477 760 q 545 764 530 760 q 612 867 597 780 l 565 867 q 517 810 551 812 l 514 810 q 430 851 481 810 "},"ö":{"ha":867,"x_min":61,"x_max":806,"o":"m 433 726 q 170 617 279 726 q 61 353 61 508 q 170 90 61 199 q 433 -19 279 -19 q 697 90 588 -19 q 806 353 806 199 q 697 617 806 508 q 433 726 588 726 m 433 661 q 651 571 561 661 q 741 353 741 481 q 651 136 741 226 q 433 46 561 46 q 216 136 306 46 q 125 353 125 226 q 216 571 125 481 q 433 661 306 661 m 332 902 q 289 884 307 902 q 271 842 271 867 q 289 798 271 816 q 332 781 307 781 q 375 798 357 781 q 393 842 393 816 q 375 884 393 867 q 332 902 357 902 m 535 902 q 492 884 510 902 q 474 842 474 867 q 492 798 474 816 q 535 781 510 781 q 578 798 560 781 q 596 842 596 816 q 578 884 596 867 q 535 902 560 902 "},"÷":{"ha":712,"x_min":85,"x_max":627,"o":"m 85 447 l 85 386 l 627 386 l 627 447 l 85 447 m 356 612 q 313 595 331 612 q 295 552 295 577 q 313 509 295 526 q 356 491 331 491 q 399 509 381 491 q 417 552 417 526 q 399 595 417 577 q 356 612 381 612 m 356 341 q 313 323 331 341 q 295 281 295 306 q 313 237 295 255 q 356 220 331 220 q 399 237 381 220 q 417 281 417 255 q 399 323 417 306 q 356 341 381 341 "},"ø":{"ha":867,"x_min":61,"x_max":806,"o":"m 561 635 l 254 104 q 216 137 234 118 q 125 354 125 227 q 216 572 125 481 q 433 662 306 662 q 561 635 503 662 m 613 604 q 651 572 633 590 q 741 354 741 481 q 651 137 741 227 q 433 47 561 47 q 306 73 364 47 l 613 604 m 222 47 l 136 -102 l 190 -127 l 273 17 q 433 -18 346 -18 q 697 91 588 -18 q 806 354 806 200 q 697 618 806 509 q 646 661 673 642 l 730 808 l 677 836 l 594 692 q 433 727 521 727 q 170 618 279 727 q 61 354 61 509 q 170 91 61 200 q 222 47 195 66 "},"ù":{"ha":745,"x_min":102,"x_max":644,"o":"m 376 -9 q 568 64 494 -9 q 644 251 642 138 l 644 666 l 583 666 l 583 256 q 521 112 583 172 q 376 52 460 52 q 224 112 286 52 q 163 256 163 172 l 163 666 l 102 666 l 102 251 q 178 64 104 138 q 376 -9 252 -9 m 336 941 l 224 941 l 390 814 l 447 814 l 336 941 "},"ú":{"ha":745,"x_min":102,"x_max":644,"o":"m 376 -9 q 568 64 494 -9 q 644 251 642 138 l 644 666 l 583 666 l 583 256 q 521 112 583 172 q 376 52 460 52 q 224 112 286 52 q 163 256 163 172 l 163 666 l 102 666 l 102 251 q 178 64 104 138 q 376 -9 252 -9 m 522 941 l 409 941 l 298 814 l 355 814 l 522 941 "},"û":{"ha":745,"x_min":102,"x_max":644,"o":"m 376 -9 q 568 64 494 -9 q 644 251 642 138 l 644 666 l 583 666 l 583 256 q 521 112 583 172 q 376 52 460 52 q 224 112 286 52 q 163 256 163 172 l 163 666 l 102 666 l 102 251 q 178 64 104 138 q 376 -9 252 -9 m 405 898 l 334 898 l 179 739 l 250 739 l 370 836 l 496 739 l 566 739 l 405 898 "},"ü":{"ha":745,"x_min":102,"x_max":644,"o":"m 376 -9 q 568 64 494 -9 q 644 251 642 138 l 644 666 l 583 666 l 583 256 q 521 112 583 172 q 376 52 460 52 q 224 112 286 52 q 163 256 163 172 l 163 666 l 102 666 l 102 251 q 178 64 104 138 q 376 -9 252 -9 m 271 902 q 228 884 246 902 q 210 842 210 867 q 228 798 210 816 q 271 781 246 781 q 314 798 296 781 q 332 842 332 816 q 314 884 332 867 q 271 902 296 902 m 475 902 q 432 884 450 902 q 414 842 414 867 q 432 798 414 816 q 475 781 450 781 q 518 798 500 781 q 536 842 536 816 q 518 884 536 867 q 475 902 500 902 "},"ý":{"ha":682,"x_min":51,"x_max":631,"o":"m 341 60 l 341 59 l 631 666 l 562 666 l 341 189 l 120 666 l 51 666 l 311 123 l 131 -254 l 191 -254 l 341 60 m 490 941 l 377 941 l 267 814 l 323 814 l 490 941 "},"þ":{"ha":905,"x_min":102,"x_max":837,"o":"m 163 572 l 163 1085 l 102 1085 l 102 -254 l 163 -254 l 163 135 q 201 90 180 112 q 465 -19 311 -19 q 728 90 619 -19 q 837 353 837 199 q 728 617 837 508 q 465 726 619 726 q 201 617 311 726 q 163 572 180 595 m 163 290 l 163 417 q 247 571 180 505 q 465 661 337 661 q 682 571 592 661 q 772 353 772 481 q 682 136 772 226 q 465 45 592 45 q 247 136 337 45 q 163 290 180 202 "},"ÿ":{"ha":682,"x_min":51,"x_max":631,"o":"m 341 60 l 341 59 l 631 666 l 562 666 l 341 189 l 120 666 l 51 666 l 311 123 l 131 -254 l 191 -254 l 341 60 m 239 902 q 196 884 214 902 q 178 842 178 867 q 196 798 178 816 q 239 781 214 781 q 282 798 264 781 q 300 842 300 816 q 282 884 300 867 q 239 902 264 902 m 443 902 q 400 884 418 902 q 382 842 382 867 q 400 798 382 816 q 443 781 418 781 q 486 798 468 781 q 504 842 504 816 q 486 884 504 867 q 443 902 468 902 "},"Ā":{"ha":876,"x_min":34,"x_max":842,"o":"m 604 477 l 273 477 l 438 932 l 604 477 m 626 416 l 777 0 l 842 0 l 438 1110 l 34 0 l 99 0 l 250 416 l 626 416 m 238 1251 l 238 1204 l 638 1204 l 638 1251 l 238 1251 "},"ā":{"ha":922,"x_min":85,"x_max":821,"o":"m 821 0 l 821 666 l 760 666 l 760 572 q 721 617 742 595 q 457 726 612 726 q 194 617 303 726 q 85 353 85 508 q 194 90 85 199 q 457 -19 303 -19 q 721 90 612 -19 q 760 136 742 112 l 760 0 l 821 0 m 760 293 q 675 136 743 204 q 457 46 585 46 q 239 136 330 46 q 149 353 149 226 q 239 571 149 481 q 457 661 330 661 q 675 571 585 661 q 760 414 743 503 l 760 293 m 253 832 l 253 785 l 653 785 l 653 832 l 253 832 "},"Ă":{"ha":876,"x_min":34,"x_max":842,"o":"m 604 477 l 273 477 l 438 932 l 604 477 m 626 416 l 777 0 l 842 0 l 438 1110 l 34 0 l 99 0 l 250 416 l 626 416 m 329 1326 l 279 1326 q 326 1230 281 1274 q 439 1183 372 1183 q 551 1230 505 1183 q 597 1326 592 1270 l 548 1326 q 517 1265 543 1291 q 439 1232 484 1232 q 360 1265 393 1232 q 329 1326 334 1291 "},"ă":{"ha":922,"x_min":85,"x_max":821,"o":"m 821 0 l 821 666 l 760 666 l 760 572 q 721 617 742 595 q 457 726 612 726 q 194 617 303 726 q 85 353 85 508 q 194 90 85 199 q 457 -19 303 -19 q 721 90 612 -19 q 760 136 742 112 l 760 0 l 821 0 m 760 293 q 675 136 743 204 q 457 46 585 46 q 239 136 330 46 q 149 353 149 226 q 239 571 149 481 q 457 661 330 661 q 675 571 585 661 q 760 414 743 503 l 760 293 m 344 907 l 294 907 q 340 810 296 855 q 454 764 387 764 q 566 810 520 764 q 612 907 607 851 l 563 907 q 532 846 558 871 q 454 813 499 813 q 375 846 408 813 q 344 907 349 871 "},"Ą":{"ha":876,"x_min":34,"x_max":842,"o":"m 604 477 l 273 477 l 438 932 l 604 477 m 767 28 q 665 -89 674 -22 q 663 -109 663 -99 q 687 -174 663 -147 q 766 -207 717 -207 q 842 -191 804 -207 l 827 -157 q 787 -167 808 -167 q 733 -142 753 -167 q 718 -92 718 -125 q 720 -69 718 -81 q 777 0 726 -26 l 842 0 l 438 1110 l 34 0 l 99 0 l 250 416 l 626 416 l 767 28 "},"ą":{"ha":922,"x_min":85,"x_max":827,"o":"m 760 293 q 675 136 743 204 q 457 46 585 46 q 239 136 330 46 q 149 353 149 226 q 239 571 149 481 q 457 661 330 661 q 675 571 585 661 q 760 414 743 503 l 760 293 m 760 31 q 650 -89 661 -19 q 649 -109 649 -99 q 673 -174 649 -147 q 752 -207 703 -207 q 827 -191 789 -207 l 812 -157 q 773 -167 793 -167 q 719 -142 739 -167 q 704 -92 704 -125 q 705 -69 704 -81 q 760 0 711 -26 l 821 0 l 821 666 l 760 666 l 760 572 q 721 617 742 595 q 457 726 612 726 q 194 617 303 726 q 85 353 85 508 q 194 90 85 199 q 457 -19 303 -19 q 721 90 612 -19 q 760 136 742 112 l 760 31 "},"Ć":{"ha":1082,"x_min":85,"x_max":1014,"o":"m 968 173 q 640 49 828 49 q 292 193 436 49 q 147 543 147 338 q 292 891 147 747 q 640 1036 436 1036 q 968 911 828 1036 l 1014 954 q 640 1098 855 1098 q 247 935 410 1098 q 85 543 85 772 q 247 150 85 312 q 640 -13 410 -13 q 1014 132 855 -13 l 968 173 m 766 1360 l 653 1360 l 543 1233 l 600 1233 l 766 1360 "},"ć":{"ha":798,"x_min":61,"x_max":737,"o":"m 673 160 q 651 136 663 148 q 433 46 561 46 q 216 136 307 46 q 126 354 126 227 q 216 571 126 481 q 433 661 307 661 q 651 572 561 661 q 673 547 663 559 l 737 571 q 697 617 720 595 q 433 726 588 726 q 170 617 279 726 q 61 354 61 508 q 170 90 61 199 q 433 -19 279 -19 q 697 90 588 -19 q 737 137 720 113 l 673 160 m 582 941 l 469 941 l 359 814 l 416 814 l 582 941 "},"Ĉ":{"ha":1082,"x_min":85,"x_max":1014,"o":"m 968 173 q 640 49 828 49 q 292 193 436 49 q 147 543 147 338 q 292 891 147 747 q 640 1036 436 1036 q 968 911 828 1036 l 1014 954 q 640 1098 855 1098 q 247 935 410 1098 q 85 543 85 772 q 247 150 85 312 q 640 -13 410 -13 q 1014 132 855 -13 l 968 173 m 650 1317 l 579 1317 l 424 1158 l 495 1158 l 614 1255 l 741 1158 l 811 1158 l 650 1317 "},"ĉ":{"ha":798,"x_min":61,"x_max":737,"o":"m 673 160 q 651 136 663 148 q 433 46 561 46 q 216 136 307 46 q 126 354 126 227 q 216 571 126 481 q 433 661 307 661 q 651 572 561 661 q 673 547 663 559 l 737 571 q 697 617 720 595 q 433 726 588 726 q 170 617 279 726 q 61 354 61 508 q 170 90 61 199 q 433 -19 279 -19 q 697 90 588 -19 q 737 137 720 113 l 673 160 m 465 898 l 395 898 l 239 739 l 311 739 l 430 836 l 556 739 l 627 739 l 465 898 "},"Ċ":{"ha":1082,"x_min":85,"x_max":1014,"o":"m 968 173 q 640 49 828 49 q 292 193 436 49 q 147 543 147 338 q 292 891 147 747 q 640 1036 436 1036 q 968 911 828 1036 l 1014 954 q 640 1098 855 1098 q 247 935 410 1098 q 85 543 85 772 q 247 150 85 312 q 640 -13 410 -13 q 1014 132 855 -13 l 968 173 m 638 1303 q 601 1288 616 1303 q 586 1251 586 1273 q 601 1215 586 1230 q 638 1200 616 1200 q 674 1215 659 1200 q 690 1251 690 1230 q 674 1288 690 1273 q 638 1303 659 1303 "},"ċ":{"ha":798,"x_min":61,"x_max":737,"o":"m 673 160 q 651 136 663 148 q 433 46 561 46 q 216 136 307 46 q 126 354 126 227 q 216 571 126 481 q 433 661 307 661 q 651 572 561 661 q 673 547 663 559 l 737 571 q 697 617 720 595 q 433 726 588 726 q 170 617 279 726 q 61 354 61 508 q 170 90 61 199 q 433 -19 279 -19 q 697 90 588 -19 q 737 137 720 113 l 673 160 m 433 884 q 396 869 412 884 q 381 832 381 854 q 396 795 381 810 q 433 781 412 781 q 470 795 454 781 q 485 832 485 810 q 470 869 485 854 q 433 884 454 884 "},"Č":{"ha":1082,"x_min":85,"x_max":1014,"o":"m 968 173 q 640 49 828 49 q 292 193 436 49 q 147 543 147 338 q 292 891 147 747 q 640 1036 436 1036 q 968 911 828 1036 l 1014 954 q 640 1098 855 1098 q 247 935 410 1098 q 85 543 85 772 q 247 150 85 312 q 640 -13 410 -13 q 1014 132 855 -13 l 968 173 m 511 1158 l 582 1158 l 743 1317 l 673 1317 l 547 1220 l 427 1317 l 356 1317 l 511 1158 "},"č":{"ha":798,"x_min":61,"x_max":737,"o":"m 673 160 q 651 136 663 148 q 433 46 561 46 q 216 136 307 46 q 126 354 126 227 q 216 571 126 481 q 433 661 307 661 q 651 572 561 661 q 673 547 663 559 l 737 571 q 697 617 720 595 q 433 726 588 726 q 170 617 279 726 q 61 354 61 508 q 170 90 61 199 q 433 -19 279 -19 q 697 90 588 -19 q 737 137 720 113 l 673 160 m 361 739 l 431 739 l 593 898 l 522 898 l 396 801 l 277 898 l 205 898 l 361 739 "},"Ď":{"ha":813,"x_min":102,"x_max":745,"o":"m 163 1021 l 168 1021 q 538 892 409 1021 q 683 543 683 747 q 538 193 683 338 q 168 63 409 63 l 163 63 l 163 1021 m 163 1084 l 163 1085 l 102 1085 l 102 0 l 163 0 l 163 1 l 168 1 q 583 149 435 1 q 745 543 745 312 q 583 936 745 772 q 168 1084 435 1084 l 163 1084 m 385 1090 l 456 1090 l 617 1249 l 547 1249 l 420 1152 l 301 1249 l 230 1249 l 385 1090 "},"ď":{"ha":997,"x_min":85,"x_max":997,"o":"m 821 0 l 821 1085 l 760 1085 l 760 572 q 721 617 742 595 q 457 726 612 726 q 194 617 303 726 q 85 353 85 508 q 194 90 85 199 q 457 -19 303 -19 q 721 90 612 -19 q 760 136 742 112 l 760 0 l 821 0 m 760 293 q 675 136 743 204 q 457 46 585 46 q 239 136 330 46 q 149 353 149 226 q 239 571 149 481 q 457 661 330 661 q 675 571 585 661 q 760 414 743 503 l 760 293 m 920 968 l 882 866 l 926 866 l 992 1000 q 997 1027 997 1013 q 979 1069 997 1052 q 936 1087 961 1087 q 893 1069 911 1087 q 875 1027 875 1052 q 893 983 875 1001 q 920 968 905 971 "},"Đ":{"ha":871,"x_min":34,"x_max":786,"o":"m 142 573 l 34 573 l 34 512 l 142 512 l 142 0 l 203 0 l 203 1 l 208 1 q 623 149 476 1 q 786 543 786 312 q 623 936 786 772 q 208 1084 476 1084 l 203 1084 l 203 1085 l 142 1085 l 142 573 m 203 573 l 203 1021 l 208 1021 q 579 892 450 1021 q 724 543 724 747 q 579 193 724 338 q 208 63 450 63 l 203 63 l 203 512 l 454 512 l 454 573 l 203 573 "},"đ":{"ha":922,"x_min":85,"x_max":888,"o":"m 760 293 q 675 136 743 204 q 457 46 585 46 q 239 136 330 46 q 149 353 149 226 q 239 571 149 481 q 457 661 330 661 q 675 571 585 661 q 760 414 743 503 l 760 293 m 821 870 l 888 870 l 888 931 l 821 931 l 821 1085 l 760 1085 l 760 931 l 562 931 l 562 870 l 760 870 l 760 572 q 721 617 742 595 q 457 726 612 726 q 194 617 303 726 q 85 353 85 508 q 194 90 85 199 q 457 -19 303 -19 q 721 90 612 -19 q 760 136 742 112 l 760 0 l 821 0 l 821 870 "},"Ē":{"ha":729,"x_min":102,"x_max":644,"o":"m 644 1085 l 102 1085 l 102 0 l 644 0 l 644 61 l 163 61 l 163 512 l 644 512 l 644 573 l 163 573 l 163 1024 l 644 1024 l 644 1085 m 173 1251 l 173 1204 l 573 1204 l 573 1251 l 173 1251 "},"ē":{"ha":798,"x_min":61,"x_max":737,"o":"m 229 125 l 663 559 l 709 605 q 697 617 703 611 q 665 647 681 633 q 433 726 566 726 q 170 617 279 726 q 61 354 61 508 q 170 90 61 199 q 433 -19 279 -19 q 697 90 588 -19 q 737 137 720 113 l 673 160 q 651 136 663 148 q 433 46 561 46 q 229 125 315 46 m 618 600 l 187 170 q 126 354 126 249 q 216 571 126 481 q 433 661 307 661 q 618 600 538 661 m 199 832 l 199 785 l 600 785 l 600 832 l 199 832 "},"Ĕ":{"ha":729,"x_min":102,"x_max":644,"o":"m 644 1085 l 102 1085 l 102 0 l 644 0 l 644 61 l 163 61 l 163 512 l 644 512 l 644 573 l 163 573 l 163 1024 l 644 1024 l 644 1085 m 264 1326 l 214 1326 q 260 1230 216 1274 q 374 1183 307 1183 q 486 1230 440 1183 q 532 1326 527 1270 l 483 1326 q 452 1265 478 1291 q 374 1232 419 1232 q 295 1265 328 1232 q 264 1326 269 1291 "},"ĕ":{"ha":798,"x_min":61,"x_max":737,"o":"m 229 125 l 663 559 l 709 605 q 697 617 703 611 q 665 647 681 633 q 433 726 566 726 q 170 617 279 726 q 61 354 61 508 q 170 90 61 199 q 433 -19 279 -19 q 697 90 588 -19 q 737 137 720 113 l 673 160 q 651 136 663 148 q 433 46 561 46 q 229 125 315 46 m 618 600 l 187 170 q 126 354 126 249 q 216 571 126 481 q 433 661 307 661 q 618 600 538 661 m 290 907 l 240 907 q 287 810 243 855 q 400 764 333 764 q 513 810 467 764 q 559 907 553 851 l 509 907 q 478 846 505 871 q 400 813 446 813 q 321 846 354 813 q 290 907 296 871 "},"Ė":{"ha":729,"x_min":102,"x_max":644,"o":"m 644 1085 l 102 1085 l 102 0 l 644 0 l 644 61 l 163 61 l 163 512 l 644 512 l 644 573 l 163 573 l 163 1024 l 644 1024 l 644 1085 m 374 1303 q 337 1288 352 1303 q 321 1251 321 1273 q 337 1215 321 1230 q 374 1200 352 1200 q 410 1215 395 1200 q 425 1251 425 1230 q 410 1288 425 1273 q 374 1303 395 1303 "},"ė":{"ha":798,"x_min":61,"x_max":737,"o":"m 229 125 l 663 559 l 709 605 q 697 617 703 611 q 665 647 681 633 q 433 726 566 726 q 170 617 279 726 q 61 354 61 508 q 170 90 61 199 q 433 -19 279 -19 q 697 90 588 -19 q 737 137 720 113 l 673 160 q 651 136 663 148 q 433 46 561 46 q 229 125 315 46 m 618 600 l 187 170 q 126 354 126 249 q 216 571 126 481 q 433 661 307 661 q 618 600 538 661 m 399 884 q 362 869 378 884 q 347 832 347 854 q 362 795 347 810 q 399 781 378 781 q 436 795 420 781 q 451 832 451 810 q 436 869 451 854 q 399 884 420 884 "},"Ę":{"ha":729,"x_min":102,"x_max":644,"o":"m 526 0 q 467 -89 474 -39 q 466 -109 466 -99 q 490 -174 466 -147 q 569 -207 519 -207 q 644 -191 606 -207 l 629 -157 q 590 -167 610 -167 q 536 -142 556 -167 q 521 -92 521 -125 q 522 -69 521 -81 q 572 0 528 -28 l 644 0 l 644 61 l 163 61 l 163 512 l 644 512 l 644 573 l 163 573 l 163 1024 l 644 1024 l 644 1085 l 102 1085 l 102 0 l 526 0 "},"ę":{"ha":798,"x_min":61,"x_max":737,"o":"m 618 600 l 187 170 q 126 354 126 249 q 216 571 126 481 q 433 661 307 661 q 618 600 538 661 m 606 19 q 540 -90 546 -45 q 538 -109 538 -100 q 562 -174 538 -148 q 642 -208 592 -208 q 717 -192 679 -208 l 702 -158 q 663 -168 683 -168 q 608 -143 629 -168 q 593 -93 593 -125 q 595 -70 593 -82 q 647 47 602 -26 q 697 90 673 66 q 737 137 720 113 l 673 160 q 651 136 663 148 q 433 46 561 46 q 229 125 315 46 l 663 559 l 709 605 q 697 617 703 611 q 665 647 681 633 q 433 726 566 726 q 170 617 279 726 q 61 354 61 508 q 170 90 61 199 q 433 -19 279 -19 q 606 19 516 -19 "},"Ě":{"ha":729,"x_min":102,"x_max":644,"o":"m 644 1085 l 102 1085 l 102 0 l 644 0 l 644 61 l 163 61 l 163 512 l 644 512 l 644 573 l 163 573 l 163 1024 l 644 1024 l 644 1085 m 335 1158 l 406 1158 l 567 1317 l 496 1317 l 370 1220 l 251 1317 l 180 1317 l 335 1158 "},"ě":{"ha":798,"x_min":61,"x_max":737,"o":"m 229 125 l 663 559 l 709 605 q 697 617 703 611 q 665 647 681 633 q 433 726 566 726 q 170 617 279 726 q 61 354 61 508 q 170 90 61 199 q 433 -19 279 -19 q 697 90 588 -19 q 737 137 720 113 l 673 160 q 651 136 663 148 q 433 46 561 46 q 229 125 315 46 m 618 600 l 187 170 q 126 354 126 249 q 216 571 126 481 q 433 661 307 661 q 618 600 538 661 m 361 739 l 431 739 l 593 898 l 522 898 l 396 801 l 277 898 l 205 898 l 361 739 "},"Ĝ":{"ha":1099,"x_min":85,"x_max":1014,"o":"m 1010 135 l 1010 488 l 949 488 l 949 157 q 640 49 815 49 q 292 193 436 49 q 147 543 147 338 q 292 891 147 747 q 640 1036 436 1036 q 968 911 828 1036 l 1014 954 q 640 1098 855 1098 q 247 935 410 1098 q 85 543 85 772 q 247 150 85 312 q 640 -13 410 -13 q 1010 135 855 -13 m 650 1317 l 579 1317 l 424 1158 l 495 1158 l 614 1255 l 741 1158 l 811 1158 l 650 1317 "},"ĝ":{"ha":925,"x_min":85,"x_max":821,"o":"m 759 417 l 759 288 q 675 136 741 201 q 457 45 585 45 q 239 136 330 45 q 149 353 149 226 q 239 571 149 481 q 457 661 330 661 q 675 571 585 661 q 759 417 741 505 m 758 132 q 668 -62 750 20 q 451 -152 578 -152 q 233 -62 323 -152 q 212 -38 222 -50 l 147 -61 q 187 -108 165 -85 q 451 -217 296 -217 q 714 -108 605 -217 q 821 149 821 -1 l 821 666 l 760 666 l 760 572 q 721 617 742 595 q 457 726 612 726 q 194 617 303 726 q 85 353 85 508 q 194 90 85 199 q 457 -19 303 -19 q 721 90 612 -19 q 758 132 741 111 m 485 898 l 414 898 l 259 739 l 330 739 l 450 836 l 576 739 l 646 739 l 485 898 "},"Ğ":{"ha":1099,"x_min":85,"x_max":1014,"o":"m 1010 135 l 1010 488 l 949 488 l 949 157 q 640 49 815 49 q 292 193 436 49 q 147 543 147 338 q 292 891 147 747 q 640 1036 436 1036 q 968 911 828 1036 l 1014 954 q 640 1098 855 1098 q 247 935 410 1098 q 85 543 85 772 q 247 150 85 312 q 640 -13 410 -13 q 1010 135 855 -13 m 535 1326 l 485 1326 q 532 1230 488 1274 q 645 1183 578 1183 q 758 1230 711 1183 q 804 1326 798 1270 l 754 1326 q 723 1265 749 1291 q 645 1232 690 1232 q 566 1265 599 1232 q 535 1326 541 1291 "},"ğ":{"ha":925,"x_min":85,"x_max":821,"o":"m 759 417 l 759 288 q 675 136 741 201 q 457 45 585 45 q 239 136 330 45 q 149 353 149 226 q 239 571 149 481 q 457 661 330 661 q 675 571 585 661 q 759 417 741 505 m 758 132 q 668 -62 750 20 q 451 -152 578 -152 q 233 -62 323 -152 q 212 -38 222 -50 l 147 -61 q 187 -108 165 -85 q 451 -217 296 -217 q 714 -108 605 -217 q 821 149 821 -1 l 821 666 l 760 666 l 760 572 q 721 617 742 595 q 457 726 612 726 q 194 617 303 726 q 85 353 85 508 q 194 90 85 199 q 457 -19 303 -19 q 721 90 612 -19 q 758 132 741 111 m 344 907 l 294 907 q 340 810 296 855 q 454 764 387 764 q 566 810 520 764 q 612 907 607 851 l 563 907 q 532 846 558 871 q 454 813 499 813 q 375 846 408 813 q 344 907 349 871 "},"Ġ":{"ha":1099,"x_min":85,"x_max":1014,"o":"m 1010 135 l 1010 488 l 949 488 l 949 157 q 640 49 815 49 q 292 193 436 49 q 147 543 147 338 q 292 891 147 747 q 640 1036 436 1036 q 968 911 828 1036 l 1014 954 q 640 1098 855 1098 q 247 935 410 1098 q 85 543 85 772 q 247 150 85 312 q 640 -13 410 -13 q 1010 135 855 -13 m 638 1303 q 601 1288 616 1303 q 586 1251 586 1273 q 601 1215 586 1230 q 638 1200 616 1200 q 674 1215 659 1200 q 690 1251 690 1230 q 674 1288 690 1273 q 638 1303 659 1303 "},"ġ":{"ha":925,"x_min":85,"x_max":821,"o":"m 759 417 l 759 288 q 675 136 741 201 q 457 45 585 45 q 239 136 330 45 q 149 353 149 226 q 239 571 149 481 q 457 661 330 661 q 675 571 585 661 q 759 417 741 505 m 758 132 q 668 -62 750 20 q 451 -152 578 -152 q 233 -62 323 -152 q 212 -38 222 -50 l 147 -61 q 187 -108 165 -85 q 451 -217 296 -217 q 714 -108 605 -217 q 821 149 821 -1 l 821 666 l 760 666 l 760 572 q 721 617 742 595 q 457 726 612 726 q 194 617 303 726 q 85 353 85 508 q 194 90 85 199 q 457 -19 303 -19 q 721 90 612 -19 q 758 132 741 111 m 453 884 q 416 869 431 884 q 401 832 401 854 q 416 795 401 810 q 453 781 431 781 q 489 795 474 781 q 505 832 505 810 q 489 869 505 854 q 453 884 474 884 "},"Ģ":{"ha":1099,"x_min":85,"x_max":1014,"o":"m 524 -2 l 496 -73 q 548 -87 524 -73 q 575 -125 572 -103 l 575 -130 q 558 -161 575 -148 q 508 -176 538 -176 q 477 -172 491 -176 l 469 -209 q 513 -214 490 -214 q 601 -187 566 -214 q 630 -134 630 -165 q 629 -125 630 -130 q 583 -61 624 -87 q 564 -51 574 -56 l 566 -24 l 566 -24 l 566 -20 l 568 -9 q 640 -13 603 -13 q 1010 135 855 -13 l 1010 488 l 949 488 l 949 157 q 640 49 815 49 q 292 193 436 49 q 147 543 147 338 q 292 891 147 747 q 640 1036 436 1036 q 968 911 828 1036 l 1014 954 q 640 1098 855 1098 q 247 935 410 1098 q 85 543 85 772 q 248 150 85 312 q 524 -2 367 30 "},"ģ":{"ha":925,"x_min":85,"x_max":821,"o":"m 759 417 l 759 288 q 675 136 741 201 q 457 45 585 45 q 239 136 330 45 q 149 353 149 226 q 239 571 149 481 q 457 661 330 661 q 675 571 585 661 q 759 417 741 505 m 758 132 q 668 -62 750 20 q 451 -152 578 -152 q 233 -62 323 -152 q 212 -38 222 -50 l 147 -61 q 187 -108 165 -85 q 451 -217 296 -217 q 714 -108 605 -217 q 821 149 821 -1 l 821 666 l 760 666 l 760 572 q 721 617 742 595 q 457 726 612 726 q 194 617 303 726 q 85 353 85 508 q 194 90 85 199 q 457 -19 303 -19 q 721 90 612 -19 q 758 132 741 111 m 486 889 l 525 991 l 481 991 l 414 857 q 410 830 410 844 q 428 787 410 805 q 471 770 446 770 q 514 787 496 770 q 532 830 532 805 q 513 873 532 856 q 486 889 502 886 "},"Ĥ":{"ha":780,"x_min":102,"x_max":678,"o":"m 163 486 l 617 486 l 617 0 l 678 0 l 678 1085 l 617 1085 l 617 547 l 163 547 l 163 1085 l 102 1085 l 102 0 l 163 0 l 163 486 m 422 1317 l 352 1317 l 197 1158 l 268 1158 l 387 1255 l 513 1158 l 584 1158 l 422 1317 "},"ĥ":{"ha":718,"x_min":102,"x_max":616,"o":"m 102 1085 l 102 0 l 163 0 l 163 530 q 203 586 176 559 q 349 645 264 645 q 494 585 433 645 q 555 440 555 525 l 555 0 l 616 0 l 616 446 q 541 632 614 558 q 349 706 467 706 q 163 631 240 706 l 163 1085 l 102 1085 m 422 1317 l 352 1317 l 197 1158 l 268 1158 l 387 1255 l 513 1158 l 584 1158 l 422 1317 "},"Ħ":{"ha":773,"x_min":47,"x_max":726,"o":"m 675 888 l 726 888 l 726 949 l 675 949 l 675 1085 l 614 1085 l 614 949 l 159 949 l 159 1085 l 98 1085 l 98 949 l 47 949 l 47 888 l 98 888 l 98 0 l 159 0 l 159 486 l 614 486 l 614 0 l 675 0 l 675 888 m 159 888 l 614 888 l 614 547 l 159 547 l 159 888 "},"ħ":{"ha":718,"x_min":34,"x_max":616,"o":"m 102 931 l 34 931 l 34 870 l 102 870 l 102 0 l 163 0 l 163 530 q 203 586 176 559 q 349 645 264 645 q 494 585 433 645 q 555 440 555 525 l 555 0 l 616 0 l 616 446 q 541 632 614 558 q 349 706 467 706 q 163 631 240 706 l 163 870 l 441 870 l 441 931 l 163 931 l 163 1085 l 102 1085 l 102 931 "},"Ĩ":{"ha":292,"x_min":-32,"x_max":324,"o":"m 177 1085 l 116 1085 l 116 0 l 177 0 l 177 1085 m 142 1270 q 64 1301 103 1301 q 36 1297 50 1301 q -32 1194 -17 1281 l 16 1194 q 63 1251 29 1249 l 66 1251 q 151 1211 100 1251 q 229 1179 190 1179 q 257 1183 243 1179 q 324 1286 310 1199 l 277 1286 q 230 1230 264 1232 l 227 1230 q 142 1270 193 1230 "},"ĩ":{"ha":292,"x_min":-32,"x_max":324,"o":"m 177 666 l 116 666 l 116 0 l 177 0 l 177 666 m 142 851 q 64 882 103 882 q 36 878 50 882 q -32 774 -17 862 l 16 774 q 63 831 29 829 l 66 831 q 151 791 100 831 q 229 760 190 760 q 257 764 243 760 q 324 867 310 780 l 277 867 q 230 810 264 812 l 227 810 q 142 851 193 810 "},"Ī":{"ha":292,"x_min":-54,"x_max":346,"o":"m 176 1085 l 115 1085 l 115 0 l 176 0 l 176 1085 m -54 1251 l -54 1204 l 346 1204 l 346 1251 l -54 1251 "},"ī":{"ha":292,"x_min":-54,"x_max":346,"o":"m 176 666 l 115 666 l 115 0 l 176 0 l 176 666 m -54 832 l -54 785 l 346 785 l 346 832 l -54 832 "},"Ĭ":{"ha":292,"x_min":-14,"x_max":305,"o":"m 176 1085 l 115 1085 l 115 0 l 176 0 l 176 1085 m 37 1326 l -14 1326 q 33 1230 -11 1274 q 146 1183 79 1183 q 259 1230 213 1183 q 305 1326 300 1270 l 256 1326 q 224 1265 251 1291 q 146 1232 192 1232 q 68 1265 100 1232 q 37 1326 42 1291 "},"ĭ":{"ha":292,"x_min":-14,"x_max":305,"o":"m 176 666 l 115 666 l 115 0 l 176 0 l 176 666 m 37 907 l -14 907 q 33 810 -11 855 q 146 764 79 764 q 259 810 213 764 q 305 907 300 851 l 256 907 q 224 846 251 871 q 146 813 192 813 q 68 846 100 813 q 37 907 42 871 "},"Į":{"ha":292,"x_min":45,"x_max":224,"o":"m 115 7 q 47 -89 54 -35 q 45 -109 45 -99 q 69 -174 45 -147 q 149 -207 99 -207 q 224 -191 186 -207 l 209 -157 q 170 -167 190 -167 q 115 -142 136 -167 q 100 -92 100 -125 q 102 -69 100 -81 q 151 0 108 -28 l 176 0 l 176 1085 l 115 1085 l 115 7 "},"į":{"ha":292,"x_min":49,"x_max":227,"o":"m 146 902 q 103 884 121 902 q 85 842 85 867 q 103 798 85 816 q 146 781 121 781 q 189 798 171 781 q 207 842 207 816 q 189 884 207 867 q 146 902 171 902 m 115 5 q 50 -89 58 -37 q 49 -109 49 -99 q 73 -174 49 -147 q 152 -207 102 -207 q 227 -191 189 -207 l 212 -157 q 173 -167 193 -167 q 119 -142 139 -167 q 104 -92 104 -125 q 105 -69 104 -81 q 155 0 111 -28 l 176 0 l 176 666 l 115 666 l 115 5 "},"ı":{"ha":292,"x_min":115,"x_max":176,"o":"m 176 666 l 115 666 l 115 0 l 176 0 l 176 666 "},"Ĳ":{"ha":873,"x_min":115,"x_max":768,"o":"m 176 1085 l 115 1085 l 115 0 l 176 0 l 176 1085 m 768 206 l 768 1085 l 707 1085 l 707 213 q 671 92 707 127 q 574 52 630 52 q 557 50 565 50 q 474 81 511 50 q 416 191 430 118 l 376 176 q 434 48 376 106 q 574 -9 492 -9 q 713 49 656 -9 q 768 206 768 103 "},"ĳ":{"ha":600,"x_min":85,"x_max":498,"o":"m 176 666 l 115 666 l 115 0 l 176 0 l 176 666 m 146 902 q 103 884 121 902 q 85 842 85 867 q 103 798 85 816 q 146 781 121 781 q 189 798 171 781 q 207 842 207 816 q 189 884 207 867 q 146 902 171 902 m 325 -94 l 325 -155 q 468 0 468 -143 l 468 666 l 407 666 l 407 -1 q 325 -94 407 -84 m 437 902 q 394 884 412 902 q 376 842 376 867 q 394 798 376 816 q 437 781 412 781 q 480 798 463 781 q 498 842 498 816 q 480 884 498 867 q 437 902 463 902 "},"Ĵ":{"ha":581,"x_min":85,"x_max":623,"o":"m 476 206 l 476 1085 l 415 1085 l 415 213 q 379 92 415 127 q 282 52 338 52 q 265 50 273 50 q 182 81 219 50 q 125 191 138 118 l 85 176 q 142 48 85 106 q 282 -9 200 -9 q 422 49 364 -9 q 476 206 476 103 m 462 1317 l 391 1317 l 236 1158 l 307 1158 l 427 1255 l 553 1158 l 623 1158 l 462 1317 "},"ĵ":{"ha":292,"x_min":-47,"x_max":340,"o":"m 178 898 l 108 898 l -47 739 l 24 739 l 143 836 l 269 739 l 340 739 l 178 898 m 33 -94 l 33 -155 q 176 0 176 -143 l 176 666 l 115 666 l 115 -1 q 33 -94 115 -84 "},"Ķ":{"ha":767,"x_min":86,"x_max":777,"o":"m 585 1085 l 511 1085 l 148 566 l 148 1085 l 86 1085 l 86 0 l 148 0 l 148 460 l 264 627 l 703 0 l 777 0 l 303 677 l 585 1085 m 410 -39 l 410 -81 q 458 -95 444 -82 q 469 -120 469 -106 q 468 -128 469 -124 q 445 -161 464 -147 q 399 -173 422 -173 q 357 -164 378 -173 l 344 -203 q 393 -210 370 -210 q 473 -189 435 -210 q 520 -120 516 -157 l 520 -113 q 490 -56 520 -80 q 410 -39 467 -39 "},"ķ":{"ha":558,"x_min":102,"x_max":524,"o":"m 427 666 l 348 666 l 163 437 l 163 949 l 102 949 l 102 0 l 163 0 l 163 340 l 222 414 l 448 0 l 524 0 l 262 463 l 427 666 m 291 -39 l 291 -81 q 339 -95 326 -82 q 350 -120 350 -106 q 349 -128 350 -124 q 326 -161 345 -147 q 280 -173 304 -173 q 238 -164 259 -173 l 224 -203 q 275 -210 251 -210 q 355 -189 317 -210 q 401 -120 397 -157 l 401 -113 q 370 -56 401 -80 q 291 -39 349 -39 "},"ĸ":{"ha":558,"x_min":102,"x_max":524,"o":"m 427 666 l 348 666 l 163 437 l 163 666 l 102 666 l 102 0 l 163 0 l 163 340 l 222 414 l 448 0 l 524 0 l 262 463 l 427 666 "},"Ĺ":{"ha":601,"x_min":86,"x_max":561,"o":"m 86 0 l 561 0 l 561 61 l 148 61 l 148 1085 l 86 1085 l 86 0 m 473 1291 l 360 1291 l 250 1164 l 307 1164 l 473 1291 "},"ĺ":{"ha":231,"x_min":4,"x_max":227,"o":"m 146 1085 l 85 1085 l 85 0 l 146 0 l 146 1085 m 227 1319 l 115 1319 l 4 1192 l 61 1192 l 227 1319 "},"Ļ":{"ha":601,"x_min":86,"x_max":561,"o":"m 334 0 l 304 -73 q 357 -87 333 -73 q 384 -125 380 -103 l 384 -130 q 367 -161 384 -148 q 317 -176 347 -176 q 286 -172 300 -176 l 278 -209 q 321 -214 298 -214 q 410 -187 375 -214 q 439 -134 439 -165 q 438 -125 439 -130 q 392 -61 433 -87 q 373 -51 382 -56 l 375 -24 l 374 -24 l 375 -20 l 377 0 l 561 0 l 561 61 l 148 61 l 148 1085 l 86 1085 l 86 0 l 334 0 "},"ļ":{"ha":337,"x_min":47,"x_max":208,"o":"m 103 0 l 74 -73 q 126 -87 102 -73 q 153 -125 150 -103 l 153 -130 q 136 -161 153 -148 q 86 -176 117 -176 q 55 -172 69 -176 l 47 -209 q 91 -214 68 -214 q 179 -187 144 -214 q 208 -134 208 -165 q 208 -125 208 -130 q 161 -61 202 -87 q 142 -51 152 -56 l 144 -24 l 144 -24 l 144 -20 l 146 0 l 148 0 l 148 1085 l 86 1085 l 86 0 l 103 0 "},"Ľ":{"ha":601,"x_min":86,"x_max":561,"o":"m 86 0 l 561 0 l 561 61 l 148 61 l 148 1085 l 86 1085 l 86 0 m 452 973 l 414 871 l 458 871 l 524 1005 q 529 1032 529 1017 q 511 1075 529 1057 q 468 1092 493 1092 q 425 1075 443 1092 q 407 1032 407 1057 q 425 988 407 1006 q 452 973 437 976 "},"ľ":{"ha":337,"x_min":86,"x_max":337,"o":"m 148 1085 l 86 1085 l 86 0 l 148 0 l 148 1085 m 260 973 l 222 871 l 266 871 l 332 1005 q 337 1032 337 1017 q 319 1075 337 1057 q 277 1092 301 1092 q 233 1075 251 1092 q 215 1032 215 1057 q 233 988 215 1006 q 260 973 245 976 "},"Ŀ":{"ha":601,"x_min":86,"x_max":561,"o":"m 86 0 l 561 0 l 561 61 l 148 61 l 148 1085 l 86 1085 l 86 0 m 479 594 q 442 579 458 594 q 427 543 427 564 q 442 506 427 521 q 479 491 458 491 q 515 506 500 491 q 530 543 530 521 q 515 579 530 564 q 479 594 500 594 "},"ŀ":{"ha":338,"x_min":76,"x_max":317,"o":"m 138 1085 l 76 1085 l 76 0 l 138 0 l 138 1085 m 267 594 q 230 579 245 594 q 214 543 214 564 q 230 506 214 521 q 267 491 245 491 q 302 506 287 491 q 317 543 317 521 q 302 579 317 564 q 267 594 287 594 "},"Ł":{"ha":669,"x_min":0,"x_max":630,"o":"m 216 534 l 216 1085 l 155 1085 l 155 484 l 0 357 l 0 286 l 155 411 l 155 0 l 630 0 l 630 61 l 216 61 l 216 462 l 525 713 l 525 785 l 216 534 "},"ł":{"ha":288,"x_min":0,"x_max":288,"o":"m 113 546 l 0 454 l 0 381 l 113 474 l 113 0 l 175 0 l 175 524 l 288 617 l 288 689 l 175 596 l 175 1085 l 113 1085 l 113 546 "},"Ń":{"ha":889,"x_min":102,"x_max":787,"o":"m 102 1085 l 102 0 l 163 0 l 163 975 l 726 0 l 787 0 l 787 1085 l 726 1085 l 726 120 l 169 1085 l 102 1085 m 593 1360 l 481 1360 l 370 1233 l 427 1233 l 593 1360 "},"ń":{"ha":726,"x_min":102,"x_max":625,"o":"m 163 517 q 212 586 178 553 q 357 645 273 645 q 502 585 441 645 q 564 440 564 525 l 564 0 l 625 0 l 625 446 q 549 632 623 558 q 357 706 475 706 q 163 623 246 706 l 163 666 l 102 666 l 102 0 l 163 0 l 163 517 m 512 941 l 399 941 l 289 814 l 346 814 l 512 941 "},"Ņ":{"ha":889,"x_min":102,"x_max":787,"o":"m 102 1085 l 102 0 l 163 0 l 163 975 l 726 0 l 787 0 l 787 1085 l 726 1085 l 726 120 l 169 1085 l 102 1085 m 422 -39 l 422 -81 q 471 -95 457 -82 q 481 -120 481 -106 q 481 -128 481 -124 q 458 -161 477 -147 q 412 -173 435 -173 q 370 -164 391 -173 l 356 -203 q 406 -210 382 -210 q 486 -189 448 -210 q 533 -120 529 -157 l 533 -113 q 502 -56 533 -80 q 422 -39 480 -39 "},"ņ":{"ha":726,"x_min":102,"x_max":625,"o":"m 163 517 q 212 586 178 553 q 357 645 273 645 q 502 585 441 645 q 564 440 564 525 l 564 0 l 625 0 l 625 446 q 549 632 623 558 q 357 706 475 706 q 163 623 246 706 l 163 666 l 102 666 l 102 0 l 163 0 l 163 517 m 341 -39 l 341 -81 q 389 -95 376 -82 q 400 -120 400 -106 q 399 -128 400 -124 q 376 -161 395 -147 q 330 -173 354 -173 q 288 -164 309 -173 l 275 -203 q 325 -210 301 -210 q 405 -189 367 -210 q 452 -120 448 -157 l 452 -113 q 420 -56 452 -80 q 341 -39 399 -39 "},"Ň":{"ha":889,"x_min":102,"x_max":787,"o":"m 102 1085 l 102 0 l 163 0 l 163 975 l 726 0 l 787 0 l 787 1085 l 726 1085 l 726 120 l 169 1085 l 102 1085 m 406 1158 l 477 1158 l 638 1317 l 568 1317 l 441 1220 l 322 1317 l 251 1317 l 406 1158 "},"ň":{"ha":726,"x_min":102,"x_max":625,"o":"m 163 517 q 212 586 178 553 q 357 645 273 645 q 502 585 441 645 q 564 440 564 525 l 564 0 l 625 0 l 625 446 q 549 632 623 558 q 357 706 475 706 q 163 623 246 706 l 163 666 l 102 666 l 102 0 l 163 0 l 163 517 m 325 739 l 395 739 l 557 898 l 486 898 l 360 801 l 241 898 l 170 898 l 325 739 "},"ŉ":{"ha":726,"x_min":14,"x_max":625,"o":"m 163 517 q 212 586 178 553 q 357 645 273 645 q 502 585 441 645 q 564 440 564 525 l 564 0 l 625 0 l 625 446 q 549 632 623 558 q 357 706 475 706 q 163 623 246 706 l 163 666 l 102 666 l 102 0 l 163 0 l 163 517 m 60 951 l 21 848 l 65 848 l 132 983 q 136 1010 136 995 q 118 1052 136 1035 q 76 1069 100 1069 q 32 1052 50 1069 q 14 1010 14 1035 q 33 966 14 983 q 60 951 44 954 "},"Ŋ":{"ha":889,"x_min":102,"x_max":787,"o":"m 726 1 q 728 -35 728 -18 q 656 -204 728 -140 l 684 -235 q 787 0 780 -188 l 787 0 l 787 1085 l 726 1085 l 726 640 l 726 640 l 726 121 l 169 1085 l 102 1085 l 102 0 l 163 0 l 163 975 l 726 1 "},"ŋ":{"ha":726,"x_min":102,"x_max":625,"o":"m 564 369 l 563 369 l 563 -27 q 494 -208 550 -169 l 522 -235 q 624 0 610 -169 l 625 0 l 625 446 q 549 632 623 558 q 357 706 475 706 q 163 623 246 706 l 163 666 l 102 666 l 102 0 l 163 0 l 163 517 q 212 586 178 553 q 357 645 273 645 q 502 585 441 645 q 564 440 564 525 l 564 369 "},"Ō":{"ha":1283,"x_min":85,"x_max":1198,"o":"m 642 1101 q 248 938 411 1101 q 85 544 85 774 q 248 150 85 313 q 642 -13 411 -13 q 1035 150 872 -13 q 1198 544 1198 313 q 1035 938 1198 774 q 642 1101 872 1101 m 642 1038 q 991 893 846 1038 q 1136 544 1136 749 q 991 194 1136 339 q 642 49 846 49 q 292 194 437 49 q 147 544 147 339 q 292 893 147 749 q 642 1038 437 1038 m 441 1251 l 441 1204 l 842 1204 l 842 1251 l 441 1251 "},"ō":{"ha":867,"x_min":61,"x_max":806,"o":"m 433 726 q 170 617 279 726 q 61 353 61 508 q 170 90 61 199 q 433 -19 279 -19 q 697 90 588 -19 q 806 353 806 199 q 697 617 806 508 q 433 726 588 726 m 433 661 q 651 571 561 661 q 741 353 741 481 q 651 136 741 226 q 433 46 561 46 q 216 136 306 46 q 125 353 125 226 q 216 571 125 481 q 433 661 306 661 m 233 832 l 233 785 l 633 785 l 633 832 l 233 832 "},"Ŏ":{"ha":1283,"x_min":85,"x_max":1198,"o":"m 642 1101 q 248 938 411 1101 q 85 544 85 774 q 248 150 85 313 q 642 -13 411 -13 q 1035 150 872 -13 q 1198 544 1198 313 q 1035 938 1198 774 q 642 1101 872 1101 m 642 1038 q 991 893 846 1038 q 1136 544 1136 749 q 991 194 1136 339 q 642 49 846 49 q 292 194 437 49 q 147 544 147 339 q 292 893 147 749 q 642 1038 437 1038 m 532 1326 l 482 1326 q 529 1230 485 1274 q 642 1183 575 1183 q 755 1230 709 1183 q 801 1326 795 1270 l 751 1326 q 720 1265 747 1291 q 642 1232 688 1232 q 564 1265 596 1232 q 532 1326 538 1291 "},"ŏ":{"ha":867,"x_min":61,"x_max":806,"o":"m 433 726 q 170 617 279 726 q 61 353 61 508 q 170 90 61 199 q 433 -19 279 -19 q 697 90 588 -19 q 806 353 806 199 q 697 617 806 508 q 433 726 588 726 m 433 661 q 651 571 561 661 q 741 353 741 481 q 651 136 741 226 q 433 46 561 46 q 216 136 306 46 q 125 353 125 226 q 216 571 125 481 q 433 661 306 661 m 324 907 l 274 907 q 321 810 277 855 q 434 764 367 764 q 547 810 500 764 q 593 907 587 851 l 543 907 q 512 846 538 871 q 434 813 479 813 q 355 846 388 813 q 324 907 330 871 "},"Ő":{"ha":1283,"x_min":85,"x_max":1198,"o":"m 642 1101 q 248 938 411 1101 q 85 544 85 774 q 248 150 85 313 q 642 -13 411 -13 q 1035 150 872 -13 q 1198 544 1198 313 q 1035 938 1198 774 q 642 1101 872 1101 m 642 1038 q 991 893 846 1038 q 1136 544 1136 749 q 991 194 1136 339 q 642 49 846 49 q 292 194 437 49 q 147 544 147 339 q 292 893 147 749 q 642 1038 437 1038 m 675 1333 l 563 1333 l 452 1206 l 509 1206 l 675 1333 m 831 1333 l 718 1333 l 608 1206 l 665 1206 l 831 1333 "},"ő":{"ha":867,"x_min":61,"x_max":806,"o":"m 433 726 q 170 617 279 726 q 61 353 61 508 q 170 90 61 199 q 433 -19 279 -19 q 697 90 588 -19 q 806 353 806 199 q 697 617 806 508 q 433 726 588 726 m 433 661 q 651 571 561 661 q 741 353 741 481 q 651 136 741 226 q 433 46 561 46 q 216 136 306 46 q 125 353 125 226 q 216 571 125 481 q 433 661 306 661 m 467 914 l 355 914 l 244 787 l 301 787 l 467 914 m 623 914 l 510 914 l 399 787 l 456 787 l 623 914 "},"Œ":{"ha":1556,"x_min":61,"x_max":1472,"o":"m 902 1024 l 1472 1024 l 1472 1085 l 793 1085 q 618 1101 711 1101 q 224 938 387 1101 q 61 544 61 774 q 224 150 61 313 q 618 -13 387 -13 q 793 0 711 -13 l 1472 0 l 1472 61 l 898 61 q 1012 151 958 97 q 1174 512 1163 302 l 1472 512 l 1472 573 l 1174 573 q 1012 938 1164 785 q 902 1024 960 989 m 1112 573 q 1112 544 1112 559 q 1112 512 1112 528 q 968 194 1101 328 q 854 108 915 141 q 793 79 825 92 q 618 49 712 49 q 268 194 413 49 q 123 544 123 339 q 268 893 123 749 q 618 1038 413 1038 q 793 1008 712 1038 q 854 979 825 996 q 968 894 915 946 q 1112 573 1102 759 "},"œ":{"ha":1442,"x_min":61,"x_max":1381,"o":"m 216 571 q 433 661 306 661 q 651 571 561 661 q 741 353 741 481 q 651 136 741 226 q 433 46 561 46 q 216 136 306 46 q 125 353 125 226 q 171 526 125 481 q 216 571 216 571 m 764 528 q 800 571 779 551 q 1017 661 890 661 q 1235 571 1145 661 q 1308 450 1286 519 l 794 450 q 764 528 783 491 m 763 178 q 806 353 806 257 q 804 389 806 371 l 1381 388 q 1281 617 1377 520 q 1017 726 1172 726 q 754 617 863 726 q 726 585 739 602 q 697 617 712 602 q 433 726 588 726 q 170 617 279 726 q 61 353 61 508 q 170 90 61 199 q 433 -19 279 -19 q 697 90 588 -19 q 726 122 712 106 q 754 90 739 106 q 1017 -19 863 -19 q 1281 90 1172 -19 q 1329 146 1318 127 l 1264 169 q 1235 136 1251 152 q 1017 46 1145 46 q 800 136 890 46 q 763 178 779 157 "},"Ŕ":{"ha":739,"x_min":102,"x_max":701,"o":"m 163 1023 l 347 1023 q 554 938 468 1023 q 640 731 640 852 q 554 524 640 610 q 347 438 468 438 l 163 438 l 163 1023 m 366 377 l 608 0 l 683 0 l 433 386 q 597 480 526 408 q 701 731 701 584 q 597 981 701 878 q 387 1085 511 1068 l 102 1085 l 102 0 l 163 0 l 163 376 l 347 376 q 366 377 357 376 m 550 1360 l 437 1360 l 327 1233 l 384 1233 l 550 1360 "},"ŕ":{"ha":406,"x_min":102,"x_max":386,"o":"m 102 666 l 102 0 l 163 0 l 163 344 q 253 551 166 465 q 372 615 315 612 l 372 682 q 207 597 288 677 q 163 545 182 572 l 163 666 l 102 666 m 386 941 l 273 941 l 163 814 l 220 814 l 386 941 "},"Ŗ":{"ha":736,"x_min":86,"x_max":686,"o":"m 148 1023 l 332 1023 q 538 938 452 1023 q 624 731 624 852 q 538 524 624 609 q 332 438 452 438 l 148 438 l 148 1023 m 350 376 l 592 0 l 667 0 l 417 386 q 582 480 510 408 q 686 731 686 584 q 582 981 686 877 q 371 1085 495 1068 l 86 1085 l 86 0 l 148 0 l 148 376 l 332 376 q 350 376 341 376 m 313 -39 l 313 -81 q 361 -95 348 -82 q 372 -120 372 -106 q 372 -128 372 -124 q 349 -161 368 -147 q 302 -173 326 -173 q 260 -164 282 -173 l 248 -203 q 297 -210 273 -210 q 377 -189 339 -210 q 424 -120 420 -157 l 424 -113 q 393 -56 424 -80 q 313 -39 371 -39 "},"ŗ":{"ha":311,"x_min":17,"x_max":311,"o":"m 311 612 l 278 671 q 164 597 220 653 q 121 545 139 572 l 121 666 l 59 666 l 59 0 l 121 0 l 121 344 q 210 550 123 464 q 311 612 262 602 m 83 -39 l 83 -81 q 132 -95 117 -82 q 142 -120 142 -106 q 141 -128 142 -124 q 118 -161 138 -147 q 72 -173 96 -173 q 30 -164 52 -173 l 17 -203 q 67 -210 43 -210 q 146 -189 109 -210 q 193 -120 190 -157 l 193 -113 q 163 -56 193 -80 q 83 -39 140 -39 "},"Ř":{"ha":739,"x_min":102,"x_max":701,"o":"m 163 1023 l 347 1023 q 554 938 468 1023 q 640 731 640 852 q 554 524 640 610 q 347 438 468 438 l 163 438 l 163 1023 m 366 377 l 608 0 l 683 0 l 433 386 q 597 480 526 408 q 701 731 701 584 q 597 981 701 878 q 387 1085 511 1068 l 102 1085 l 102 0 l 163 0 l 163 376 l 347 376 q 366 377 357 376 m 363 1158 l 434 1158 l 595 1317 l 525 1317 l 399 1220 l 279 1317 l 208 1317 l 363 1158 "},"ř":{"ha":406,"x_min":43,"x_max":431,"o":"m 102 666 l 102 0 l 163 0 l 163 344 q 253 551 166 465 q 372 615 315 612 l 372 682 q 207 597 288 677 q 163 545 182 572 l 163 666 l 102 666 m 199 739 l 269 739 l 431 898 l 360 898 l 234 801 l 115 898 l 43 898 l 199 739 "},"Ś":{"ha":707,"x_min":34,"x_max":673,"o":"m 372 601 q 536 494 469 561 q 613 309 613 417 q 536 124 613 201 q 351 47 460 47 q 167 124 243 47 q 92 278 101 190 l 34 257 q 124 82 49 157 q 351 -13 218 -13 q 578 81 484 -13 q 673 309 673 176 q 578 536 673 442 q 359 667 490 625 q 232 750 278 705 q 182 869 182 800 q 232 989 182 940 q 351 1038 281 1038 q 471 989 421 1038 q 511 928 498 962 l 566 950 q 514 1031 551 995 q 351 1098 446 1098 q 189 1030 256 1098 q 121 869 121 963 q 189 707 121 774 q 372 601 256 640 m 502 1360 l 389 1360 l 279 1233 l 336 1233 l 502 1360 "},"ś":{"ha":544,"x_min":78,"x_max":473,"o":"m 285 342 q 372 279 351 300 q 412 182 412 239 q 372 85 412 125 q 275 45 332 45 q 179 85 219 45 q 138 184 138 125 l 78 169 q 136 42 78 100 q 275 -16 193 -16 q 415 42 357 -16 q 473 182 473 100 q 415 321 473 263 q 292 406 378 358 q 220 457 237 440 q 191 527 191 486 q 220 597 191 568 q 290 626 249 626 q 356 600 331 626 q 389 523 382 574 l 441 544 l 441 547 q 399 644 441 602 q 290 688 356 688 q 177 641 224 688 q 130 527 130 593 q 177 414 130 461 q 285 342 207 385 m 424 941 l 311 941 l 201 814 l 258 814 l 424 941 "},"Ŝ":{"ha":707,"x_min":34,"x_max":673,"o":"m 372 601 q 536 494 469 561 q 613 309 613 417 q 536 124 613 201 q 351 47 460 47 q 167 124 243 47 q 92 278 101 190 l 34 257 q 124 82 49 157 q 351 -13 218 -13 q 578 81 484 -13 q 673 309 673 176 q 578 536 673 442 q 359 667 490 625 q 232 750 278 705 q 182 869 182 800 q 232 989 182 940 q 351 1038 281 1038 q 471 989 421 1038 q 511 928 498 962 l 566 950 q 514 1031 551 995 q 351 1098 446 1098 q 189 1030 256 1098 q 121 869 121 963 q 189 707 121 774 q 372 601 256 640 m 386 1317 l 315 1317 l 160 1158 l 231 1158 l 351 1255 l 477 1158 l 547 1158 l 386 1317 "},"ŝ":{"ha":544,"x_min":78,"x_max":473,"o":"m 285 342 q 372 279 351 300 q 412 182 412 239 q 372 85 412 125 q 275 45 332 45 q 179 85 219 45 q 138 184 138 125 l 78 169 q 136 42 78 100 q 275 -16 193 -16 q 415 42 357 -16 q 473 182 473 100 q 415 321 473 263 q 292 406 378 358 q 220 457 237 440 q 191 527 191 486 q 220 597 191 568 q 290 626 249 626 q 356 600 331 626 q 389 523 382 574 l 441 544 l 441 547 q 399 644 441 602 q 290 688 356 688 q 177 641 224 688 q 130 527 130 593 q 177 414 130 461 q 285 342 207 385 m 308 898 l 237 898 l 82 739 l 153 739 l 273 836 l 399 739 l 469 739 l 308 898 "},"Ş":{"ha":707,"x_min":34,"x_max":673,"o":"m 324 -12 l 300 -73 q 352 -87 328 -73 q 379 -125 376 -103 l 379 -130 q 362 -161 379 -148 q 312 -176 342 -176 q 281 -172 295 -176 l 273 -209 q 317 -214 294 -214 q 405 -187 370 -214 q 434 -134 434 -165 q 433 -125 434 -130 q 387 -61 428 -87 q 368 -51 378 -56 l 370 -24 l 370 -24 l 370 -20 l 371 -12 q 578 81 491 -6 q 673 309 673 176 q 578 536 673 442 q 359 667 490 625 q 232 750 278 705 q 182 869 182 800 q 232 989 182 940 q 351 1038 281 1038 q 471 989 421 1038 q 511 928 498 962 l 566 950 q 514 1031 551 995 q 351 1098 446 1098 q 189 1030 256 1098 q 121 869 121 963 q 189 707 121 774 q 372 601 256 640 q 536 494 469 561 q 613 309 613 417 q 536 124 613 201 q 351 47 460 47 q 167 124 243 47 q 92 278 101 190 l 34 257 q 124 82 49 157 q 324 -12 209 -3 "},"ş":{"ha":544,"x_min":78,"x_max":473,"o":"m 245 -14 l 222 -73 q 274 -87 250 -73 q 301 -125 298 -103 l 301 -130 q 284 -161 301 -148 q 234 -176 264 -176 q 203 -172 217 -176 l 195 -209 q 239 -214 216 -214 q 327 -187 292 -214 q 356 -134 356 -165 q 355 -125 356 -130 q 309 -61 350 -87 q 290 -51 300 -56 l 292 -24 l 292 -24 l 292 -20 l 293 -16 q 415 42 363 -10 q 473 182 473 100 q 415 321 473 263 q 292 406 378 358 q 220 457 237 440 q 191 527 191 486 q 220 597 191 568 q 290 626 249 626 q 356 600 331 626 q 389 523 382 574 l 441 544 l 441 547 q 399 644 441 602 q 290 688 356 688 q 177 641 224 688 q 130 527 130 593 q 177 414 130 461 q 285 342 207 385 q 372 279 351 300 q 412 182 412 239 q 372 85 412 125 q 275 45 332 45 q 179 85 219 45 q 138 184 138 125 l 78 169 q 136 42 78 100 q 245 -14 182 -5 "},"Š":{"ha":707,"x_min":34,"x_max":673,"o":"m 372 601 q 536 494 469 561 q 613 309 613 417 q 536 124 613 201 q 351 47 460 47 q 167 124 243 47 q 92 278 101 190 l 34 257 q 124 82 49 157 q 351 -13 218 -13 q 578 81 484 -13 q 673 309 673 176 q 578 536 673 442 q 359 667 490 625 q 232 750 278 705 q 182 869 182 800 q 232 989 182 940 q 351 1038 281 1038 q 471 989 421 1038 q 511 928 498 962 l 566 950 q 514 1031 551 995 q 351 1098 446 1098 q 189 1030 256 1098 q 121 869 121 963 q 189 707 121 774 q 372 601 256 640 m 315 1158 l 386 1158 l 547 1317 l 477 1317 l 351 1220 l 231 1317 l 160 1317 l 315 1158 "},"š":{"ha":544,"x_min":78,"x_max":473,"o":"m 285 342 q 372 279 351 300 q 412 182 412 239 q 372 85 412 125 q 275 45 332 45 q 179 85 219 45 q 138 184 138 125 l 78 169 q 136 42 78 100 q 275 -16 193 -16 q 415 42 357 -16 q 473 182 473 100 q 415 321 473 263 q 292 406 378 358 q 220 457 237 440 q 191 527 191 486 q 220 597 191 568 q 290 626 249 626 q 356 600 331 626 q 389 523 382 574 l 441 544 l 441 547 q 399 644 441 602 q 290 688 356 688 q 177 641 224 688 q 130 527 130 593 q 177 414 130 461 q 285 342 207 385 m 237 739 l 308 739 l 469 898 l 399 898 l 273 801 l 153 898 l 82 898 l 237 739 "},"Ţ":{"ha":678,"x_min":34,"x_max":644,"o":"m 315 0 l 286 -73 q 338 -87 314 -73 q 365 -125 361 -103 l 365 -130 q 348 -161 365 -148 q 298 -176 328 -176 q 267 -172 281 -176 l 259 -209 q 302 -214 279 -214 q 391 -187 356 -214 q 420 -134 420 -165 q 419 -125 420 -130 q 373 -61 414 -87 q 354 -51 363 -56 l 356 -24 l 355 -24 l 356 -20 l 358 0 l 370 0 l 370 1024 l 644 1024 l 644 1085 l 34 1085 l 34 1024 l 309 1024 l 309 0 l 315 0 "},"ţ":{"ha":454,"x_min":61,"x_max":393,"o":"m 203 0 l 174 -73 q 226 -87 202 -73 q 253 -125 250 -103 l 253 -130 q 236 -161 253 -148 q 186 -176 216 -176 q 155 -172 169 -176 l 147 -209 q 191 -214 168 -214 q 279 -187 244 -214 q 308 -134 308 -165 q 307 -125 308 -130 q 261 -61 302 -87 q 242 -51 252 -56 l 244 -24 l 243 -24 l 244 -20 l 246 0 l 258 0 l 258 605 l 393 605 l 393 666 l 258 666 l 258 949 l 197 949 l 197 666 l 61 666 l 61 605 l 197 605 l 197 0 l 203 0 "},"Ť":{"ha":678,"x_min":34,"x_max":644,"o":"m 370 1024 l 644 1024 l 644 1085 l 34 1085 l 34 1024 l 309 1024 l 309 0 l 370 0 l 370 1024 m 301 1158 l 372 1158 l 533 1317 l 463 1317 l 336 1220 l 217 1317 l 146 1317 l 301 1158 "},"ť":{"ha":433,"x_min":24,"x_max":433,"o":"m 160 666 l 24 666 l 24 604 l 160 604 l 160 0 l 221 0 l 221 604 l 357 604 l 357 666 l 221 666 l 221 949 l 160 949 l 160 666 m 356 951 l 317 848 l 361 848 l 428 983 q 433 1010 433 995 q 415 1052 433 1035 q 372 1069 397 1069 q 329 1052 347 1069 q 311 1010 311 1035 q 329 966 311 983 q 356 951 340 954 "},"Ŧ":{"ha":678,"x_min":34,"x_max":644,"o":"m 309 573 l 136 573 l 136 512 l 309 512 l 309 0 l 370 0 l 370 512 l 543 512 l 543 573 l 370 573 l 370 1024 l 644 1024 l 644 1085 l 34 1085 l 34 1024 l 309 1024 l 309 573 "},"ŧ":{"ha":454,"x_min":61,"x_max":393,"o":"m 61 410 l 61 349 l 197 349 l 197 0 l 258 0 l 258 349 l 393 349 l 393 410 l 258 410 l 258 605 l 393 605 l 393 666 l 258 666 l 258 949 l 197 949 l 197 666 l 61 666 l 61 605 l 197 605 l 197 410 l 61 410 "},"Ũ":{"ha":912,"x_min":102,"x_max":810,"o":"m 749 1085 l 749 345 q 663 138 749 224 q 456 52 578 52 q 249 138 335 52 q 163 345 163 224 l 163 1085 l 102 1085 l 102 345 q 205 94 102 198 q 456 -9 309 -9 q 707 94 603 -9 q 810 305 793 181 l 810 1085 l 749 1085 m 452 1270 q 374 1301 413 1301 q 346 1297 360 1301 q 278 1194 293 1281 l 326 1194 q 373 1251 339 1249 l 376 1251 q 460 1211 410 1251 q 538 1179 500 1179 q 567 1183 553 1179 q 634 1286 620 1199 l 587 1286 q 540 1230 574 1232 l 536 1230 q 452 1270 503 1230 "},"ũ":{"ha":745,"x_min":102,"x_max":644,"o":"m 376 -9 q 568 64 494 -9 q 644 251 642 138 l 644 666 l 583 666 l 583 256 q 521 112 583 172 q 376 52 460 52 q 224 112 286 52 q 163 256 163 172 l 163 666 l 102 666 l 102 251 q 178 64 104 138 q 376 -9 252 -9 m 369 851 q 291 882 330 882 q 262 878 277 882 q 195 774 210 862 l 242 774 q 290 831 256 829 l 293 831 q 377 791 326 831 q 455 760 416 760 q 484 764 469 760 q 551 867 536 780 l 504 867 q 456 810 490 812 l 453 810 q 369 851 420 810 "},"Ū":{"ha":912,"x_min":102,"x_max":810,"o":"m 749 1085 l 749 345 q 663 138 749 224 q 456 52 578 52 q 249 138 335 52 q 163 345 163 224 l 163 1085 l 102 1085 l 102 345 q 205 94 102 198 q 456 -9 309 -9 q 707 94 603 -9 q 810 305 793 181 l 810 1085 l 749 1085 m 256 1251 l 256 1204 l 656 1204 l 656 1251 l 256 1251 "},"ū":{"ha":745,"x_min":102,"x_max":644,"o":"m 376 -9 q 568 64 494 -9 q 644 251 642 138 l 644 666 l 583 666 l 583 256 q 521 112 583 172 q 376 52 460 52 q 224 112 286 52 q 163 256 163 172 l 163 666 l 102 666 l 102 251 q 178 64 104 138 q 376 -9 252 -9 m 173 832 l 173 785 l 573 785 l 573 832 l 173 832 "},"Ŭ":{"ha":912,"x_min":102,"x_max":810,"o":"m 749 1085 l 749 345 q 663 138 749 224 q 456 52 578 52 q 249 138 335 52 q 163 345 163 224 l 163 1085 l 102 1085 l 102 345 q 205 94 102 198 q 456 -9 309 -9 q 707 94 603 -9 q 810 305 793 181 l 810 1085 l 749 1085 m 347 1326 l 297 1326 q 344 1230 300 1274 q 457 1183 390 1183 q 570 1230 524 1183 q 616 1326 610 1270 l 566 1326 q 535 1265 562 1291 q 457 1232 503 1232 q 378 1265 411 1232 q 347 1326 353 1291 "},"ŭ":{"ha":745,"x_min":102,"x_max":644,"o":"m 376 -9 q 568 64 494 -9 q 644 251 642 138 l 644 666 l 583 666 l 583 256 q 521 112 583 172 q 376 52 460 52 q 224 112 286 52 q 163 256 163 172 l 163 666 l 102 666 l 102 251 q 178 64 104 138 q 376 -9 252 -9 m 264 907 l 214 907 q 260 810 216 855 q 374 764 307 764 q 486 810 440 764 q 532 907 527 851 l 483 907 q 452 846 478 871 q 374 813 419 813 q 295 846 328 813 q 264 907 269 871 "},"Ů":{"ha":912,"x_min":102,"x_max":810,"o":"m 749 1085 l 749 345 q 663 138 749 224 q 456 52 578 52 q 249 138 335 52 q 163 345 163 224 l 163 1085 l 102 1085 l 102 345 q 205 94 102 198 q 456 -9 309 -9 q 707 94 603 -9 q 810 305 793 181 l 810 1085 l 749 1085 m 456 1343 q 397 1318 422 1343 q 373 1259 373 1294 q 397 1201 373 1225 q 456 1177 422 1177 q 515 1201 491 1177 q 540 1259 540 1225 q 515 1318 540 1294 q 456 1343 491 1343 m 456 1299 q 484 1287 472 1299 q 495 1259 495 1276 q 484 1232 495 1244 q 456 1221 472 1221 q 429 1232 440 1221 q 417 1259 417 1244 q 429 1287 417 1276 q 456 1299 440 1299 "},"ů":{"ha":745,"x_min":102,"x_max":644,"o":"m 376 -9 q 568 64 494 -9 q 644 251 642 138 l 644 666 l 583 666 l 583 256 q 521 112 583 172 q 376 52 460 52 q 224 112 286 52 q 163 256 163 172 l 163 666 l 102 666 l 102 251 q 178 64 104 138 q 376 -9 252 -9 m 373 924 q 314 899 338 924 q 290 840 290 875 q 314 782 290 806 q 373 758 338 758 q 432 782 408 758 q 456 840 456 806 q 432 899 456 875 q 373 924 408 924 m 373 880 q 400 868 389 880 q 412 840 412 857 q 400 813 412 825 q 373 802 389 802 q 345 813 357 802 q 334 840 334 825 q 345 868 334 857 q 373 880 357 880 "},"Ű":{"ha":912,"x_min":102,"x_max":810,"o":"m 749 1085 l 749 345 q 663 138 749 224 q 456 52 578 52 q 249 138 335 52 q 163 345 163 224 l 163 1085 l 102 1085 l 102 345 q 205 94 102 198 q 456 -9 309 -9 q 707 94 603 -9 q 810 305 793 181 l 810 1085 l 749 1085 m 490 1333 l 378 1333 l 267 1206 l 324 1206 l 490 1333 m 646 1333 l 533 1333 l 422 1206 l 479 1206 l 646 1333 "},"ű":{"ha":745,"x_min":102,"x_max":644,"o":"m 376 -9 q 568 64 494 -9 q 644 251 642 138 l 644 666 l 583 666 l 583 256 q 521 112 583 172 q 376 52 460 52 q 224 112 286 52 q 163 256 163 172 l 163 666 l 102 666 l 102 251 q 178 64 104 138 q 376 -9 252 -9 m 407 914 l 294 914 l 184 787 l 241 787 l 407 914 m 562 914 l 450 914 l 339 787 l 396 787 l 562 914 "},"Ų":{"ha":912,"x_min":102,"x_max":810,"o":"m 579 12 q 526 -90 532 -45 q 525 -109 525 -100 q 549 -174 525 -148 q 628 -208 578 -208 q 703 -192 665 -208 l 688 -158 q 649 -168 669 -168 q 595 -143 615 -168 q 580 -93 580 -125 q 581 -70 580 -82 q 648 47 588 -26 q 707 94 679 66 q 810 305 793 181 l 810 1085 l 749 1085 l 749 345 q 663 138 749 224 q 456 52 578 52 q 249 138 335 52 q 163 345 163 224 l 163 1085 l 102 1085 l 102 345 q 205 94 102 198 q 456 -9 309 -9 q 579 12 522 -9 "},"ų":{"ha":745,"x_min":102,"x_max":644,"o":"m 497 15 q 453 -89 459 -46 q 452 -109 452 -99 q 475 -174 452 -147 q 555 -207 505 -207 q 630 -191 592 -207 l 615 -157 q 576 -167 596 -167 q 522 -142 542 -167 q 507 -92 507 -125 q 508 -69 507 -81 q 558 56 515 -26 q 568 64 563 60 q 644 251 642 138 l 644 666 l 583 666 l 583 256 q 521 112 583 172 q 376 52 460 52 q 224 112 286 52 q 163 256 163 172 l 163 666 l 102 666 l 102 251 q 178 64 104 138 q 376 -9 252 -9 q 497 15 444 -9 "},"Ŵ":{"ha":1134,"x_min":85,"x_max":1049,"o":"m 536 163 q 498 111 521 134 q 353 52 437 52 q 207 112 269 52 q 146 256 146 172 l 146 1085 l 85 1085 l 85 251 q 163 69 87 145 q 353 -9 241 -9 q 542 68 463 -9 q 567 96 556 82 q 592 68 578 82 q 781 -9 671 -9 q 971 69 892 -9 q 1049 251 1047 145 l 1049 1085 l 988 1085 l 988 256 q 927 112 988 172 q 781 52 865 52 q 636 111 697 52 q 597 163 613 134 l 597 1085 l 536 1085 l 536 163 m 600 1317 l 529 1317 l 374 1158 l 445 1158 l 564 1255 l 690 1158 l 761 1158 l 600 1317 "},"ŵ":{"ha":932,"x_min":102,"x_max":831,"o":"m 435 176 q 396 92 431 126 q 299 52 355 52 q 203 92 243 52 q 162 182 165 129 l 163 182 l 163 666 l 102 666 l 102 182 q 159 49 104 104 q 299 -9 217 -9 q 439 49 381 -9 q 467 81 455 64 q 494 49 478 64 q 633 -9 551 -9 q 773 49 715 -9 q 831 182 828 104 l 831 666 l 770 666 l 770 182 l 770 182 q 730 92 768 129 q 633 52 690 52 q 537 92 577 52 q 496 191 496 132 l 496 666 l 435 666 l 435 176 m 498 898 l 428 898 l 273 739 l 344 739 l 463 836 l 589 739 l 660 739 l 498 898 "},"Ŷ":{"ha":876,"x_min":34,"x_max":842,"o":"m 407 439 l 407 0 l 468 0 l 468 439 l 842 1085 l 772 1085 l 437 507 l 104 1085 l 34 1085 l 407 439 m 470 1317 l 399 1317 l 244 1158 l 315 1158 l 435 1255 l 561 1158 l 631 1158 l 470 1317 "},"ŷ":{"ha":682,"x_min":51,"x_max":631,"o":"m 341 60 l 341 59 l 631 666 l 562 666 l 341 189 l 120 666 l 51 666 l 311 123 l 131 -254 l 191 -254 l 341 60 m 373 898 l 302 898 l 147 739 l 218 739 l 338 836 l 464 739 l 534 739 l 373 898 "},"Ÿ":{"ha":876,"x_min":34,"x_max":842,"o":"m 407 439 l 407 0 l 468 0 l 468 439 l 842 1085 l 772 1085 l 437 507 l 104 1085 l 34 1085 l 407 439 m 336 1321 q 293 1303 311 1321 q 275 1261 275 1286 q 293 1217 275 1235 q 336 1200 311 1200 q 379 1217 361 1200 q 397 1261 397 1235 q 379 1303 397 1286 q 336 1321 361 1321 m 540 1321 q 497 1303 515 1321 q 479 1261 479 1286 q 497 1217 479 1235 q 540 1200 515 1200 q 583 1217 565 1200 q 601 1261 601 1235 q 583 1303 601 1286 q 540 1321 565 1321 "},"Ź":{"ha":900,"x_min":102,"x_max":798,"o":"m 693 1024 l 102 0 l 798 0 l 798 61 l 206 61 l 798 1085 l 102 1085 l 102 1024 l 693 1024 m 599 1360 l 486 1360 l 376 1233 l 433 1233 l 599 1360 "},"ź":{"ha":678,"x_min":102,"x_max":576,"o":"m 446 605 l 102 0 l 576 0 l 576 61 l 206 61 l 551 666 l 102 666 l 102 605 l 446 605 m 488 941 l 375 941 l 264 814 l 321 814 l 488 941 "},"Ż":{"ha":900,"x_min":102,"x_max":798,"o":"m 693 1024 l 102 0 l 798 0 l 798 61 l 206 61 l 798 1085 l 102 1085 l 102 1024 l 693 1024 m 450 1303 q 413 1288 429 1303 q 398 1251 398 1273 q 413 1215 398 1230 q 450 1200 429 1200 q 487 1215 471 1200 q 502 1251 502 1230 q 487 1288 502 1273 q 450 1303 471 1303 "},"ż":{"ha":678,"x_min":102,"x_max":576,"o":"m 446 605 l 102 0 l 576 0 l 576 61 l 206 61 l 551 666 l 102 666 l 102 605 l 446 605 m 340 884 q 303 869 318 884 q 288 832 288 854 q 303 795 288 810 q 340 781 318 781 q 376 795 361 781 q 391 832 391 810 q 376 869 391 854 q 340 884 361 884 "},"Ž":{"ha":900,"x_min":102,"x_max":798,"o":"m 693 1024 l 102 0 l 798 0 l 798 61 l 206 61 l 798 1085 l 102 1085 l 102 1024 l 693 1024 m 412 1158 l 482 1158 l 644 1317 l 573 1317 l 447 1220 l 328 1317 l 256 1317 l 412 1158 "},"ž":{"ha":678,"x_min":102,"x_max":576,"o":"m 446 605 l 102 0 l 576 0 l 576 61 l 206 61 l 551 666 l 102 666 l 102 605 l 446 605 m 301 739 l 372 739 l 533 898 l 463 898 l 336 801 l 217 898 l 146 898 l 301 739 "},"ſ":{"ha":294,"x_min":84,"x_max":351,"o":"m 146 0 l 146 842 q 185 932 148 895 q 276 970 229 970 q 331 958 302 970 l 351 1013 q 270 1027 308 1027 q 142 976 197 1027 q 84 846 89 922 l 84 0 l 146 0 "},"ƒ":{"ha":303,"x_min":-42,"x_max":360,"o":"m 155 0 l 155 604 l 291 604 l 291 666 l 155 666 l 155 842 q 195 932 157 895 q 286 970 238 970 q 341 958 313 970 l 360 1013 q 279 1027 318 1027 q 151 976 208 1027 q 94 846 98 922 l 94 666 l 26 666 l 26 604 l 94 604 l 94 -56 q -42 -190 86 -190 l -42 -246 q 155 -54 146 -246 l 155 0 l 155 0 "},"Ǻ":{"ha":857,"x_min":-1,"x_max":854,"o":"m 602 484 l 256 484 l 429 939 l 602 484 m 427 1146 q 454 1135 443 1146 q 466 1106 466 1123 q 454 1080 466 1091 q 427 1068 443 1068 q 399 1080 410 1068 q 388 1106 388 1091 q 399 1135 388 1123 q 427 1146 410 1146 m 409 1189 q 368 1166 386 1183 q 344 1106 344 1141 q 368 1049 344 1073 q 397 1029 381 1036 l -1 0 l 64 0 l 233 423 l 624 423 l 789 0 l 854 0 l 460 1031 q 487 1049 474 1036 q 511 1106 511 1073 q 487 1166 511 1141 q 462 1182 475 1176 l 595 1291 l 482 1291 l 409 1189 "},"ǻ":{"ha":861,"x_min":57,"x_max":793,"o":"m 732 293 q 647 136 715 204 q 429 46 557 46 q 212 128 302 46 q 121 330 121 210 q 212 532 121 450 q 429 615 302 615 q 647 525 557 615 q 732 368 715 457 l 732 293 m 425 796 q 452 785 441 796 q 464 756 464 773 q 452 730 464 741 q 425 718 441 718 q 397 730 408 718 q 385 756 385 741 q 397 785 385 773 q 425 796 408 796 m 458 833 l 621 953 l 507 953 l 404 837 q 366 816 382 831 q 342 756 342 791 q 366 699 342 723 q 399 679 380 684 q 161 573 264 668 q 57 330 57 477 q 166 82 57 184 q 429 -19 275 -19 q 693 90 584 -19 q 732 136 714 112 l 732 0 l 793 0 l 793 620 l 732 620 l 732 526 q 693 571 714 549 q 454 679 593 671 q 484 699 471 685 q 508 756 508 723 q 484 816 508 791 q 458 833 472 827 "},"Ǽ":{"ha":1137,"x_min":27,"x_max":1052,"o":"m 1052 1085 l 509 1085 l 509 1083 l 27 0 l 113 0 l 291 416 l 509 416 l 509 0 l 1052 0 l 1052 61 l 570 61 l 570 512 l 1052 512 l 1052 573 l 570 573 l 570 1024 l 1052 1024 l 1052 1085 m 509 931 l 509 477 l 313 477 l 509 931 m 688 1360 l 576 1360 l 465 1233 l 522 1233 l 688 1360 "},"ǽ":{"ha":1472,"x_min":61,"x_max":1411,"o":"m 704 501 q 736 414 727 460 l 736 293 q 704 205 727 246 q 651 136 684 169 q 433 46 561 46 q 216 136 306 46 q 125 353 125 226 q 216 571 125 481 q 433 661 306 661 q 651 571 561 661 q 704 501 684 538 m 1338 450 l 797 450 l 797 534 q 829 571 811 553 q 1047 661 920 661 q 1265 571 1175 661 q 1338 450 1316 519 m 797 174 l 797 389 l 1411 388 q 1311 617 1407 520 q 1047 726 1202 726 q 797 629 902 726 l 797 666 l 736 666 l 736 572 q 697 617 718 595 q 433 726 588 726 q 170 617 279 726 q 61 353 61 508 q 170 90 61 199 q 433 -19 279 -19 q 697 90 588 -19 q 736 136 718 112 l 736 0 l 797 0 l 797 78 q 1047 -19 902 -19 q 1311 90 1202 -19 q 1359 146 1348 127 l 1294 169 q 1265 136 1280 152 q 1047 46 1175 46 q 829 136 920 46 q 797 174 811 154 m 885 941 l 772 941 l 662 814 l 719 814 l 885 941 "},"Ǿ":{"ha":1283,"x_min":85,"x_max":1198,"o":"m 823 1006 l 405 108 q 292 194 345 142 q 147 544 147 339 q 292 893 147 749 q 642 1038 437 1038 q 823 1006 739 1038 m 460 82 l 878 979 q 991 894 939 946 q 1136 544 1136 749 q 991 194 1136 339 q 642 49 846 49 q 460 82 544 49 m 905 1036 l 963 1161 l 907 1187 l 849 1062 q 642 1101 753 1101 q 248 938 411 1101 q 85 544 85 774 q 248 151 85 313 q 378 52 309 90 l 320 -73 l 376 -99 l 434 26 q 642 -13 530 -13 q 1035 150 872 -13 q 1198 544 1198 313 q 1036 938 1198 774 q 905 1036 975 998 m 790 1360 l 677 1360 l 567 1233 l 624 1233 l 790 1360 "},"ǿ":{"ha":867,"x_min":61,"x_max":806,"o":"m 561 635 l 254 104 q 216 137 234 118 q 125 354 125 227 q 216 572 125 481 q 433 662 306 662 q 561 635 503 662 m 613 604 q 651 572 633 590 q 741 354 741 481 q 651 137 741 227 q 433 47 561 47 q 306 73 364 47 l 613 604 m 222 47 l 136 -102 l 190 -127 l 273 17 q 433 -18 346 -18 q 697 91 588 -18 q 806 354 806 200 q 697 618 806 509 q 646 661 673 642 l 730 808 l 677 836 l 594 692 q 433 727 521 727 q 170 618 279 727 q 61 354 61 509 q 170 91 61 200 q 222 47 195 66 m 582 941 l 469 941 l 359 814 l 416 814 l 582 941 "},"ˆ":{"ha":550,"x_min":82,"x_max":469,"o":"m 308 898 l 237 898 l 82 739 l 153 739 l 273 836 l 399 739 l 469 739 l 308 898 "},"ˇ":{"ha":550,"x_min":82,"x_max":469,"o":"m 237 739 l 308 739 l 469 898 l 399 898 l 273 801 l 153 898 l 82 898 l 237 739 "},"ˉ":{"ha":604,"x_min":102,"x_max":502,"o":"m 102 832 l 102 785 l 502 785 l 502 832 l 102 832 "},"˘":{"ha":597,"x_min":139,"x_max":458,"o":"m 189 907 l 139 907 q 186 810 142 855 q 299 764 232 764 q 412 810 366 764 q 458 907 452 851 l 408 907 q 377 846 404 871 q 299 813 345 813 q 220 846 253 813 q 189 907 195 871 "},"˙":{"ha":273,"x_min":85,"x_max":189,"o":"m 137 884 q 100 869 115 884 q 85 832 85 854 q 100 795 85 810 q 137 781 115 781 q 173 795 158 781 q 189 832 189 810 q 173 869 189 854 q 137 884 158 884 "},"˚":{"ha":517,"x_min":176,"x_max":342,"o":"m 259 924 q 200 899 224 924 q 176 840 176 875 q 200 782 176 806 q 259 758 224 758 q 318 782 294 758 q 342 840 342 806 q 318 899 342 875 q 259 924 294 924 m 259 880 q 286 868 275 880 q 298 840 298 857 q 286 813 298 825 q 259 802 275 802 q 231 813 243 802 q 220 840 220 825 q 231 868 220 857 q 259 880 243 880 "},"˛":{"ha":192,"x_min":7,"x_max":185,"o":"m 134 12 l 120 33 q 8 -89 18 -18 q 7 -109 7 -99 q 31 -174 7 -147 q 110 -207 60 -207 q 185 -191 147 -207 l 170 -157 q 131 -167 151 -167 q 77 -142 97 -167 q 62 -92 62 -125 q 63 -69 62 -81 q 134 12 71 -20 "},"˜":{"ha":559,"x_min":102,"x_max":458,"o":"m 276 851 q 198 882 237 882 q 170 878 184 882 q 102 774 117 862 l 149 774 q 197 831 163 829 l 200 831 q 284 791 233 831 q 362 760 323 760 q 391 764 376 760 q 458 867 444 780 l 411 867 q 363 810 397 812 l 360 810 q 276 851 327 810 "},"˝":{"ha":582,"x_min":102,"x_max":480,"o":"m 325 914 l 212 914 l 102 787 l 159 787 l 325 914 m 480 914 l 368 914 l 257 787 l 314 787 l 480 914 "},"΄":{"ha":296,"x_min":58,"x_max":281,"o":"m 281 1085 l 168 1085 l 58 958 l 115 958 l 281 1085 "},"΅":{"ha":545,"x_min":84,"x_max":461,"o":"m 392 1085 l 279 1085 l 199 958 l 256 958 l 392 1085 m 418 1042 q 388 1029 401 1042 q 376 1000 376 1017 q 388 970 376 982 q 418 958 401 958 q 448 970 435 958 q 461 1000 461 982 q 448 1029 461 1017 q 418 1042 435 1042 m 127 1042 q 97 1029 109 1042 q 84 1000 84 1017 q 97 970 84 982 q 127 958 109 958 q 157 970 144 958 q 170 1000 170 982 q 157 1029 170 1017 q 127 1042 144 1042 "},"Ά":{"ha":876,"x_min":92,"x_max":899,"o":"m 338 1085 l 226 1085 l 115 958 l 172 958 l 338 1085 "},"·":{"ha":188,"x_min":42,"x_max":146,"o":"m 94 769 q 57 754 73 769 q 42 718 42 739 q 57 681 42 696 q 94 666 73 666 q 130 681 115 666 q 146 718 146 696 q 130 754 146 739 q 94 769 115 769 "},"Έ":{"ha":908,"x_min":58,"x_max":1037,"o":"m 281 1085 l 168 1085 l 58 958 l 115 958 l 281 1085 "},"Ή":{"ha":959,"x_min":58,"x_max":1071,"o":"m 281 1085 l 168 1085 l 58 958 l 115 958 l 281 1085 "},"Ί":{"ha":547,"x_min":58,"x_max":454,"o":"m 281 1085 l 168 1085 l 58 958 l 115 958 l 281 1085 m 454 1085 l 393 1085 l 393 0 l 454 0 l 454 1085 "},"Ό":{"ha":1479,"x_min":58,"x_max":1368,"o":"m 281 1085 l 168 1085 l 58 958 l 115 958 l 281 1085 "},"Ύ":{"ha":1122,"x_min":58,"x_max":1234,"o":"m 281 1085 l 168 1085 l 58 958 l 115 958 l 281 1085 "},"Ώ":{"ha":1300,"x_min":58,"x_max":1189,"o":"m 281 1085 l 168 1085 l 58 958 l 115 958 l 281 1085 "},"ΐ":{"ha":283,"x_min":-47,"x_max":330,"o":"m 172 666 l 111 666 l 111 0 l 172 0 l 172 666 m 261 934 l 148 934 l 68 807 l 125 807 l 261 934 m 288 890 q 257 878 270 890 q 245 849 245 866 q 257 819 245 831 q 288 806 270 806 q 317 819 304 806 q 330 849 330 831 q 317 878 330 866 q 288 890 304 890 m -4 890 q -34 878 -22 890 q -47 849 -47 866 q -34 819 -47 831 q -4 806 -22 806 q 26 819 13 806 q 39 849 39 831 q 26 878 39 866 q -4 890 13 890 "},"Α":{"ha":876,"x_min":34,"x_max":842,"o":"m 604 477 l 273 477 l 438 932 l 604 477 m 626 416 l 777 0 l 842 0 l 438 1110 l 34 0 l 99 0 l 250 416 l 626 416 "},"Β":{"ha":723,"x_min":102,"x_max":662,"o":"m 294 1085 l 102 1085 l 102 0 l 312 0 l 312 1 q 553 107 452 3 q 662 374 662 220 q 553 637 662 528 q 410 727 486 711 q 496 884 496 800 q 437 1026 496 967 q 294 1085 378 1085 m 163 682 l 290 682 q 507 591 417 682 q 597 374 597 501 q 507 153 597 246 q 312 60 425 68 l 312 61 l 163 61 l 163 682 m 163 1024 l 294 1024 q 397 984 355 1024 q 438 884 438 945 q 397 785 438 823 q 310 747 361 751 l 163 747 l 163 1024 "},"Γ":{"ha":578,"x_min":86,"x_max":561,"o":"m 561 1085 l 86 1085 l 86 0 l 148 0 l 148 1023 l 561 1023 l 561 1085 "},"Δ":{"ha":846,"x_min":-23,"x_max":846,"o":"m 23 1 l 23 0 l 846 0 l 446 1085 l 372 1085 l -23 1 l 23 1 m 759 61 l 64 61 l 409 1008 l 759 61 "},"Ε":{"ha":729,"x_min":102,"x_max":644,"o":"m 644 1085 l 102 1085 l 102 0 l 644 0 l 644 61 l 163 61 l 163 512 l 644 512 l 644 573 l 163 573 l 163 1024 l 644 1024 l 644 1085 "},"Ζ":{"ha":900,"x_min":102,"x_max":798,"o":"m 693 1024 l 102 0 l 798 0 l 798 61 l 206 61 l 798 1085 l 102 1085 l 102 1024 l 693 1024 "},"Η":{"ha":780,"x_min":102,"x_max":678,"o":"m 163 486 l 617 486 l 617 0 l 678 0 l 678 1085 l 617 1085 l 617 547 l 163 547 l 163 1085 l 102 1085 l 102 0 l 163 0 l 163 486 "},"Θ":{"ha":1208,"x_min":47,"x_max":1161,"o":"m 604 1100 q 211 937 374 1100 q 47 544 47 774 q 211 150 47 313 q 604 -13 374 -13 q 998 150 835 -13 q 1161 544 1161 313 q 998 937 1161 774 q 604 1100 835 1100 m 604 1038 q 954 893 808 1038 q 1099 544 1099 748 q 954 194 1099 339 q 604 49 808 49 q 255 194 399 49 q 110 544 110 339 q 255 893 110 748 q 604 1038 399 1038 m 298 574 l 298 513 l 911 513 l 911 574 l 298 574 "},"Ι":{"ha":249,"x_min":94,"x_max":155,"o":"m 155 1085 l 94 1085 l 94 0 l 155 0 l 155 1085 "},"Κ":{"ha":744,"x_min":102,"x_max":683,"o":"m 163 526 l 222 600 l 608 0 l 683 0 l 262 648 l 588 1085 l 509 1085 l 163 623 l 163 1085 l 102 1085 l 102 0 l 163 0 l 163 526 "},"Λ":{"ha":869,"x_min":0,"x_max":869,"o":"m 469 1085 l 395 1085 l 0 1 l 64 1 l 432 1008 l 805 0 l 869 0 l 469 1085 "},"Μ":{"ha":1158,"x_min":102,"x_max":1056,"o":"m 172 1085 l 102 1085 l 104 1080 l 104 0 l 165 0 l 165 975 l 579 260 l 992 975 l 992 0 l 1053 0 l 1053 1080 l 1056 1085 l 986 1085 l 579 380 l 172 1085 "},"Ν":{"ha":889,"x_min":102,"x_max":787,"o":"m 102 1085 l 102 0 l 163 0 l 163 975 l 726 0 l 787 0 l 787 1085 l 726 1085 l 726 120 l 169 1085 l 102 1085 "},"Ξ":{"ha":844,"x_min":39,"x_max":806,"o":"m 115 574 l 115 513 l 728 513 l 728 574 l 115 574 m 39 1086 l 39 1024 l 806 1024 l 806 1086 l 39 1086 m 39 62 l 39 1 l 806 1 l 806 62 l 39 62 "},"Ο":{"ha":1283,"x_min":85,"x_max":1198,"o":"m 642 1101 q 248 938 411 1101 q 85 544 85 774 q 248 150 85 313 q 642 -13 411 -13 q 1035 150 872 -13 q 1198 544 1198 313 q 1035 938 1198 774 q 642 1101 872 1101 m 642 1038 q 991 893 846 1038 q 1136 544 1136 749 q 991 194 1136 339 q 642 49 846 49 q 292 194 437 49 q 147 544 147 339 q 292 893 147 749 q 642 1038 437 1038 "},"Π":{"ha":823,"x_min":72,"x_max":750,"o":"m 134 1023 l 689 1023 l 689 0 l 750 0 l 750 1085 l 72 1085 l 72 0 l 134 0 l 134 1023 "},"Ρ":{"ha":739,"x_min":102,"x_max":701,"o":"m 163 376 l 347 376 q 597 480 494 376 q 701 731 701 584 q 597 981 701 878 q 387 1085 511 1068 l 102 1085 l 102 0 l 163 0 l 163 376 m 163 1023 l 347 1023 q 554 938 468 1023 q 640 731 640 852 q 554 524 640 610 q 347 438 468 438 l 163 438 l 163 1023 "},"Σ":{"ha":814,"x_min":18,"x_max":796,"o":"m 18 1084 l 18 995 l 402 542 l 18 89 l 18 0 l 796 0 l 796 61 l 84 61 l 481 542 l 84 1023 l 796 1023 l 796 1084 l 18 1084 "},"Τ":{"ha":678,"x_min":34,"x_max":644,"o":"m 370 1024 l 644 1024 l 644 1085 l 34 1085 l 34 1024 l 309 1024 l 309 0 l 370 0 l 370 1024 "},"Υ":{"ha":876,"x_min":34,"x_max":842,"o":"m 407 439 l 407 0 l 468 0 l 468 439 l 842 1085 l 772 1085 l 437 507 l 104 1085 l 34 1085 l 407 439 "},"Φ":{"ha":1211,"x_min":54,"x_max":1158,"o":"m 574 227 q 247 316 367 232 q 119 533 119 406 q 247 751 119 661 q 574 840 367 835 l 574 227 m 636 162 q 1010 271 871 168 q 1158 534 1158 380 q 1010 797 1158 688 q 636 905 871 899 l 636 1084 l 574 1084 l 574 905 q 201 797 340 899 q 54 534 54 688 q 201 271 54 380 q 574 162 340 168 l 574 3 l 636 3 l 636 162 m 636 840 q 964 751 845 835 q 1093 533 1093 661 q 964 316 1093 406 q 636 227 845 232 l 636 840 "},"Χ":{"ha":826,"x_min":34,"x_max":792,"o":"m 34 0 l 103 0 l 412 536 l 722 0 l 792 0 l 447 596 l 730 1085 l 661 1085 l 412 656 l 165 1085 l 96 1085 l 378 596 l 34 0 "},"Ψ":{"ha":1238,"x_min":69,"x_max":1170,"o":"m 648 239 q 1022 347 884 245 q 1170 609 1168 456 l 1170 1084 l 1108 1084 l 1108 613 l 1104 613 q 976 393 1104 483 q 648 303 857 309 l 648 1084 l 587 1084 l 587 303 q 258 393 378 309 q 131 610 131 483 l 131 1084 l 69 1084 l 69 613 q 214 347 73 456 q 587 239 351 245 l 587 3 l 648 3 l 648 239 "},"Ω":{"ha":1080,"x_min":61,"x_max":1019,"o":"m 545 1085 l 535 1085 q 191 934 321 1085 q 61 526 61 783 q 164 209 61 337 q 351 60 268 81 l 130 60 l 130 0 l 493 0 l 493 60 q 234 213 347 94 q 122 526 122 332 q 235 896 122 758 q 538 1034 349 1034 l 542 1034 q 845 896 732 1034 q 958 526 958 758 q 846 213 958 332 q 587 60 734 94 l 587 0 l 950 0 l 950 60 l 730 60 q 916 209 812 81 q 1019 526 1019 337 q 889 934 1019 783 q 545 1085 760 1085 "},"Ϊ":{"ha":249,"x_min":-39,"x_max":287,"o":"m 155 1085 l 94 1085 l 94 0 l 155 0 l 155 1085 m 22 1321 q -21 1303 -3 1321 q -39 1261 -39 1286 q -21 1217 -39 1235 q 22 1200 -3 1200 q 65 1217 47 1200 q 83 1261 83 1235 q 65 1303 83 1286 q 22 1321 47 1321 m 226 1321 q 183 1303 201 1321 q 165 1261 165 1286 q 183 1217 165 1235 q 226 1200 201 1200 q 269 1217 251 1200 q 287 1261 287 1235 q 269 1303 287 1286 q 226 1321 251 1321 "},"Ϋ":{"ha":876,"x_min":34,"x_max":842,"o":"m 407 439 l 407 0 l 468 0 l 468 439 l 842 1085 l 772 1085 l 437 507 l 104 1085 l 34 1085 l 407 439 m 336 1321 q 293 1303 311 1321 q 275 1261 275 1286 q 293 1217 275 1235 q 336 1200 311 1200 q 379 1217 361 1200 q 397 1261 397 1235 q 379 1303 397 1286 q 336 1321 361 1321 m 540 1321 q 497 1303 515 1321 q 479 1261 479 1286 q 497 1217 479 1235 q 540 1200 515 1200 q 583 1217 565 1200 q 601 1261 601 1235 q 583 1303 601 1286 q 540 1321 565 1321 "},"ά":{"ha":892,"x_min":62,"x_max":861,"o":"m 752 159 l 801 0 l 861 0 l 785 333 l 861 666 l 801 666 l 752 513 q 698 617 732 583 q 434 726 589 726 q 171 617 280 726 q 62 353 62 508 q 171 90 62 199 q 434 -19 280 -19 q 698 90 589 -19 q 752 159 729 123 m 723 336 q 652 136 721 205 q 434 46 562 46 q 216 136 307 46 q 126 353 126 225 q 216 571 126 480 q 434 661 307 661 q 652 571 562 661 q 723 336 723 497 m 610 1085 l 498 1085 l 387 958 l 444 958 l 610 1085 "},"έ":{"ha":578,"x_min":69,"x_max":509,"o":"m 239 309 l 407 309 l 407 369 l 239 369 q 170 407 214 375 q 126 512 126 438 q 176 587 126 562 q 307 612 226 612 q 509 508 427 612 l 509 591 q 307 677 416 677 q 138 637 207 677 q 69 505 69 597 q 178 340 69 406 q 69 182 69 274 q 138 38 69 90 q 307 -14 207 -14 q 509 77 418 -14 l 509 177 q 307 51 426 58 q 176 87 226 51 q 126 174 126 123 q 170 272 126 240 q 239 309 214 304 m 438 1085 l 326 1085 l 215 958 l 272 958 l 438 1085 "},"ή":{"ha":646,"x_min":69,"x_max":592,"o":"m 131 517 q 179 585 146 553 q 324 644 240 644 q 470 585 408 644 q 531 439 531 525 l 531 -254 l 592 -254 l 592 446 q 516 632 590 557 q 324 706 442 706 q 131 623 214 706 l 131 666 l 69 666 l 69 0 l 131 0 l 131 517 m 479 1085 l 367 1085 l 256 958 l 313 958 l 479 1085 "},"ί":{"ha":283,"x_min":67,"x_max":290,"o":"m 172 666 l 111 666 l 111 0 l 172 0 l 172 666 m 290 1085 l 178 1085 l 67 958 l 124 958 l 290 1085 "},"ΰ":{"ha":745,"x_min":102,"x_max":644,"o":"m 376 -9 q 568 64 494 -9 q 644 251 642 138 l 644 666 l 583 666 l 583 256 q 521 112 583 172 q 376 52 460 52 q 224 112 286 52 q 163 256 163 172 l 163 666 l 102 666 l 102 251 q 178 64 104 138 q 376 -9 252 -9 m 492 1085 l 379 1085 l 300 958 l 356 958 l 492 1085 m 519 1042 q 489 1029 501 1042 q 476 1000 476 1017 q 489 970 476 982 q 519 958 501 958 q 549 970 536 958 q 562 1000 562 982 q 549 1029 562 1017 q 519 1042 536 1042 m 227 1042 q 197 1029 210 1042 q 184 1000 184 1017 q 197 970 184 982 q 227 958 210 958 q 257 970 244 958 q 270 1000 270 982 q 257 1029 270 1017 q 227 1042 244 1042 "},"α":{"ha":892,"x_min":62,"x_max":861,"o":"m 752 159 l 801 0 l 861 0 l 785 333 l 861 666 l 801 666 l 752 513 q 698 617 732 583 q 434 726 589 726 q 171 617 280 726 q 62 353 62 508 q 171 90 62 199 q 434 -19 280 -19 q 698 90 589 -19 q 752 159 729 123 m 723 336 q 652 136 721 205 q 434 46 562 46 q 216 136 307 46 q 126 353 126 225 q 216 571 126 480 q 434 661 307 661 q 652 571 562 661 q 723 336 723 497 "},"β":{"ha":699,"x_min":92,"x_max":653,"o":"m 155 1032 q 92 854 92 964 l 92 -252 l 154 -252 l 154 847 q 200 985 154 934 q 314 1036 245 1036 q 432 987 383 1036 q 481 869 481 939 q 433 750 481 800 q 346 684 386 700 q 243 667 306 668 l 243 607 l 293 606 q 515 497 441 578 q 589 309 589 416 q 513 125 589 201 q 330 50 437 50 q 222 72 272 50 l 203 10 q 330 -15 261 -15 q 558 80 464 -15 q 653 309 653 175 q 560 543 653 443 q 397 644 496 612 q 494 717 443 662 q 546 869 546 772 q 478 1031 546 964 q 314 1099 411 1099 q 187 1066 218 1099 q 155 1032 155 1032 "},"γ":{"ha":686,"x_min":31,"x_max":655,"o":"m 310 0 l 310 -254 l 374 -254 l 374 3 l 655 666 l 584 666 l 341 96 l 102 666 l 31 666 l 310 0 "},"δ":{"ha":854,"x_min":55,"x_max":800,"o":"m 210 571 q 427 661 300 661 q 645 571 555 661 q 735 353 735 480 q 645 136 735 225 q 427 46 555 46 q 210 136 300 46 q 119 353 119 225 q 164 525 119 480 q 210 571 210 571 m 549 726 q 292 1020 484 758 l 631 1020 l 631 1081 l 148 1081 l 437 732 q 165 617 260 713 q 55 353 55 508 q 164 90 55 199 q 427 -19 273 -19 q 691 90 582 -19 q 800 353 800 199 q 707 601 800 508 q 582 710 614 694 q 549 726 549 726 "},"ε":{"ha":578,"x_min":69,"x_max":509,"o":"m 239 309 l 407 309 l 407 369 l 239 369 q 170 407 214 375 q 126 512 126 438 q 176 587 126 562 q 307 612 226 612 q 509 508 427 612 l 509 591 q 307 677 416 677 q 138 637 207 677 q 69 505 69 597 q 178 340 69 406 q 69 182 69 274 q 138 38 69 90 q 307 -14 207 -14 q 509 77 418 -14 l 509 177 q 307 51 426 58 q 176 87 226 51 q 126 174 126 123 q 170 272 126 240 q 239 309 214 304 "},"ζ":{"ha":606,"x_min":77,"x_max":621,"o":"m 621 1065 l 621 1085 l 105 1085 l 105 1023 l 516 1023 q 82 322 125 650 q 77 256 77 287 q 403 -15 77 -7 q 526 -87 526 -15 l 526 -91 q 450 -162 522 -162 l 450 -226 q 588 -99 565 -222 q 398 47 588 41 q 136 266 136 56 q 146 352 136 305 q 621 1065 204 646 "},"η":{"ha":646,"x_min":69,"x_max":592,"o":"m 131 517 q 179 585 146 553 q 324 644 240 644 q 470 585 408 644 q 531 439 531 525 l 531 -254 l 592 -254 l 592 446 q 516 632 590 557 q 324 706 442 706 q 131 623 214 706 l 131 666 l 69 666 l 69 0 l 131 0 l 131 517 "},"θ":{"ha":867,"x_min":62,"x_max":806,"o":"m 742 533 q 652 174 742 302 q 434 46 562 46 q 216 174 307 46 q 126 533 126 302 q 216 892 126 764 q 434 1020 307 1020 q 652 892 562 1020 q 742 533 742 764 m 806 533 q 697 937 806 789 q 435 1085 589 1085 q 171 937 280 1085 q 62 533 62 789 q 171 129 62 276 q 435 -19 280 -19 q 697 129 589 -19 q 806 533 806 276 m 226 564 l 226 503 l 643 503 l 643 564 l 226 564 "},"ι":{"ha":283,"x_min":111,"x_max":172,"o":"m 172 666 l 111 666 l 111 0 l 172 0 l 172 666 "},"κ":{"ha":566,"x_min":77,"x_max":575,"o":"m 478 666 l 399 666 l 138 361 l 138 666 l 77 666 l 77 0 l 138 0 l 138 263 l 274 414 l 500 0 l 575 0 l 314 463 l 478 666 "},"λ":{"ha":652,"x_min":39,"x_max":613,"o":"m 361 541 l 360 541 l 169 950 l 101 950 l 292 543 l 39 0 l 107 0 l 326 465 l 545 0 l 613 0 l 361 541 "},"μ":{"ha":674,"x_min":84,"x_max":590,"o":"m 530 75 l 530 0 l 590 0 l 590 666 l 530 666 l 530 203 q 477 115 516 154 q 331 55 415 55 q 186 113 247 55 q 146 170 159 141 l 146 666 l 84 666 l 84 -254 l 146 -254 l 146 68 q 331 -6 222 -6 q 523 67 448 -6 q 530 75 527 72 "},"ν":{"ha":640,"x_min":33,"x_max":606,"o":"m 104 666 l 33 666 l 319 -23 l 606 666 l 535 666 l 319 157 l 104 666 "},"ξ":{"ha":686,"x_min":62,"x_max":693,"o":"m 441 -7 q 632 -110 632 -22 l 632 -114 q 549 -170 627 -170 l 549 -241 q 693 -138 670 -229 l 693 -122 q 485 49 693 26 q 201 137 277 73 q 125 309 125 201 q 199 497 125 416 q 422 608 273 578 l 626 607 l 626 667 l 410 668 q 286 742 329 700 q 242 854 242 785 l 242 859 q 487 1029 242 1029 l 631 1029 l 631 1085 l 465 1084 q 169 854 182 1084 q 220 710 169 758 q 317 644 272 662 q 155 543 219 612 q 62 309 62 443 q 156 92 62 175 q 346 1 251 8 q 441 -7 441 -7 "},"ο":{"ha":867,"x_min":61,"x_max":806,"o":"m 433 726 q 170 617 279 726 q 61 353 61 508 q 170 90 61 199 q 433 -19 279 -19 q 697 90 588 -19 q 806 353 806 199 q 697 617 806 508 q 433 726 588 726 m 433 661 q 651 571 561 661 q 741 353 741 481 q 651 136 741 226 q 433 46 561 46 q 216 136 306 46 q 125 353 125 226 q 216 571 125 481 q 433 661 306 661 "},"π":{"ha":856,"x_min":46,"x_max":810,"o":"m 304 604 l 551 604 l 551 0 l 612 0 l 612 604 l 810 604 l 810 666 l 46 666 l 46 604 l 244 604 l 244 0 l 304 0 l 304 604 "},"ρ":{"ha":852,"x_min":71,"x_max":806,"o":"m 71 444 l 71 -254 l 132 -254 l 132 135 q 170 90 149 112 q 433 -19 279 -19 q 697 90 588 -19 q 806 353 806 199 q 697 616 806 508 q 433 725 588 725 q 190 640 279 725 q 71 444 100 554 m 132 416 q 216 571 149 504 q 433 661 306 661 q 651 571 561 661 q 741 353 741 480 q 651 135 741 225 q 433 45 561 45 q 216 136 306 45 q 132 289 149 201 l 132 416 "},"ς":{"ha":694,"x_min":77,"x_max":641,"o":"m 434 -11 q 570 -87 570 -38 l 570 -91 q 487 -162 566 -162 l 487 -233 q 631 -115 608 -222 l 631 -99 q 477 46 631 11 q 232 141 323 81 q 140 309 140 201 q 230 509 140 416 q 528 607 319 601 l 641 607 l 641 667 l 494 668 q 170 543 271 654 q 77 309 77 443 q 187 96 77 175 q 365 3 297 16 q 434 -11 434 -11 "},"σ":{"ha":919,"x_min":63,"x_max":865,"o":"m 218 571 q 435 661 308 661 q 653 571 563 661 q 743 353 743 480 q 653 136 743 225 q 435 46 563 46 q 218 136 308 46 q 127 353 127 225 q 173 525 127 480 q 218 571 218 571 m 711 604 l 865 604 l 865 666 l 640 666 q 435 726 551 726 q 172 617 281 726 q 63 353 63 508 q 172 90 63 199 q 435 -19 281 -19 q 699 90 590 -19 q 808 353 808 199 q 711 604 808 499 "},"τ":{"ha":705,"x_min":47,"x_max":658,"o":"m 382 604 l 658 604 l 658 666 l 47 666 l 47 604 l 322 604 l 322 0 l 382 0 l 382 604 "},"υ":{"ha":745,"x_min":102,"x_max":644,"o":"m 376 -9 q 568 64 494 -9 q 644 251 642 138 l 644 666 l 583 666 l 583 256 q 521 112 583 172 q 376 52 460 52 q 224 112 286 52 q 163 256 163 172 l 163 666 l 102 666 l 102 251 q 178 64 104 138 q 376 -9 252 -9 "},"φ":{"ha":868,"x_min":62,"x_max":807,"o":"m 412 -12 l 412 -250 l 473 -250 l 473 -11 q 698 98 603 1 q 807 360 807 206 q 616 662 807 576 q 489 696 538 696 q 407 625 418 696 l 407 54 l 401 54 q 217 142 304 54 q 127 360 127 233 q 218 578 127 487 q 250 607 233 593 l 227 672 q 172 624 208 661 q 62 360 62 515 q 172 98 62 206 q 412 -12 272 -4 m 469 66 l 469 596 q 506 633 471 633 q 609 595 541 633 q 743 360 743 518 q 652 142 743 233 q 469 66 598 89 "},"χ":{"ha":743,"x_min":39,"x_max":704,"o":"m 372 182 l 635 -250 l 704 -250 l 406 239 l 665 666 l 595 666 l 372 297 l 147 666 l 77 666 l 336 239 l 39 -250 l 108 -250 l 372 182 "},"ψ":{"ha":895,"x_min":69,"x_max":826,"o":"m 480 -12 q 716 98 617 -3 q 826 360 826 206 l 826 667 l 760 667 l 760 360 q 671 142 760 233 q 486 54 583 54 l 480 54 l 480 667 l 414 667 l 414 54 l 409 54 q 224 142 312 54 q 134 360 134 233 l 134 667 l 69 667 l 69 360 q 179 98 69 206 q 414 -12 278 -3 l 414 -243 l 480 -243 l 480 -12 "},"ω":{"ha":1044,"x_min":54,"x_max":989,"o":"m 496 151 q 486 136 492 143 q 479 125 483 131 q 334 37 438 37 q 174 118 229 37 q 118 372 118 199 q 206 660 118 545 l 206 666 l 145 666 q 54 372 54 522 q 124 80 54 180 q 327 -19 195 -19 q 522 89 456 -19 q 718 -19 589 -19 q 919 80 849 -19 q 989 372 989 180 q 904 666 989 519 l 844 666 l 844 655 q 925 372 925 530 q 869 118 925 199 q 709 37 814 37 q 566 125 606 37 q 557 136 561 130 q 546 151 551 143 l 552 151 l 552 510 l 492 510 l 492 151 l 496 151 "},"ϊ":{"ha":283,"x_min":-21,"x_max":304,"o":"m 172 666 l 111 666 l 111 0 l 172 0 l 172 666 m 40 902 q -3 884 15 902 q -21 842 -21 867 q -3 798 -21 816 q 40 781 15 781 q 83 798 65 781 q 101 842 101 816 q 83 884 101 867 q 40 902 65 902 m 243 902 q 200 884 218 902 q 182 842 182 867 q 200 798 182 816 q 243 781 218 781 q 287 798 269 781 q 304 842 304 816 q 287 884 304 867 q 243 902 269 902 "},"ϋ":{"ha":745,"x_min":102,"x_max":644,"o":"m 376 -9 q 568 64 494 -9 q 644 251 642 138 l 644 666 l 583 666 l 583 256 q 521 112 583 172 q 376 52 460 52 q 224 112 286 52 q 163 256 163 172 l 163 666 l 102 666 l 102 251 q 178 64 104 138 q 376 -9 252 -9 m 271 902 q 228 884 246 902 q 210 842 210 867 q 228 798 210 816 q 271 781 246 781 q 314 798 296 781 q 332 842 332 816 q 314 884 332 867 q 271 902 296 902 m 475 902 q 432 884 450 902 q 414 842 414 867 q 432 798 414 816 q 475 781 450 781 q 518 798 500 781 q 536 842 536 816 q 518 884 536 867 q 475 902 500 902 "},"ό":{"ha":867,"x_min":61,"x_max":806,"o":"m 433 726 q 170 617 279 726 q 61 353 61 508 q 170 90 61 199 q 433 -19 279 -19 q 697 90 588 -19 q 806 353 806 199 q 697 617 806 508 q 433 726 588 726 m 433 661 q 651 571 561 661 q 741 353 741 481 q 651 136 741 226 q 433 46 561 46 q 216 136 306 46 q 125 353 125 226 q 216 571 125 481 q 433 661 306 661 m 582 1085 l 469 1085 l 359 958 l 416 958 l 582 1085 "},"ύ":{"ha":745,"x_min":102,"x_max":644,"o":"m 376 -9 q 568 64 494 -9 q 644 251 642 138 l 644 666 l 583 666 l 583 256 q 521 112 583 172 q 376 52 460 52 q 224 112 286 52 q 163 256 163 172 l 163 666 l 102 666 l 102 251 q 178 64 104 138 q 376 -9 252 -9 m 522 1085 l 409 1085 l 298 958 l 355 958 l 522 1085 "},"ώ":{"ha":1044,"x_min":54,"x_max":989,"o":"m 496 151 q 486 136 492 143 q 479 125 483 131 q 334 37 438 37 q 174 118 229 37 q 118 372 118 199 q 206 660 118 545 l 206 666 l 145 666 q 54 372 54 522 q 124 80 54 180 q 327 -19 195 -19 q 522 89 456 -19 q 718 -19 589 -19 q 919 80 849 -19 q 989 372 989 180 q 904 666 989 519 l 844 666 l 844 655 q 925 372 925 530 q 869 118 925 199 q 709 37 814 37 q 566 125 606 37 q 557 136 561 130 q 546 151 551 143 l 552 151 l 552 510 l 492 510 l 492 151 l 496 151 m 670 1085 l 557 1085 l 447 958 l 504 958 l 670 1085 "},"Ё":{"ha":729,"x_min":102,"x_max":644,"o":"m 644 1085 l 102 1085 l 102 0 l 644 0 l 644 61 l 163 61 l 163 512 l 644 512 l 644 573 l 163 573 l 163 1024 l 644 1024 l 644 1085 m 271 1321 q 228 1303 246 1321 q 210 1261 210 1286 q 228 1217 210 1235 q 271 1200 246 1200 q 314 1217 296 1200 q 332 1261 332 1235 q 314 1303 332 1286 q 271 1321 296 1321 m 475 1321 q 432 1303 450 1321 q 414 1261 414 1286 q 432 1217 414 1235 q 475 1200 450 1200 q 518 1217 500 1200 q 536 1261 536 1235 q 518 1303 536 1286 q 475 1321 500 1321 "},"Ђ":{"ha":1110,"x_min":46,"x_max":1049,"o":"m 381 380 q 465 549 389 475 q 677 629 549 629 q 896 549 804 629 q 987 311 986 469 q 896 73 986 153 q 846 37 871 53 l 887 -7 q 949 37 920 12 q 1049 319 1049 120 q 949 593 1049 517 q 684 687 842 687 q 424 593 526 687 q 381 546 400 571 l 381 1023 l 656 1023 l 656 1085 l 46 1085 l 46 1023 l 321 1023 l 321 0 l 381 0 l 381 380 "},"Ѓ":{"ha":601,"x_min":86,"x_max":561,"o":"m 561 1085 l 86 1085 l 86 0 l 148 0 l 148 1023 l 561 1023 l 561 1085 m 473 1360 l 360 1360 l 250 1233 l 307 1233 l 473 1360 "},"Є":{"ha":1192,"x_min":75,"x_max":1161,"o":"m 806 574 l 138 574 q 282 893 147 759 q 631 1038 427 1038 q 981 893 836 1038 q 1031 836 1008 865 l 1106 836 q 1025 938 1073 889 q 631 1100 862 1100 q 238 937 401 1100 q 75 544 75 774 q 238 150 75 313 q 631 -13 401 -13 q 1025 151 862 -13 q 1161 367 1121 246 l 1095 367 q 981 194 1059 271 q 631 49 836 49 q 282 194 427 49 q 138 513 147 328 l 806 513 l 806 574 "},"Ѕ":{"ha":707,"x_min":34,"x_max":673,"o":"m 372 601 q 536 494 469 561 q 613 309 613 417 q 536 124 613 201 q 351 47 460 47 q 167 124 243 47 q 92 278 101 190 l 34 257 q 124 82 49 157 q 351 -13 218 -13 q 578 81 484 -13 q 673 309 673 176 q 578 536 673 442 q 359 667 490 625 q 232 750 278 705 q 182 869 182 800 q 232 989 182 940 q 351 1038 281 1038 q 471 989 421 1038 q 511 928 498 962 l 566 950 q 514 1031 551 995 q 351 1098 446 1098 q 189 1030 256 1098 q 121 869 121 963 q 189 707 121 774 q 372 601 256 640 "},"І":{"ha":292,"x_min":115,"x_max":176,"o":"m 176 1085 l 115 1085 l 115 0 l 176 0 l 176 1085 "},"Ї":{"ha":292,"x_min":-17,"x_max":309,"o":"m 176 1085 l 115 1085 l 115 0 l 176 0 l 176 1085 m 44 1321 q 1 1303 19 1321 q -17 1261 -17 1286 q 1 1217 -17 1235 q 44 1200 19 1200 q 87 1217 69 1200 q 105 1261 105 1235 q 87 1303 105 1286 q 44 1321 69 1321 m 248 1321 q 204 1303 222 1321 q 186 1261 186 1286 q 204 1217 186 1235 q 248 1200 222 1200 q 291 1217 273 1200 q 309 1261 309 1235 q 291 1303 309 1286 q 248 1321 273 1321 "},"Ј":{"ha":581,"x_min":85,"x_max":476,"o":"m 476 206 l 476 1085 l 415 1085 l 415 213 q 379 92 415 127 q 282 52 338 52 q 265 50 273 50 q 182 81 219 50 q 125 191 138 118 l 85 176 q 142 48 85 106 q 282 -9 200 -9 q 422 49 364 -9 q 476 206 476 103 "},"Љ":{"ha":1525,"x_min":39,"x_max":1465,"o":"m 788 0 l 1205 0 q 1391 83 1318 2 q 1465 290 1465 165 q 1391 488 1465 408 q 1205 572 1318 569 l 850 572 l 850 1085 l 172 1085 l 172 199 q 134 96 172 134 q 39 58 95 58 l 39 -4 q 177 53 121 -4 q 233 192 233 109 l 233 1023 l 788 1023 l 788 0 m 850 510 l 1200 510 q 1344 442 1284 510 q 1404 289 1404 374 q 1344 130 1404 199 q 1200 61 1284 61 l 850 61 l 850 510 "},"Њ":{"ha":1431,"x_min":77,"x_max":1377,"o":"m 694 0 l 1117 0 q 1304 83 1230 2 q 1377 290 1377 165 q 1304 488 1377 408 q 1117 572 1230 569 l 755 572 l 755 1085 l 694 1085 l 694 573 l 138 573 l 138 1085 l 77 1085 l 77 0 l 138 0 l 138 512 l 694 512 l 694 0 m 755 510 l 1112 510 q 1257 442 1196 510 q 1317 289 1317 374 q 1257 130 1317 199 q 1112 61 1196 61 l 755 61 l 755 510 "},"Ћ":{"ha":1109,"x_min":40,"x_max":1032,"o":"m 375 380 q 459 549 383 475 q 671 633 543 629 l 682 633 q 882 553 801 633 q 966 306 966 468 l 966 0 l 1032 0 l 1032 300 q 935 593 1032 499 q 677 687 836 687 q 418 593 519 687 q 375 546 394 571 l 375 1023 l 650 1023 l 650 1085 l 40 1085 l 40 1023 l 315 1023 l 315 0 l 375 0 l 375 380 "},"Ќ":{"ha":744,"x_min":27,"x_max":785,"o":"m 250 1360 l 138 1360 l 27 1233 l 84 1233 l 250 1360 "},"Ў":{"ha":865,"x_min":-31,"x_max":896,"o":"m 896 1085 l 826 1085 l 455 450 l 39 1085 l -31 1085 l 422 392 l 326 235 q 173 52 214 64 q 146 48 160 48 q 81 66 115 48 l 52 13 q 123 -9 86 -9 q 250 43 182 -9 q 896 1085 360 130 m 323 1326 l 273 1326 q 320 1230 276 1274 q 433 1183 366 1183 q 546 1230 500 1183 q 592 1326 587 1270 l 543 1326 q 511 1265 538 1291 q 433 1232 479 1232 q 355 1265 387 1232 q 323 1326 329 1291 "},"Џ":{"ha":865,"x_min":69,"x_max":796,"o":"m 399 1 l 399 -254 l 460 -254 l 460 0 l 796 0 l 796 1085 l 734 1085 l 734 62 l 131 62 l 131 1085 l 69 1085 l 69 1 l 399 1 "},"А":{"ha":876,"x_min":34,"x_max":842,"o":"m 604 477 l 273 477 l 438 932 l 604 477 m 626 416 l 777 0 l 842 0 l 438 1110 l 34 0 l 99 0 l 250 416 l 626 416 "},"Б":{"ha":791,"x_min":77,"x_max":753,"o":"m 81 573 l 77 573 l 77 512 l 81 512 l 81 63 l 77 63 l 77 1 l 81 1 l 81 0 l 142 0 l 142 1 l 492 1 q 679 85 606 3 q 753 292 753 166 q 679 490 753 409 q 492 573 606 571 l 142 573 l 142 1023 l 555 1023 l 555 1085 l 81 1085 l 81 573 m 142 512 l 487 512 q 632 444 572 512 q 692 291 692 375 q 632 132 692 200 q 487 63 572 63 l 142 63 l 142 512 "},"В":{"ha":723,"x_min":102,"x_max":662,"o":"m 294 1085 l 102 1085 l 102 0 l 312 0 l 312 1 q 553 107 452 3 q 662 374 662 220 q 553 637 662 528 q 410 727 486 711 q 496 884 496 800 q 437 1026 496 967 q 294 1085 378 1085 m 163 682 l 290 682 q 507 591 417 682 q 597 374 597 501 q 507 153 597 246 q 312 60 425 68 l 312 61 l 163 61 l 163 682 m 163 1024 l 294 1024 q 397 984 355 1024 q 438 884 438 945 q 397 785 438 823 q 310 747 361 751 l 163 747 l 163 1024 "},"Г":{"ha":601,"x_min":86,"x_max":561,"o":"m 561 1085 l 86 1085 l 86 0 l 148 0 l 148 1023 l 561 1023 l 561 1085 "},"Д":{"ha":897,"x_min":16,"x_max":828,"o":"m 706 66 l 95 66 q 336 787 336 326 q 314 1023 336 913 l 706 1023 l 706 66 m 768 66 l 768 1085 l 236 1085 q 275 787 275 915 q 22 66 275 357 l 16 66 l 16 -254 l 76 -254 l 76 0 l 768 0 l 768 -254 l 828 -254 l 828 66 l 768 66 "},"Е":{"ha":729,"x_min":102,"x_max":644,"o":"m 644 1085 l 102 1085 l 102 0 l 644 0 l 644 61 l 163 61 l 163 512 l 644 512 l 644 573 l 163 573 l 163 1024 l 644 1024 l 644 1085 "},"Ж":{"ha":1299,"x_min":-11,"x_max":1310,"o":"m 680 566 l 680 1085 l 618 1085 l 618 566 l 256 1085 l 182 1085 l 463 677 l -11 0 l 64 0 l 503 627 l 618 460 l 618 0 l 680 0 l 680 460 l 796 627 l 1236 0 l 1310 0 l 836 677 l 1117 1085 l 1043 1085 l 680 566 "},"З":{"ha":709,"x_min":69,"x_max":654,"o":"m 533 450 q 590 281 590 385 q 510 121 590 176 q 332 65 429 65 q 69 169 160 65 l 69 92 q 332 1 182 1 q 563 76 471 1 q 654 274 654 151 q 524 546 654 480 q 654 819 654 627 q 563 1016 654 942 q 332 1090 471 1090 q 69 1004 185 1090 l 69 945 q 348 1034 190 1034 q 517 974 444 1034 q 590 810 590 915 q 533 641 590 706 q 374 576 477 576 l 117 576 l 117 515 l 374 515 q 505 483 477 515 q 533 450 533 450 "},"И":{"ha":1027,"x_min":83,"x_max":943,"o":"m 943 1085 l 866 1085 l 145 75 l 145 1085 l 83 1085 l 83 0 l 178 0 l 882 987 l 882 0 l 943 0 l 943 1085 "},"Й":{"ha":1027,"x_min":83,"x_max":943,"o":"m 943 1085 l 866 1085 l 145 75 l 145 1085 l 83 1085 l 83 0 l 178 0 l 882 987 l 882 0 l 943 0 l 943 1085 m 404 1326 l 354 1326 q 401 1230 357 1274 q 514 1183 447 1183 q 627 1230 581 1183 q 673 1326 667 1270 l 623 1326 q 592 1265 618 1291 q 514 1232 559 1232 q 435 1265 468 1232 q 404 1326 410 1291 "},"К":{"ha":744,"x_min":102,"x_max":683,"o":"m 163 526 l 222 600 l 608 0 l 683 0 l 262 648 l 588 1085 l 509 1085 l 163 623 l 163 1085 l 102 1085 l 102 0 l 163 0 l 163 526 "},"Л":{"ha":922,"x_min":39,"x_max":850,"o":"m 233 192 l 233 1023 l 788 1023 l 788 0 l 850 0 l 850 1085 l 172 1085 l 172 199 q 134 96 172 134 q 39 58 95 58 l 39 -4 q 177 53 121 -4 q 233 192 233 109 "},"М":{"ha":1158,"x_min":102,"x_max":1056,"o":"m 172 1085 l 102 1085 l 104 1080 l 104 0 l 165 0 l 165 975 l 579 260 l 992 975 l 992 0 l 1053 0 l 1053 1080 l 1056 1085 l 986 1085 l 579 380 l 172 1085 "},"Н":{"ha":780,"x_min":102,"x_max":678,"o":"m 163 486 l 617 486 l 617 0 l 678 0 l 678 1085 l 617 1085 l 617 547 l 163 547 l 163 1085 l 102 1085 l 102 0 l 163 0 l 163 486 "},"О":{"ha":1283,"x_min":85,"x_max":1198,"o":"m 642 1101 q 248 938 411 1101 q 85 544 85 774 q 248 150 85 313 q 642 -13 411 -13 q 1035 150 872 -13 q 1198 544 1198 313 q 1035 938 1198 774 q 642 1101 872 1101 m 642 1038 q 991 893 846 1038 q 1136 544 1136 749 q 991 194 1136 339 q 642 49 846 49 q 292 194 437 49 q 147 544 147 339 q 292 893 147 749 q 642 1038 437 1038 "},"П":{"ha":823,"x_min":72,"x_max":750,"o":"m 134 1023 l 689 1023 l 689 0 l 750 0 l 750 1085 l 72 1085 l 72 0 l 134 0 l 134 1023 "},"Р":{"ha":739,"x_min":102,"x_max":701,"o":"m 163 376 l 347 376 q 597 480 494 376 q 701 731 701 584 q 597 981 701 878 q 387 1085 511 1068 l 102 1085 l 102 0 l 163 0 l 163 376 m 163 1023 l 347 1023 q 554 938 468 1023 q 640 731 640 852 q 554 524 640 610 q 347 438 468 438 l 163 438 l 163 1023 "},"С":{"ha":1082,"x_min":85,"x_max":1014,"o":"m 968 173 q 640 49 828 49 q 292 193 436 49 q 147 543 147 338 q 292 891 147 747 q 640 1036 436 1036 q 968 911 828 1036 l 1014 954 q 640 1098 855 1098 q 247 935 410 1098 q 85 543 85 772 q 247 150 85 312 q 640 -13 410 -13 q 1014 132 855 -13 l 968 173 "},"Т":{"ha":678,"x_min":34,"x_max":644,"o":"m 370 1024 l 644 1024 l 644 1085 l 34 1085 l 34 1024 l 309 1024 l 309 0 l 370 0 l 370 1024 "},"У":{"ha":865,"x_min":-31,"x_max":896,"o":"m 896 1085 l 826 1085 l 455 450 l 39 1085 l -31 1085 l 422 392 l 326 235 q 173 52 214 64 q 146 48 160 48 q 81 66 115 48 l 52 13 q 123 -9 86 -9 q 250 43 182 -9 q 896 1085 360 130 "},"Ф":{"ha":1086,"x_min":46,"x_max":1040,"o":"m 512 266 q 226 344 331 271 q 112 533 112 422 q 226 722 112 644 q 512 800 331 794 l 512 266 m 573 199 q 907 297 783 205 q 1040 533 1040 395 q 907 770 1040 672 q 573 867 783 861 l 573 1084 l 512 1084 l 512 867 q 180 770 303 861 q 46 533 46 672 q 180 297 46 395 q 512 199 303 205 l 512 3 l 573 3 l 573 199 m 573 800 q 861 722 755 794 q 974 533 974 644 q 861 344 974 422 q 573 266 755 271 l 573 800 "},"Х":{"ha":826,"x_min":34,"x_max":792,"o":"m 34 0 l 103 0 l 412 536 l 722 0 l 792 0 l 447 596 l 730 1085 l 661 1085 l 412 656 l 165 1085 l 96 1085 l 378 596 l 34 0 "},"Ц":{"ha":876,"x_min":77,"x_max":861,"o":"m 800 0 l 800 -254 l 861 -254 l 861 66 l 804 66 l 804 1085 l 742 1085 l 742 61 l 138 61 l 138 1085 l 77 1085 l 77 0 l 800 0 "},"Ч":{"ha":842,"x_min":62,"x_max":780,"o":"m 720 705 q 635 537 711 610 q 425 452 551 456 l 413 452 q 213 533 294 452 q 128 779 128 618 l 129 1085 l 62 1085 l 62 785 q 161 493 62 586 q 417 399 259 399 q 677 493 575 399 q 720 539 701 515 l 720 0 l 780 0 l 780 1085 l 720 1085 l 720 705 "},"Ш":{"ha":1238,"x_min":77,"x_max":1162,"o":"m 77 1085 l 77 1 l 1162 1 l 1162 1085 l 1100 1085 l 1100 62 l 650 62 l 650 1085 l 589 1085 l 589 62 l 138 62 l 138 1085 l 77 1085 "},"Щ":{"ha":1240,"x_min":77,"x_max":1219,"o":"m 1158 1 l 1158 -254 l 1219 -254 l 1219 66 l 1162 66 l 1162 1085 l 1100 1085 l 1100 62 l 650 62 l 650 1085 l 589 1085 l 589 62 l 138 62 l 138 1085 l 77 1085 l 77 1 l 1158 1 "},"Ъ":{"ha":1023,"x_min":16,"x_max":951,"o":"m 276 572 l 275 572 l 275 510 l 276 510 l 276 61 l 275 61 l 275 0 l 691 0 q 877 83 804 2 q 951 290 951 165 q 877 488 951 408 q 691 572 804 569 l 337 572 l 337 1085 l 16 1085 l 16 1023 l 276 1023 l 276 572 m 337 510 l 686 510 q 830 442 770 510 q 890 289 890 374 q 830 130 890 199 q 686 61 770 61 l 337 61 l 337 510 "},"Ы":{"ha":1071,"x_min":71,"x_max":1001,"o":"m 1001 1085 l 940 1085 l 940 0 l 1001 0 l 1001 1085 m 71 0 l 493 0 q 680 83 606 2 q 753 290 753 165 q 680 488 753 408 q 493 572 606 569 l 133 572 l 133 1085 l 71 1085 l 71 0 m 133 510 l 488 510 q 633 442 572 510 q 693 289 693 374 q 633 130 693 199 q 488 61 572 61 l 133 61 l 133 510 "},"Ь":{"ha":791,"x_min":71,"x_max":753,"o":"m 71 0 l 493 0 q 680 83 606 2 q 753 290 753 165 q 680 488 753 408 q 493 572 606 569 l 133 572 l 133 1085 l 71 1085 l 71 0 m 133 510 l 488 510 q 633 442 572 510 q 693 289 693 374 q 633 130 693 199 q 488 61 572 61 l 133 61 l 133 510 "},"Э":{"ha":1203,"x_min":47,"x_max":1134,"o":"m 1071 574 l 403 574 l 403 513 l 1071 513 q 927 194 1061 328 q 578 49 782 49 q 228 194 373 49 q 113 367 149 271 l 47 367 q 183 151 87 246 q 578 -13 347 -13 q 971 150 808 -13 q 1134 544 1134 313 q 971 937 1134 774 q 578 1100 808 1100 q 183 938 347 1100 q 102 836 136 889 l 178 836 q 228 893 200 865 q 578 1038 373 1038 q 927 893 782 1038 q 1071 574 1061 759 "},"Ю":{"ha":1566,"x_min":77,"x_max":1518,"o":"m 962 1038 q 1311 893 1166 1038 q 1456 544 1456 748 q 1311 194 1456 339 q 962 49 1166 49 q 612 194 758 49 q 467 544 467 339 q 612 893 467 748 q 962 1038 758 1038 m 406 512 q 568 151 416 302 q 962 -13 731 -13 q 1355 150 1192 -13 q 1518 544 1518 313 q 1355 937 1518 774 q 962 1100 1192 1100 q 568 938 731 1100 q 406 573 416 785 l 138 573 l 138 1085 l 77 1085 l 77 0 l 138 0 l 138 512 l 406 512 "},"Я":{"ha":738,"x_min":62,"x_max":661,"o":"m 416 1023 l 600 1023 l 600 438 l 416 438 q 209 524 295 438 q 123 731 123 609 q 209 938 123 852 q 416 1023 295 1023 m 155 0 l 397 376 q 416 376 406 376 l 600 376 l 600 0 l 661 0 l 661 1085 l 376 1085 q 165 981 252 1068 q 62 731 62 877 q 165 480 62 584 q 330 386 237 408 l 80 0 l 155 0 "},"а":{"ha":922,"x_min":85,"x_max":821,"o":"m 821 0 l 821 666 l 760 666 l 760 572 q 721 617 742 595 q 457 726 612 726 q 194 617 303 726 q 85 353 85 508 q 194 90 85 199 q 457 -19 303 -19 q 721 90 612 -19 q 760 136 742 112 l 760 0 l 821 0 m 760 293 q 675 136 743 204 q 457 46 585 46 q 239 136 330 46 q 149 353 149 226 q 239 571 149 481 q 457 661 330 661 q 675 571 585 661 q 760 414 743 503 l 760 293 "},"б":{"ha":904,"x_min":75,"x_max":849,"o":"m 259 571 q 477 661 349 661 q 694 571 604 661 q 785 353 785 480 q 694 136 785 225 q 477 46 604 46 q 259 136 349 46 q 169 353 169 225 q 214 525 169 480 q 259 571 259 571 m 139 512 q 138 559 138 536 q 220 864 138 743 q 479 1021 326 1021 q 549 1014 513 1021 q 696 994 640 994 q 781 1021 763 994 l 781 1082 q 692 1053 763 1053 q 538 1073 633 1053 q 468 1080 503 1080 q 176 909 302 1080 q 75 556 75 772 q 100 319 75 448 l 106 319 q 214 90 117 187 q 477 -19 323 -19 q 740 90 631 -19 q 849 353 849 199 q 740 617 849 508 q 477 726 631 726 q 214 617 323 726 q 139 512 166 568 "},"в":{"ha":579,"x_min":77,"x_max":526,"o":"m 137 368 l 137 606 l 327 606 l 327 606 q 428 567 393 602 q 464 487 464 531 q 428 407 464 443 q 327 368 393 371 l 327 368 l 137 368 m 137 300 l 327 300 l 327 299 q 428 260 393 296 q 464 180 464 224 q 428 101 464 136 q 327 62 393 65 l 327 61 l 137 61 l 137 300 m 77 667 l 77 0 l 329 0 l 329 1 q 471 59 417 5 q 526 180 526 113 l 526 181 q 472 303 526 248 q 431 334 452 321 q 472 365 452 346 q 526 486 526 419 l 526 487 q 471 609 526 555 q 329 667 417 663 l 329 667 l 77 667 "},"г":{"ha":466,"x_min":77,"x_max":412,"o":"m 137 604 l 412 604 l 412 666 l 77 666 l 77 0 l 137 0 l 137 604 "},"д":{"ha":728,"x_min":39,"x_max":690,"o":"m 636 66 l 636 666 l 224 666 q 235 604 231 636 q 241 495 241 553 q 96 69 241 213 q 93 66 95 68 l 39 66 l 39 -254 l 99 -254 l 99 0 l 629 0 l 629 -254 l 690 -254 l 690 66 l 636 66 m 173 61 q 302 495 302 220 q 297 604 302 553 l 576 604 l 576 61 l 173 61 "},"е":{"ha":798,"x_min":61,"x_max":737,"o":"m 229 125 l 663 559 l 709 605 q 697 617 703 611 q 665 647 681 633 q 433 726 566 726 q 170 617 279 726 q 61 354 61 508 q 170 90 61 199 q 433 -19 279 -19 q 697 90 588 -19 q 737 137 720 113 l 673 160 q 651 136 663 148 q 433 46 561 46 q 229 125 315 46 m 618 600 l 187 170 q 126 354 126 249 q 216 571 126 481 q 433 661 307 661 q 618 600 538 661 "},"ж":{"ha":917,"x_min":-9,"x_max":926,"o":"m 489 361 l 489 666 l 427 666 l 427 361 l 166 666 l 88 666 l 252 463 l -9 0 l 66 0 l 292 414 l 427 264 l 427 0 l 489 0 l 489 264 l 625 414 l 850 0 l 926 0 l 664 463 l 829 666 l 750 666 l 489 361 "},"з":{"ha":581,"x_min":45,"x_max":527,"o":"m 417 335 q 456 360 437 346 q 527 489 527 414 q 456 617 527 564 q 286 671 385 671 q 115 618 186 671 q 45 503 52 569 l 111 503 q 161 583 117 549 q 286 621 213 621 q 410 583 359 621 q 461 489 461 544 q 410 395 461 433 q 363 369 389 379 l 189 369 l 189 309 l 342 309 q 410 276 379 298 q 461 182 461 237 q 410 88 461 127 q 286 49 359 49 q 161 88 213 49 q 110 182 110 127 l 110 189 l 45 189 l 45 182 q 115 53 45 106 q 286 -1 186 -1 q 456 53 385 -1 q 527 182 527 106 q 456 311 527 257 q 417 335 437 324 "},"и":{"ha":690,"x_min":69,"x_max":621,"o":"m 69 666 l 69 0 l 130 0 l 130 1 l 560 569 l 560 0 l 621 0 l 621 666 l 555 666 l 130 102 l 130 666 l 69 666 "},"й":{"ha":690,"x_min":69,"x_max":621,"o":"m 69 666 l 69 0 l 130 0 l 130 1 l 560 569 l 560 0 l 621 0 l 621 666 l 555 666 l 130 102 l 130 666 l 69 666 m 236 907 l 186 907 q 233 810 189 855 q 346 764 279 764 q 458 810 412 764 q 505 907 499 851 l 455 907 q 424 846 450 871 q 346 813 391 813 q 267 846 300 813 q 236 907 241 871 "},"к":{"ha":566,"x_min":77,"x_max":575,"o":"m 478 666 l 399 666 l 138 361 l 138 666 l 77 666 l 77 0 l 138 0 l 138 263 l 274 414 l 500 0 l 575 0 l 314 463 l 478 666 "},"л":{"ha":755,"x_min":39,"x_max":686,"o":"m 686 666 l 121 666 l 121 152 q 39 60 121 69 l 39 -1 q 181 153 181 11 l 181 604 l 626 604 l 626 0 l 686 0 l 686 666 "},"м":{"ha":751,"x_min":62,"x_max":690,"o":"m 376 91 l 127 666 l 62 666 l 62 0 l 122 0 l 122 515 l 346 0 l 406 0 l 629 515 l 629 0 l 690 0 l 690 666 l 625 666 l 376 91 "},"н":{"ha":688,"x_min":62,"x_max":627,"o":"m 627 0 l 627 666 l 567 666 l 567 391 l 122 391 l 122 666 l 62 666 l 62 0 l 122 0 l 122 330 l 567 330 l 567 0 l 627 0 "},"о":{"ha":867,"x_min":61,"x_max":806,"o":"m 433 726 q 170 617 279 726 q 61 353 61 508 q 170 90 61 199 q 433 -19 279 -19 q 697 90 588 -19 q 806 353 806 199 q 697 617 806 508 q 433 726 588 726 m 433 661 q 651 571 561 661 q 741 353 741 481 q 651 136 741 226 q 433 46 561 46 q 216 136 306 46 q 125 353 125 226 q 216 571 125 481 q 433 661 306 661 "},"п":{"ha":704,"x_min":69,"x_max":635,"o":"m 130 604 l 574 604 l 574 0 l 635 0 l 635 666 l 69 666 l 69 0 l 130 0 l 130 604 "},"р":{"ha":905,"x_min":102,"x_max":837,"o":"m 102 666 l 102 -254 l 163 -254 l 163 135 q 201 90 180 112 q 465 -19 311 -19 q 728 90 619 -19 q 837 353 837 199 q 728 617 837 508 q 465 726 619 726 q 201 617 311 726 q 163 572 180 595 l 163 666 l 102 666 m 163 417 q 247 571 180 505 q 465 661 337 661 q 682 571 592 661 q 772 353 772 481 q 682 136 772 226 q 465 45 592 45 q 247 136 337 45 q 163 290 180 202 l 163 417 "},"с":{"ha":798,"x_min":61,"x_max":737,"o":"m 673 160 q 651 136 663 148 q 433 46 561 46 q 216 136 307 46 q 126 354 126 227 q 216 571 126 481 q 433 661 307 661 q 651 572 561 661 q 673 547 663 559 l 737 571 q 697 617 720 595 q 433 726 588 726 q 170 617 279 726 q 61 354 61 508 q 170 90 61 199 q 433 -19 279 -19 q 697 90 588 -19 q 737 137 720 113 l 673 160 "},"т":{"ha":733,"x_min":62,"x_max":672,"o":"m 397 604 l 672 604 l 672 666 l 62 666 l 62 604 l 336 604 l 336 0 l 397 0 l 397 604 "},"у":{"ha":597,"x_min":12,"x_max":586,"o":"m 157 -254 l 586 666 l 518 666 l 298 201 l 80 666 l 12 666 l 264 123 l 89 -254 l 157 -254 "},"ф":{"ha":1510,"x_min":54,"x_max":1456,"o":"m 785 429 q 867 571 805 509 q 1084 661 957 661 q 1301 571 1211 661 q 1392 353 1392 480 q 1301 135 1392 225 q 1084 45 1211 45 q 867 136 957 45 q 785 277 805 197 l 785 429 m 724 277 q 643 136 705 197 q 426 45 553 45 q 208 135 298 45 q 118 353 118 225 q 208 571 118 480 q 426 661 298 661 q 643 571 553 661 q 724 429 705 509 l 724 277 m 785 575 l 785 949 l 724 949 l 724 575 q 689 617 708 597 q 426 725 579 725 q 162 616 271 725 q 54 353 54 508 q 162 90 54 199 q 426 -19 271 -19 q 689 90 579 -19 q 724 131 708 110 l 724 -243 l 785 -243 l 785 131 q 821 90 802 110 q 1084 -19 930 -19 q 1348 90 1239 -19 q 1456 353 1456 199 q 1348 616 1456 508 q 1084 725 1239 725 q 821 617 930 725 q 785 575 802 597 "},"х":{"ha":489,"x_min":0,"x_max":508,"o":"m 218 352 l 0 0 l 71 0 l 254 294 l 437 0 l 508 0 l 290 352 l 485 666 l 414 666 l 254 409 l 94 666 l 23 666 l 218 352 "},"ц":{"ha":728,"x_min":77,"x_max":696,"o":"m 635 0 l 635 -254 l 696 -254 l 696 66 l 642 66 l 642 666 l 582 666 l 582 61 l 137 61 l 137 666 l 77 666 l 77 0 l 635 0 "},"ч":{"ha":811,"x_min":54,"x_max":741,"o":"m 680 551 q 604 384 673 456 q 401 299 528 303 l 389 299 q 197 380 271 299 q 120 626 120 464 l 121 671 l 54 671 l 54 632 q 145 340 54 433 q 393 245 235 245 q 646 340 551 245 q 680 380 665 358 l 680 0 l 741 0 l 741 671 l 680 671 l 680 551 "},"ш":{"ha":916,"x_min":69,"x_max":847,"o":"m 69 666 l 69 1 l 847 1 l 847 666 l 786 666 l 786 62 l 489 62 l 489 666 l 427 666 l 427 62 l 131 62 l 131 666 l 69 666 "},"щ":{"ha":950,"x_min":84,"x_max":920,"o":"m 859 1 l 859 -254 l 920 -254 l 920 66 l 862 66 l 862 666 l 801 666 l 801 62 l 504 62 l 504 666 l 442 666 l 442 62 l 146 62 l 146 666 l 84 666 l 84 1 l 859 1 "},"ъ":{"ha":814,"x_min":23,"x_max":753,"o":"m 195 0 l 541 0 l 541 1 q 690 58 629 5 q 753 195 753 113 l 753 196 q 690 334 753 279 q 541 391 629 387 l 541 392 l 256 392 l 256 666 l 23 666 l 23 604 l 195 604 l 195 0 m 256 61 l 256 331 l 538 331 l 538 330 q 648 292 605 327 q 692 195 692 256 q 648 101 692 136 q 538 62 605 65 l 538 61 l 256 61 "},"ы":{"ha":981,"x_min":77,"x_max":905,"o":"m 137 61 l 137 331 l 497 331 l 497 330 q 607 292 563 327 q 650 195 650 256 q 607 101 650 136 q 497 62 563 65 l 497 61 l 137 61 m 905 0 l 905 666 l 844 666 l 844 0 l 905 0 m 77 0 l 499 0 l 499 1 q 649 58 588 5 q 711 195 711 113 l 711 196 q 649 334 711 279 q 499 391 588 387 l 499 392 l 137 392 l 137 666 l 77 666 l 77 0 "},"ь":{"ha":688,"x_min":77,"x_max":635,"o":"m 137 61 l 137 331 l 420 331 l 420 330 q 530 292 486 327 q 573 195 573 256 q 530 101 573 136 q 420 62 486 65 l 420 61 l 137 61 m 77 0 l 422 0 l 422 1 q 572 58 511 5 q 635 195 635 113 l 635 196 q 572 334 635 279 q 422 391 511 387 l 422 392 l 137 392 l 137 666 l 77 666 l 77 0 "},"э":{"ha":830,"x_min":55,"x_max":772,"o":"m 693 450 l 288 450 l 288 387 l 705 387 q 707 353 707 371 q 617 136 707 225 q 399 46 527 46 q 191 127 279 46 l 101 127 q 136 90 114 111 q 399 -19 244 -19 q 662 90 553 -19 q 772 353 772 199 q 662 617 772 508 q 399 726 553 726 q 136 617 244 726 q 55 488 78 559 l 123 488 q 182 571 144 534 q 399 661 272 661 q 617 571 527 661 q 693 450 671 516 "},"ю":{"ha":1166,"x_min":77,"x_max":1112,"o":"m 522 571 q 740 661 612 661 q 957 571 867 661 q 1047 353 1047 480 q 957 136 1047 225 q 740 46 867 46 q 522 136 612 46 q 432 353 432 225 q 477 525 432 480 q 522 571 522 571 m 368 330 q 477 90 376 191 q 740 -19 586 -19 q 1003 90 895 -19 q 1112 353 1112 199 q 1003 617 1112 508 q 740 726 895 726 q 477 617 586 726 q 369 391 381 522 l 137 391 l 137 666 l 77 666 l 77 0 l 137 0 l 137 330 l 368 330 "},"я":{"ha":612,"x_min":54,"x_max":534,"o":"m 474 604 l 474 335 l 268 335 l 268 336 q 159 375 201 339 q 115 470 115 410 q 159 566 115 530 q 268 604 201 601 l 268 604 l 474 604 m 534 666 l 265 666 l 265 665 q 116 608 177 661 q 54 470 54 553 l 54 469 q 116 332 54 387 q 245 276 170 285 l 116 0 l 183 0 l 257 159 l 296 242 l 311 274 l 474 274 l 474 0 l 534 0 l 534 666 "},"ё":{"ha":798,"x_min":61,"x_max":737,"o":"m 229 125 l 663 559 l 709 605 q 697 617 703 611 q 665 647 681 633 q 433 726 566 726 q 170 617 279 726 q 61 354 61 508 q 170 90 61 199 q 433 -19 279 -19 q 697 90 588 -19 q 737 137 720 113 l 673 160 q 651 136 663 148 q 433 46 561 46 q 229 125 315 46 m 618 600 l 187 170 q 126 354 126 249 q 216 571 126 481 q 433 661 307 661 q 618 600 538 661 m 298 902 q 255 884 273 902 q 237 842 237 867 q 255 798 237 816 q 298 781 273 781 q 341 798 323 781 q 359 842 359 816 q 341 884 359 867 q 298 902 323 902 m 501 902 q 458 884 476 902 q 440 842 440 867 q 458 798 440 816 q 501 781 476 781 q 544 798 526 781 q 562 842 562 816 q 544 884 562 867 q 501 902 526 902 "},"ђ":{"ha":684,"x_min":16,"x_max":607,"o":"m 546 439 l 546 -31 q 508 -134 546 -97 q 413 -173 469 -173 l 413 -234 q 551 -178 495 -234 q 607 -39 607 -121 l 607 446 q 531 632 605 557 q 339 706 457 706 q 154 631 231 706 l 154 870 l 302 870 l 302 930 l 154 930 l 154 1085 l 92 1085 l 92 930 l 16 930 l 16 870 l 92 870 l 92 0 l 154 0 l 154 530 q 195 585 167 559 q 339 644 255 644 q 485 585 423 644 q 546 439 546 525 "},"ѓ":{"ha":466,"x_min":77,"x_max":412,"o":"m 137 604 l 412 604 l 412 666 l 77 666 l 77 0 l 137 0 l 137 604 m 393 941 l 281 941 l 170 814 l 227 814 l 393 941 "},"є":{"ha":830,"x_min":55,"x_max":772,"o":"m 538 450 l 133 450 q 209 571 155 516 q 427 661 300 661 q 645 571 555 661 q 703 488 682 534 l 772 488 q 691 617 749 559 q 427 726 582 726 q 164 617 273 726 q 55 353 55 508 q 164 90 55 199 q 427 -19 273 -19 q 691 90 582 -19 q 726 127 713 111 l 635 127 q 427 46 547 46 q 210 136 300 46 q 119 353 119 225 q 121 387 119 371 l 538 387 l 538 450 "},"ѕ":{"ha":544,"x_min":78,"x_max":473,"o":"m 285 342 q 372 279 351 300 q 412 182 412 239 q 372 85 412 125 q 275 45 332 45 q 179 85 219 45 q 138 184 138 125 l 78 169 q 136 42 78 100 q 275 -16 193 -16 q 415 42 357 -16 q 473 182 473 100 q 415 321 473 263 q 292 406 378 358 q 220 457 237 440 q 191 527 191 486 q 220 597 191 568 q 290 626 249 626 q 356 600 331 626 q 389 523 382 574 l 441 544 l 441 547 q 399 644 441 602 q 290 688 356 688 q 177 641 224 688 q 130 527 130 593 q 177 414 130 461 q 285 342 207 385 "},"і":{"ha":292,"x_min":85,"x_max":207,"o":"m 176 666 l 115 666 l 115 0 l 176 0 l 176 666 m 146 902 q 103 884 121 902 q 85 842 85 867 q 103 798 85 816 q 146 781 121 781 q 189 798 171 781 q 207 842 207 816 q 189 884 207 867 q 146 902 171 902 "},"ї":{"ha":292,"x_min":-17,"x_max":309,"o":"m 176 666 l 115 666 l 115 0 l 176 0 l 176 666 m 44 902 q 1 884 19 902 q -17 842 -17 867 q 1 798 -17 816 q 44 781 19 781 q 87 798 69 781 q 105 842 105 816 q 87 884 105 867 q 44 902 69 902 m 248 902 q 204 884 222 902 q 186 842 186 867 q 204 798 186 816 q 248 781 222 781 q 291 798 273 781 q 309 842 309 816 q 291 884 309 867 q 248 902 273 902 "},"ј":{"ha":309,"x_min":33,"x_max":207,"o":"m 33 -94 l 33 -155 q 176 0 176 -143 l 176 666 l 115 666 l 115 -1 q 33 -94 115 -84 m 146 902 q 103 884 121 902 q 85 842 85 867 q 103 798 85 816 q 146 781 121 781 q 189 798 171 781 q 207 842 207 816 q 189 884 207 867 q 146 902 171 902 "},"љ":{"ha":1240,"x_min":40,"x_max":1186,"o":"m 689 61 l 689 331 l 972 331 l 972 330 q 1082 292 1038 327 q 1125 195 1125 256 q 1082 101 1125 136 q 972 62 1038 65 l 972 61 l 689 61 m 627 604 l 627 0 l 975 0 l 975 1 q 1124 58 1063 5 q 1186 195 1186 113 l 1186 196 q 1124 334 1186 279 q 975 391 1063 387 l 975 392 l 688 393 l 688 666 l 122 666 l 122 152 q 40 60 122 69 l 40 -1 q 182 153 182 11 l 182 604 l 627 604 "},"њ":{"ha":1185,"x_min":69,"x_max":1132,"o":"m 635 61 l 635 331 l 918 331 l 918 330 q 1027 292 984 327 q 1071 195 1071 256 q 1027 101 1071 136 q 918 62 984 65 l 918 61 l 635 61 m 574 0 l 920 0 l 920 1 q 1069 58 1008 5 q 1132 195 1132 113 l 1132 196 q 1069 334 1132 279 q 920 391 1008 387 l 920 392 l 635 392 l 635 666 l 574 666 l 574 391 l 130 391 l 130 666 l 69 666 l 69 0 l 130 0 l 130 330 l 574 330 l 574 0 "},"ћ":{"ha":684,"x_min":16,"x_max":607,"o":"m 92 930 l 16 930 l 16 870 l 92 870 l 92 0 l 154 0 l 154 530 q 195 585 167 559 q 339 644 255 644 q 485 585 423 644 q 546 439 546 525 l 546 0 l 607 0 l 607 446 q 531 632 605 557 q 339 706 457 706 q 154 631 231 706 l 154 870 l 302 870 l 302 930 l 154 930 l 154 1085 l 92 1085 l 92 930 "},"ќ":{"ha":566,"x_min":77,"x_max":575,"o":"m 478 666 l 399 666 l 138 361 l 138 666 l 77 666 l 77 0 l 138 0 l 138 263 l 274 414 l 500 0 l 575 0 l 314 463 l 478 666 m 398 935 l 286 935 l 175 808 l 232 808 l 398 935 "},"ў":{"ha":682,"x_min":51,"x_max":631,"o":"m 341 60 l 341 59 l 631 666 l 562 666 l 341 189 l 120 666 l 51 666 l 311 123 l 131 -254 l 191 -254 l 341 60 m 232 907 l 182 907 q 229 810 184 855 q 342 764 275 764 q 454 810 408 764 q 500 907 495 851 l 451 907 q 420 846 446 871 q 342 813 387 813 q 263 846 296 813 q 232 907 237 871 "},"џ":{"ha":704,"x_min":69,"x_max":635,"o":"m 321 0 l 321 -254 l 382 -254 l 382 0 l 635 0 l 635 666 l 574 666 l 574 61 l 130 61 l 130 666 l 69 666 l 69 0 l 321 0 "},"Ґ":{"ha":642,"x_min":86,"x_max":604,"o":"m 561 1025 l 604 1025 l 604 1269 l 543 1269 l 543 1085 l 86 1085 l 86 0 l 148 0 l 148 1023 l 561 1023 l 561 1025 "},"ґ":{"ha":492,"x_min":77,"x_max":454,"o":"m 137 604 l 454 604 l 454 849 l 393 849 l 393 666 l 77 666 l 77 0 l 137 0 l 137 604 "},"Ẁ":{"ha":1134,"x_min":85,"x_max":1049,"o":"m 536 163 q 498 111 521 134 q 353 52 437 52 q 207 112 269 52 q 146 256 146 172 l 146 1085 l 85 1085 l 85 251 q 163 69 87 145 q 353 -9 241 -9 q 542 68 463 -9 q 567 96 556 82 q 592 68 578 82 q 781 -9 671 -9 q 971 69 892 -9 q 1049 251 1047 145 l 1049 1085 l 988 1085 l 988 256 q 927 112 988 172 q 781 52 865 52 q 636 111 697 52 q 597 163 613 134 l 597 1085 l 536 1085 l 536 163 m 531 1360 l 418 1360 l 585 1233 l 642 1233 l 531 1360 "},"ẁ":{"ha":932,"x_min":102,"x_max":831,"o":"m 435 176 q 396 92 431 126 q 299 52 355 52 q 203 92 243 52 q 162 182 165 129 l 163 182 l 163 666 l 102 666 l 102 182 q 159 49 104 104 q 299 -9 217 -9 q 439 49 381 -9 q 467 81 455 64 q 494 49 478 64 q 633 -9 551 -9 q 773 49 715 -9 q 831 182 828 104 l 831 666 l 770 666 l 770 182 l 770 182 q 730 92 768 129 q 633 52 690 52 q 537 92 577 52 q 496 191 496 132 l 496 666 l 435 666 l 435 176 m 430 941 l 317 941 l 484 814 l 541 814 l 430 941 "},"Ẃ":{"ha":1134,"x_min":85,"x_max":1049,"o":"m 536 163 q 498 111 521 134 q 353 52 437 52 q 207 112 269 52 q 146 256 146 172 l 146 1085 l 85 1085 l 85 251 q 163 69 87 145 q 353 -9 241 -9 q 542 68 463 -9 q 567 96 556 82 q 592 68 578 82 q 781 -9 671 -9 q 971 69 892 -9 q 1049 251 1047 145 l 1049 1085 l 988 1085 l 988 256 q 927 112 988 172 q 781 52 865 52 q 636 111 697 52 q 597 163 613 134 l 597 1085 l 536 1085 l 536 163 m 715 1360 l 603 1360 l 492 1233 l 549 1233 l 715 1360 "},"ẃ":{"ha":932,"x_min":102,"x_max":831,"o":"m 435 176 q 396 92 431 126 q 299 52 355 52 q 203 92 243 52 q 162 182 165 129 l 163 182 l 163 666 l 102 666 l 102 182 q 159 49 104 104 q 299 -9 217 -9 q 439 49 381 -9 q 467 81 455 64 q 494 49 478 64 q 633 -9 551 -9 q 773 49 715 -9 q 831 182 828 104 l 831 666 l 770 666 l 770 182 l 770 182 q 730 92 768 129 q 633 52 690 52 q 537 92 577 52 q 496 191 496 132 l 496 666 l 435 666 l 435 176 m 615 941 l 503 941 l 392 814 l 449 814 l 615 941 "},"Ẅ":{"ha":1134,"x_min":85,"x_max":1049,"o":"m 536 163 q 498 111 521 134 q 353 52 437 52 q 207 112 269 52 q 146 256 146 172 l 146 1085 l 85 1085 l 85 251 q 163 69 87 145 q 353 -9 241 -9 q 542 68 463 -9 q 567 96 556 82 q 592 68 578 82 q 781 -9 671 -9 q 971 69 892 -9 q 1049 251 1047 145 l 1049 1085 l 988 1085 l 988 256 q 927 112 988 172 q 781 52 865 52 q 636 111 697 52 q 597 163 613 134 l 597 1085 l 536 1085 l 536 163 m 465 1321 q 422 1303 440 1321 q 404 1261 404 1286 q 422 1217 404 1235 q 465 1200 440 1200 q 508 1217 490 1200 q 526 1261 526 1235 q 508 1303 526 1286 q 465 1321 490 1321 m 669 1321 q 626 1303 644 1321 q 608 1261 608 1286 q 626 1217 608 1235 q 669 1200 644 1200 q 712 1217 694 1200 q 730 1261 730 1235 q 712 1303 730 1286 q 669 1321 694 1321 "},"ẅ":{"ha":932,"x_min":102,"x_max":831,"o":"m 435 176 q 396 92 431 126 q 299 52 355 52 q 203 92 243 52 q 162 182 165 129 l 163 182 l 163 666 l 102 666 l 102 182 q 159 49 104 104 q 299 -9 217 -9 q 439 49 381 -9 q 467 81 455 64 q 494 49 478 64 q 633 -9 551 -9 q 773 49 715 -9 q 831 182 828 104 l 831 666 l 770 666 l 770 182 l 770 182 q 730 92 768 129 q 633 52 690 52 q 537 92 577 52 q 496 191 496 132 l 496 666 l 435 666 l 435 176 m 365 902 q 322 884 340 902 q 304 842 304 867 q 322 798 304 816 q 365 781 340 781 q 408 798 390 781 q 426 842 426 816 q 408 884 426 867 q 365 902 390 902 m 568 902 q 525 884 543 902 q 507 842 507 867 q 525 798 507 816 q 568 781 543 781 q 611 798 593 781 q 629 842 629 816 q 611 884 629 867 q 568 902 593 902 "},"Ỳ":{"ha":876,"x_min":34,"x_max":842,"o":"m 407 439 l 407 0 l 468 0 l 468 439 l 842 1085 l 772 1085 l 437 507 l 104 1085 l 34 1085 l 407 439 m 401 1360 l 289 1360 l 455 1233 l 512 1233 l 401 1360 "},"ỳ":{"ha":682,"x_min":51,"x_max":631,"o":"m 341 60 l 341 59 l 631 666 l 562 666 l 341 189 l 120 666 l 51 666 l 311 123 l 131 -254 l 191 -254 l 341 60 m 304 941 l 192 941 l 358 814 l 415 814 l 304 941 "},"–":{"ha":591,"x_min":34,"x_max":557,"o":"m 34 432 l 34 371 l 557 371 l 557 432 l 34 432 "},"—":{"ha":1022,"x_min":34,"x_max":988,"o":"m 34 432 l 34 371 l 988 371 l 988 432 l 34 432 "},"―":{"ha":2083,"x_min":-51,"x_max":1381,"o":"m -51 432 l -51 371 l 1381 371 l 1381 432 l -51 432 "},"‗":{"ha":712,"x_min":17,"x_max":695,"o":"m 17 -173 l 17 -234 l 695 -234 l 695 -173 l 17 -173 m 17 -20 l 17 -81 l 695 -81 l 695 -20 l 17 -20 "},"‘":{"ha":190,"x_min":34,"x_max":156,"o":"m 111 991 l 149 1093 l 105 1093 l 39 958 q 34 932 34 946 q 52 889 34 907 q 95 871 70 871 q 138 889 120 871 q 156 932 156 907 q 138 975 156 958 q 111 991 126 987 "},"’":{"ha":190,"x_min":34,"x_max":156,"o":"m 79 973 l 41 871 l 85 871 l 151 1006 q 156 1032 156 1018 q 138 1075 156 1057 q 95 1093 120 1093 q 52 1075 70 1093 q 34 1032 34 1057 q 52 989 34 1006 q 79 973 64 977 "},"‚":{"ha":190,"x_min":34,"x_max":156,"o":"m 79 -9 l 41 -111 l 85 -111 l 151 24 q 156 50 156 36 q 138 93 156 75 q 95 111 120 111 q 52 93 70 111 q 34 50 34 75 q 52 7 34 24 q 79 -9 64 -5 "},"‛":{"ha":190,"x_min":224,"x_max":346,"o":"m 339 871 l 300 973 q 328 989 316 977 q 346 1032 346 1006 q 328 1075 346 1057 q 285 1093 310 1093 q 242 1075 260 1093 q 224 1032 224 1057 q 229 1006 224 1018 l 295 871 l 339 871 "},"“":{"ha":361,"x_min":34,"x_max":327,"o":"m 111 991 l 149 1093 l 105 1093 l 39 958 q 34 932 34 946 q 52 889 34 907 q 95 871 70 871 q 138 889 120 871 q 156 932 156 907 q 138 975 156 958 q 111 991 126 987 m 281 991 l 320 1093 l 276 1093 l 210 958 q 205 932 205 946 q 223 889 205 907 q 266 871 241 871 q 309 889 291 871 q 327 932 327 907 q 309 975 327 958 q 281 991 297 987 "},"”":{"ha":361,"x_min":34,"x_max":327,"o":"m 79 973 l 41 871 l 85 871 l 151 1006 q 156 1032 156 1018 q 138 1075 156 1057 q 95 1093 120 1093 q 52 1075 70 1093 q 34 1032 34 1057 q 52 989 34 1006 q 79 973 64 977 m 250 973 l 212 871 l 256 871 l 322 1006 q 327 1032 327 1018 q 309 1075 327 1057 q 266 1093 291 1093 q 223 1075 241 1093 q 205 1032 205 1057 q 223 989 205 1006 q 250 973 235 977 "},"„":{"ha":361,"x_min":34,"x_max":327,"o":"m 79 -9 l 41 -111 l 85 -111 l 151 24 q 156 50 156 36 q 138 93 156 75 q 95 111 120 111 q 52 93 70 111 q 34 50 34 75 q 52 7 34 24 q 79 -9 64 -5 m 250 -9 l 212 -111 l 256 -111 l 322 24 q 327 50 327 36 q 309 93 327 75 q 266 111 291 111 q 223 93 241 111 q 205 50 205 75 q 223 7 205 24 q 250 -9 235 -5 "},"†":{"ha":514,"x_min":68,"x_max":446,"o":"m 237 1082 l 68 1082 l 68 1043 l 237 1043 l 237 117 l 277 117 l 277 1043 l 446 1043 l 446 1082 l 277 1082 l 277 1230 l 237 1230 l 237 1082 "},"‡":{"ha":514,"x_min":68,"x_max":446,"o":"m 237 1043 l 237 714 l 68 714 l 68 675 l 237 675 l 237 117 l 277 117 l 277 675 l 446 675 l 446 714 l 277 714 l 277 1043 l 446 1043 l 446 1082 l 277 1082 l 277 1230 l 237 1230 l 237 1082 l 68 1082 l 68 1043 l 237 1043 "},"•":{"ha":514,"x_min":153,"x_max":361,"o":"m 258 607 q 184 577 215 607 q 153 504 153 547 q 184 431 153 461 q 258 401 215 401 q 330 431 299 401 q 361 504 361 461 q 330 577 361 547 q 258 607 299 607 "},"…":{"ha":1457,"x_min":68,"x_max":1116,"o":"m 129 112 q 86 94 104 112 q 68 52 68 77 q 86 8 68 26 q 129 -9 104 -9 q 172 8 154 -9 q 190 52 190 26 q 172 94 190 77 q 129 112 154 112 m 592 112 q 549 94 567 112 q 531 52 531 77 q 549 8 531 26 q 592 -9 567 -9 q 635 8 617 -9 q 653 52 653 26 q 635 94 653 77 q 592 112 617 112 m 1055 112 q 1012 94 1030 112 q 994 52 994 77 q 1012 8 994 26 q 1055 -9 1030 -9 q 1098 8 1080 -9 q 1116 52 1116 26 q 1098 94 1116 77 q 1055 112 1080 112 "},"‰":{"ha":1202,"x_min":54,"x_max":1147,"o":"m 751 891 l 701 926 l 78 37 l 128 2 l 751 891 m 211 824 q 100 778 146 824 q 54 667 54 732 q 100 556 54 602 q 211 511 146 511 q 322 556 276 511 q 368 667 368 602 q 322 778 368 732 q 211 824 276 824 m 211 765 q 280 736 251 765 q 309 667 309 708 q 280 598 309 627 q 211 570 251 570 q 142 598 170 570 q 113 667 113 627 q 142 736 113 708 q 211 765 170 765 m 618 417 q 507 371 553 417 q 461 260 461 326 q 507 150 461 195 q 618 104 553 104 q 729 150 683 104 q 774 260 774 195 q 729 371 774 326 q 618 417 683 417 m 618 358 q 687 330 658 358 q 715 260 715 301 q 687 191 715 220 q 618 163 658 163 q 549 191 577 163 q 520 260 520 220 q 549 330 520 301 q 618 358 577 358 m 991 417 q 880 371 926 417 q 834 260 834 326 q 880 150 834 195 q 991 104 926 104 q 1102 150 1056 104 q 1147 260 1147 195 q 1102 371 1147 326 q 991 417 1056 417 m 991 358 q 1060 330 1031 358 q 1088 260 1088 301 q 1060 191 1088 220 q 991 163 1031 163 q 922 191 950 163 q 893 260 893 220 q 922 330 893 301 q 991 358 950 358 "},"′":{"ha":231,"x_min":85,"x_max":146,"o":"m 85 676 l 146 676 l 146 1083 l 85 1083 l 85 676 "},"″":{"ha":353,"x_min":85,"x_max":268,"o":"m 85 676 l 146 676 l 146 1083 l 85 1083 l 85 676 m 207 676 l 268 676 l 268 1083 l 207 1083 l 207 676 "},"‹":{"ha":427,"x_min":68,"x_max":359,"o":"m 68 313 l 359 1 l 359 72 l 134 313 l 359 555 l 359 625 l 68 313 "},"›":{"ha":427,"x_min":68,"x_max":359,"o":"m 68 1 l 359 313 l 68 625 l 68 555 l 292 313 l 68 72 l 68 1 "},"‼":{"ha":583,"x_min":85,"x_max":498,"o":"m 146 112 q 103 94 121 112 q 85 52 85 77 q 103 8 85 26 q 146 -9 121 -9 q 189 8 171 -9 q 207 52 207 26 q 189 94 207 77 q 146 112 171 112 m 175 1085 l 114 1085 l 114 187 l 175 187 l 175 1085 m 437 112 q 394 94 412 112 q 376 52 376 77 q 394 8 376 26 q 437 -9 412 -9 q 480 8 463 -9 q 498 52 498 26 q 480 94 498 77 q 437 112 463 112 m 467 1085 l 406 1085 l 406 187 l 467 187 l 467 1085 "},"‾":{"ha":712,"x_min":17,"x_max":695,"o":"m 17 1227 l 17 1166 l 695 1166 l 695 1227 l 17 1227 "},"⁄":{"ha":62,"x_min":-271,"x_max":401,"o":"m 401 970 l 351 1004 l -271 115 l -221 81 l 401 970 "},"∕":{"ha":62,"x_min":-271,"x_max":401,"o":"m 401 970 l -221 81 l -271 115 l 351 1004 l 401 970 "},"ⁿ":{"ha":726,"x_min":102,"x_max":625,"o":"m 163 897 q 212 965 178 932 q 357 1024 273 1024 q 502 964 441 1024 q 564 819 564 904 l 564 379 l 625 379 l 625 825 q 549 1011 623 937 q 357 1085 475 1085 q 163 1002 246 1085 l 163 1045 l 102 1045 l 102 379 l 163 379 l 163 897 "},"₣":{"ha":686,"x_min":34,"x_max":618,"o":"m 144 317 l 34 317 l 34 256 l 144 256 l 144 0 l 205 0 l 205 256 l 400 256 l 400 317 l 205 317 l 205 512 l 618 512 l 618 573 l 205 573 l 205 1024 l 618 1024 l 618 1085 l 144 1085 l 144 317 "},"₤":{"ha":766,"x_min":68,"x_max":699,"o":"m 203 512 l 87 512 l 87 451 l 224 451 q 242 370 237 410 l 87 370 l 87 309 l 247 309 q 174 115 245 200 q 68 14 152 88 l 127 -56 q 264 3 193 -23 q 343 14 297 14 q 460 0 394 14 q 585 -15 524 -15 q 699 -1 644 -15 l 687 59 q 585 47 639 47 q 457 62 524 47 q 360 73 409 73 q 193 43 278 73 q 309 309 304 174 l 426 309 l 426 370 l 304 370 q 289 451 300 411 l 426 451 l 426 512 l 269 512 q 210 630 245 572 q 157 804 163 727 q 156 824 156 814 q 203 952 156 895 q 342 1024 258 1017 q 361 1025 351 1025 q 490 977 433 1025 q 562 840 554 923 q 563 821 563 830 q 553 756 563 785 l 611 736 q 626 814 626 771 q 624 844 626 828 q 530 1025 614 954 q 360 1087 454 1087 q 334 1086 347 1087 q 154 993 224 1076 q 92 824 92 918 q 93 798 92 811 q 178 566 102 688 q 203 512 191 539 "},"₧":{"ha":1258,"x_min":102,"x_max":1187,"o":"m 157 1023 l 323 1023 q 509 938 431 1023 q 586 731 586 852 q 509 524 586 610 q 323 438 431 438 l 157 438 l 157 1023 m 622 605 l 694 605 l 694 0 l 755 0 l 755 605 l 864 605 q 844 527 844 570 q 891 414 844 461 q 999 342 921 385 q 1086 279 1065 300 q 1126 182 1126 239 q 1086 85 1126 125 q 989 45 1046 45 q 893 85 933 45 q 852 184 852 125 l 792 169 q 850 42 792 100 q 989 -16 907 -16 q 1129 42 1072 -16 q 1187 182 1187 100 q 1129 321 1187 263 q 1006 406 1093 358 q 934 457 951 440 q 905 527 905 486 q 934 597 905 568 q 1004 626 963 626 q 1070 600 1045 626 q 1103 523 1096 574 l 1156 544 l 1156 547 q 1114 644 1156 602 q 1004 688 1070 688 q 923 666 959 688 l 755 666 l 755 949 l 694 949 l 694 666 l 637 666 q 642 731 642 697 q 548 981 642 878 q 358 1085 469 1068 l 102 1085 l 102 0 l 157 0 l 157 376 l 323 376 q 548 480 454 376 q 622 605 599 536 "},"€":{"ha":983,"x_min":68,"x_max":916,"o":"m 182 600 l 109 600 l 96 539 l 182 539 l 182 458 l 80 458 l 68 397 l 182 397 l 182 353 q 291 90 182 199 q 554 -19 400 -19 q 817 90 709 -19 q 916 262 892 165 l 849 262 q 772 136 827 192 q 554 46 682 46 q 336 136 427 46 q 246 353 246 226 l 246 397 l 651 397 l 663 458 l 246 458 l 246 539 l 680 539 l 692 600 l 246 600 l 246 713 q 336 930 246 840 q 554 1020 427 1020 q 772 930 682 1020 l 817 976 q 554 1085 709 1085 q 291 976 400 1085 q 182 713 182 867 l 182 600 "},"℅":{"ha":1341,"x_min":61,"x_max":1280,"o":"m 520 661 q 504 643 513 651 q 341 575 436 575 q 178 643 245 575 q 110 806 110 710 q 178 969 110 902 q 341 1036 245 1036 q 504 969 436 1036 q 520 951 513 960 l 568 969 q 538 1003 555 987 q 341 1085 457 1085 q 143 1003 225 1085 q 61 806 61 921 q 143 608 61 690 q 341 526 225 526 q 538 608 457 526 q 568 643 555 625 l 520 661 m 1015 970 l 965 1004 l 342 115 l 393 81 l 1015 970 m 1000 545 q 803 463 885 545 q 721 265 721 381 q 803 68 721 150 q 1000 -14 885 -14 q 1198 68 1116 -14 q 1280 265 1280 150 q 1198 463 1280 381 q 1000 545 1116 545 m 1000 496 q 1164 428 1096 496 q 1231 265 1231 361 q 1164 102 1231 169 q 1000 35 1096 35 q 837 102 905 35 q 770 265 770 169 q 837 428 770 361 q 1000 496 905 496 "},"№":{"ha":1393,"x_min":85,"x_max":1308,"o":"m 1284 1046 l 1284 642 l 827 642 l 827 618 l 1308 618 l 1308 1046 l 1284 1046 m 1019 767 q 913 806 950 770 q 874 901 874 845 q 913 996 874 957 q 1019 1036 950 1032 q 1124 996 1087 1032 q 1163 901 1163 957 q 1124 806 1163 845 q 1019 767 1087 770 m 1008 715 l 1028 715 q 1160 769 1106 715 q 1215 901 1215 824 q 1160 1033 1215 979 q 1028 1088 1106 1088 l 1008 1088 q 876 1033 930 1088 q 822 901 822 979 q 876 769 822 824 q 1008 715 930 715 m 85 1085 l 85 0 l 146 0 l 146 975 l 709 0 l 770 0 l 770 1085 l 709 1085 l 709 120 l 152 1085 l 85 1085 "},"™":{"ha":848,"x_min":68,"x_max":781,"o":"m 337 1055 l 337 646 l 375 646 l 375 1023 l 556 745 l 736 1023 l 736 646 l 774 646 l 774 1082 l 781 1090 l 736 1090 l 556 813 l 375 1090 l 68 1090 l 68 1055 l 191 1055 l 191 646 l 230 646 l 230 1055 l 337 1055 "},"Ω":{"ha":1080,"x_min":61,"x_max":1019,"o":"m 545 1085 l 535 1085 q 191 934 321 1085 q 61 526 61 783 q 164 209 61 337 q 351 60 268 81 l 130 60 l 130 0 l 493 0 l 493 60 q 234 213 347 94 q 122 526 122 332 q 235 896 122 758 q 538 1034 349 1034 l 542 1034 q 845 896 732 1034 q 958 526 958 758 q 846 213 958 332 q 587 60 734 94 l 587 0 l 950 0 l 950 60 l 730 60 q 916 209 812 81 q 1019 526 1019 337 q 889 934 1019 783 q 545 1085 760 1085 "},"←":{"ha":1227,"x_min":77,"x_max":1149,"o":"m 193 653 l 77 536 l 193 419 l 193 505 l 1149 505 l 1149 567 l 193 567 l 193 653 "},"↑":{"ha":694,"x_min":230,"x_max":464,"o":"m 464 959 l 347 1075 l 230 959 l 316 959 l 316 2 l 377 2 l 377 959 l 464 959 "},"→":{"ha":1227,"x_min":77,"x_max":1149,"o":"m 1149 536 l 1034 653 l 1034 567 l 77 567 l 77 505 l 1034 505 l 1034 419 l 1149 536 "},"↓":{"ha":694,"x_min":230,"x_max":464,"o":"m 347 2 l 464 118 l 377 118 l 377 1075 l 316 1075 l 316 118 l 230 118 l 347 2 "},"↔":{"ha":1227,"x_min":77,"x_max":1149,"o":"m 1034 567 l 193 567 l 193 653 l 77 536 l 193 419 l 193 505 l 1034 505 l 1034 419 l 1149 536 l 1034 653 l 1034 567 "},"↕":{"ha":1227,"x_min":496,"x_max":730,"o":"m 644 118 l 644 959 l 730 959 l 614 1075 l 496 959 l 583 959 l 583 118 l 496 118 l 614 2 l 730 118 l 644 118 "},"↨":{"ha":1227,"x_min":497,"x_max":731,"o":"m 645 118 l 645 959 l 731 959 l 614 1075 l 497 959 l 584 959 l 584 118 l 497 118 l 614 2 l 731 118 l 645 118 m 497 1141 l 497 1080 l 731 1080 l 731 1141 l 497 1141 m 497 0 l 497 -62 l 731 -62 l 731 0 l 497 0 "},"∂":{"ha":671,"x_min":39,"x_max":633,"o":"m 568 519 q 260 58 480 81 q 97 178 97 59 q 106 242 97 207 q 568 519 197 473 m 570 575 q 48 250 134 522 q 39 175 39 209 q 258 7 39 7 q 618 511 541 14 q 633 715 633 625 q 470 1062 633 1021 q 370 1075 417 1075 q 125 954 225 1075 l 154 898 q 376 1026 242 1026 q 431 1021 402 1026 q 575 697 575 994 q 570 575 575 642 "},"∆":{"ha":846,"x_min":-23,"x_max":846,"o":"m 23 1 l 23 0 l 846 0 l 446 1085 l 372 1085 l -23 1 l 23 1 m 759 61 l 64 61 l 409 1008 l 759 61 "},"∏":{"ha":899,"x_min":72,"x_max":827,"o":"m 134 1023 l 766 1023 l 766 -254 l 827 -254 l 827 1085 l 72 1085 l 72 -254 l 134 -254 l 134 1023 "},"∑":{"ha":804,"x_min":39,"x_max":734,"o":"m 734 1085 l 39 1085 l 346 416 l 39 -254 l 734 -254 l 734 -192 l 131 -192 l 414 416 l 131 1023 l 734 1023 l 734 1085 "},"−":{"ha":712,"x_min":85,"x_max":627,"o":"m 85 432 l 85 371 l 627 371 l 627 432 l 85 432 "},"√":{"ha":1041,"x_min":39,"x_max":1041,"o":"m 588 199 l 239 609 l 39 496 l 69 457 l 136 487 l 564 -54 l 1041 1180 l 976 1180 l 588 199 "},"∞":{"ha":821,"x_min":55,"x_max":765,"o":"m 716 553 q 670 404 716 451 q 557 357 623 357 q 441 403 491 357 q 375 534 393 447 q 441 667 393 622 q 557 712 491 712 q 670 665 623 712 q 716 553 716 618 m 765 553 q 704 699 765 638 q 557 760 643 760 q 407 701 471 760 q 346 606 363 659 q 301 660 337 626 q 204 693 266 693 q 99 649 142 693 q 55 543 55 606 q 99 421 55 464 q 204 378 142 378 q 301 411 266 378 q 346 463 337 444 q 407 369 363 410 q 557 310 471 310 q 704 371 643 310 q 765 553 765 431 m 102 536 q 132 614 102 585 q 204 644 161 644 q 277 615 246 644 q 323 534 307 586 q 277 455 307 484 q 204 426 246 426 q 132 456 161 426 q 102 536 102 486 "},"∫":{"ha":381,"x_min":24,"x_max":358,"o":"m 221 -54 l 221 973 q 358 1115 235 1111 l 357 1164 q 160 971 176 1164 l 160 -56 q 24 -190 153 -190 l 24 -246 q 221 -54 213 -246 "},"≈":{"ha":866,"x_min":85,"x_max":781,"o":"m 433 675 q 243 743 315 743 q 206 737 223 743 q 100 637 131 712 q 85 571 86 604 l 146 562 q 157 614 146 587 q 230 682 178 666 q 248 684 238 684 q 433 610 304 684 q 622 543 551 543 q 660 548 643 543 q 766 648 734 573 q 781 714 779 682 l 720 724 q 709 671 720 697 q 636 604 688 619 q 618 602 628 602 q 433 675 560 602 m 433 475 q 243 543 315 543 q 206 537 223 543 q 100 437 131 512 q 85 371 86 404 l 146 361 q 157 414 146 387 q 230 481 178 466 q 248 484 238 484 q 433 410 304 484 q 622 342 551 342 q 660 348 643 342 q 766 448 734 373 q 781 514 779 481 l 720 524 q 709 471 720 497 q 636 404 688 419 q 618 401 628 401 q 433 475 560 401 "},"≠":{"ha":712,"x_min":76,"x_max":637,"o":"m 85 541 l 85 479 l 628 479 l 628 541 l 85 541 m 85 323 l 85 262 l 628 262 l 628 323 l 85 323 m 567 673 l 76 130 l 145 130 l 637 673 l 567 673 "},"≡":{"ha":712,"x_min":85,"x_max":627,"o":"m 85 432 l 85 371 l 627 371 l 627 432 l 85 432 m 85 310 l 85 249 l 627 249 l 627 310 l 85 310 m 85 554 l 85 493 l 627 493 l 627 554 l 85 554 "},"≤":{"ha":915,"x_min":68,"x_max":847,"o":"m 847 98 l 847 163 l 246 382 l 847 600 l 847 665 l 68 382 l 847 98 m 101 61 l 101 0 l 847 0 l 847 61 l 101 61 "},"≥":{"ha":915,"x_min":68,"x_max":847,"o":"m 68 163 l 68 98 l 847 382 l 68 665 l 68 600 l 669 382 l 68 163 m 68 61 l 68 0 l 814 0 l 814 61 l 68 61 "},"⌠":{"ha":428,"x_min":153,"x_max":351,"o":"m 214 -245 l 214 973 q 351 1115 229 1111 l 351 1164 q 153 971 169 1164 l 153 -245 l 214 -245 "},"⌡":{"ha":428,"x_min":77,"x_max":275,"o":"m 214 1164 l 214 -55 q 77 -197 199 -193 l 77 -245 q 275 -53 259 -245 l 275 1164 l 214 1164 "},"":{"ha":663,"x_min":61,"x_max":562,"o":"m 500 902 q 457 884 475 902 q 439 842 439 867 q 457 798 439 816 q 500 781 475 781 q 544 798 526 781 q 562 842 562 816 q 544 884 562 867 q 500 902 526 902 m 470 605 l 470 -1 q 388 -94 470 -84 l 388 -155 q 531 0 531 -143 l 531 666 l 190 666 l 190 842 q 230 932 192 895 q 321 971 273 971 q 376 959 347 971 l 395 1013 q 315 1027 353 1027 q 186 976 242 1027 q 129 846 133 922 l 129 666 l 61 666 l 61 605 l 129 605 l 129 0 l 190 0 l 190 605 l 470 605 "},"":{"ha":761,"x_min":61,"x_max":727,"o":"m 456 605 l 456 0 l 517 0 l 517 344 q 608 551 521 465 q 727 615 669 612 l 727 682 q 562 597 642 677 q 517 545 536 572 l 517 666 l 190 666 l 190 842 q 230 932 192 895 q 321 971 273 971 q 376 959 347 971 l 395 1013 q 315 1027 353 1027 q 186 976 242 1027 q 129 846 133 922 l 129 666 l 61 666 l 61 605 l 129 605 l 129 0 l 190 0 l 190 605 l 456 605 "},"":{"ha":640,"x_min":14,"x_max":606,"o":"m 142 666 l 142 842 q 182 932 144 895 q 307 971 225 971 q 409 956 361 971 l 409 666 l 142 666 m 81 666 l 14 666 l 14 605 l 81 605 l 81 0 l 142 0 l 142 605 l 409 605 l 409 0 l 470 0 l 470 605 l 606 605 l 606 666 l 470 666 l 470 990 q 301 1027 400 1027 q 139 976 195 1027 q 81 846 85 922 l 81 666 "},"":{"ha":1036,"x_min":61,"x_max":985,"o":"m 435 605 l 665 123 l 486 -254 l 545 -254 l 696 60 l 696 59 l 985 666 l 917 666 l 696 189 l 475 666 l 190 666 l 190 842 q 230 932 192 895 q 321 971 273 971 q 376 959 347 971 l 395 1013 q 315 1027 353 1027 q 186 976 242 1027 q 129 846 133 922 l 129 666 l 61 666 l 61 605 l 129 605 l 129 0 l 190 0 l 190 605 l 435 605 "},"":{"ha":1164,"x_min":61,"x_max":1103,"o":"m 190 605 l 484 605 l 484 0 l 545 0 l 545 605 l 906 605 l 906 0 l 967 0 l 967 605 l 1103 605 l 1103 666 l 967 666 l 967 949 l 906 949 l 906 666 l 545 666 l 545 842 q 585 932 547 895 q 675 971 627 971 q 730 959 702 971 l 749 1013 q 669 1027 707 1027 q 541 976 597 1027 q 484 846 488 922 l 484 666 l 190 666 l 190 842 q 230 932 192 895 q 321 971 273 971 q 376 959 347 971 l 395 1013 q 315 1027 353 1027 q 186 976 242 1027 q 129 846 133 922 l 129 666 l 61 666 l 61 605 l 129 605 l 129 0 l 190 0 l 190 605 "},"":{"ha":1391,"x_min":61,"x_max":1340,"o":"m 190 605 l 484 605 l 484 0 l 545 0 l 545 605 l 789 605 l 1020 123 l 840 -254 l 900 -254 l 1050 60 l 1050 59 l 1340 666 l 1272 666 l 1050 189 l 829 666 l 545 666 l 545 842 q 585 932 547 895 q 675 971 627 971 q 730 959 702 971 l 749 1013 q 669 1027 707 1027 q 541 976 597 1027 q 484 846 488 922 l 484 666 l 190 666 l 190 842 q 230 932 192 895 q 321 971 273 971 q 376 959 347 971 l 395 1013 q 315 1027 353 1027 q 186 976 242 1027 q 129 846 133 922 l 129 666 l 61 666 l 61 605 l 129 605 l 129 0 l 190 0 l 190 605 "},"":{"ha":1491,"x_min":61,"x_max":1440,"o":"m 190 605 l 551 605 l 551 0 l 612 0 l 612 605 l 889 605 l 1120 123 l 940 -254 l 1000 -254 l 1150 60 l 1150 59 l 1440 666 l 1371 666 l 1150 189 l 929 666 l 612 666 l 612 949 l 551 949 l 551 666 l 190 666 l 190 842 q 230 932 192 895 q 321 971 273 971 q 376 959 347 971 l 395 1013 q 315 1027 353 1027 q 186 976 242 1027 q 129 846 133 922 l 129 666 l 61 666 l 61 605 l 129 605 l 129 0 l 190 0 l 190 605 "},"":{"ha":861,"x_min":61,"x_max":827,"o":"m 556 605 l 556 0 l 617 0 l 617 344 q 707 551 621 465 q 827 615 769 612 l 827 682 q 661 597 742 677 q 617 545 636 572 l 617 666 l 258 666 l 258 949 l 197 949 l 197 666 l 61 666 l 61 605 l 197 605 l 197 0 l 258 0 l 258 605 l 556 605 "},"":{"ha":909,"x_min":61,"x_max":848,"o":"m 258 605 l 651 605 l 651 0 l 712 0 l 712 605 l 848 605 l 848 666 l 712 666 l 712 949 l 651 949 l 651 666 l 258 666 l 258 949 l 197 949 l 197 666 l 61 666 l 61 605 l 197 605 l 197 0 l 258 0 l 258 605 "},"":{"ha":1136,"x_min":61,"x_max":1085,"o":"m 534 605 l 765 123 l 585 -254 l 645 -254 l 795 60 l 795 59 l 1085 666 l 1017 666 l 795 189 l 576 662 l 576 666 l 258 666 l 258 949 l 197 949 l 197 666 l 61 666 l 61 605 l 197 605 l 197 0 l 258 0 l 258 605 l 534 605 "},"":{"ha":1133,"x_min":61,"x_max":1037,"o":"m 258 605 l 905 605 l 556 0 l 1037 0 l 1037 62 l 662 62 l 1011 666 l 258 666 l 258 949 l 197 949 l 197 666 l 61 666 l 61 605 l 197 605 l 197 0 l 258 0 l 258 605 "},"":{"ha":646,"x_min":61,"x_max":562,"o":"m 190 0 l 190 842 q 230 932 192 895 q 321 971 273 971 q 376 959 347 971 l 395 1013 q 315 1027 353 1027 q 186 976 242 1027 q 129 846 133 922 l 129 666 l 61 666 l 61 605 l 129 605 l 129 0 l 190 0 m 531 666 l 470 666 l 470 0 l 531 0 l 531 666 m 500 902 q 457 884 475 902 q 439 842 439 867 q 457 798 439 816 q 500 781 475 781 q 544 798 526 781 q 562 842 562 816 q 544 884 562 867 q 500 902 526 902 "},"":{"ha":619,"x_min":61,"x_max":517,"o":"m 456 956 l 456 0 l 517 0 l 517 990 q 349 1027 448 1027 q 186 976 242 1027 q 129 846 133 922 l 129 666 l 61 666 l 61 605 l 129 605 l 129 0 l 190 0 l 190 842 q 230 932 192 895 q 355 971 273 971 q 456 956 409 971 "},"ﬀ":{"ha":709,"x_min":61,"x_max":749,"o":"m 190 605 l 484 605 l 484 0 l 545 0 l 545 605 l 680 605 l 680 666 l 545 666 l 545 842 q 585 932 547 895 q 675 971 627 971 q 730 959 702 971 l 749 1013 q 669 1027 707 1027 q 541 976 597 1027 q 484 846 488 922 l 484 666 l 190 666 l 190 842 q 230 932 192 895 q 321 971 273 971 q 376 959 347 971 l 395 1013 q 315 1027 353 1027 q 186 976 242 1027 q 129 846 133 922 l 129 666 l 61 666 l 61 605 l 129 605 l 129 0 l 190 0 l 190 605 "},"ﬁ":{"ha":646,"x_min":61,"x_max":562,"o":"m 500 902 q 457 884 475 902 q 439 842 439 867 q 457 798 439 816 q 500 781 475 781 q 544 798 526 781 q 562 842 562 816 q 544 884 562 867 q 500 902 526 902 m 470 605 l 470 0 l 531 0 l 531 666 l 190 666 l 190 842 q 230 932 192 895 q 321 971 273 971 q 376 959 347 971 l 395 1013 q 315 1027 353 1027 q 186 976 242 1027 q 129 846 133 922 l 129 666 l 61 666 l 61 605 l 129 605 l 129 0 l 190 0 l 190 605 l 470 605 "},"ﬂ":{"ha":619,"x_min":61,"x_max":517,"o":"m 456 956 l 456 0 l 517 0 l 517 990 q 349 1027 448 1027 q 186 976 242 1027 q 129 846 133 922 l 129 666 l 61 666 l 61 605 l 129 605 l 129 0 l 190 0 l 190 605 l 326 605 l 326 666 l 190 666 l 190 842 q 230 932 192 895 q 355 971 273 971 q 456 956 409 971 "},"ﬃ":{"ha":1001,"x_min":61,"x_max":916,"o":"m 855 902 q 812 884 830 902 q 794 842 794 867 q 812 798 794 816 q 855 781 830 781 q 898 798 880 781 q 916 842 916 816 q 898 884 916 867 q 855 902 880 902 m 190 605 l 484 605 l 484 0 l 545 0 l 545 605 l 825 605 l 825 0 l 886 0 l 886 666 l 545 666 l 545 842 q 585 932 547 895 q 675 971 627 971 q 730 959 702 971 l 749 1013 q 669 1027 707 1027 q 541 976 597 1027 q 484 846 488 922 l 484 666 l 190 666 l 190 842 q 230 932 192 895 q 321 971 273 971 q 376 959 347 971 l 395 1013 q 315 1027 353 1027 q 186 976 242 1027 q 129 846 133 922 l 129 666 l 61 666 l 61 605 l 129 605 l 129 0 l 190 0 l 190 605 "},"ﬄ":{"ha":974,"x_min":61,"x_max":872,"o":"m 190 605 l 484 605 l 484 0 l 545 0 l 545 605 l 680 605 l 680 666 l 545 666 l 545 842 q 585 932 547 895 q 709 971 627 971 q 811 956 764 971 l 811 0 l 872 0 l 872 990 q 703 1027 802 1027 q 541 976 597 1027 q 484 846 488 922 l 484 666 l 190 666 l 190 842 q 230 932 192 895 q 321 971 273 971 q 376 959 347 971 l 395 1013 q 315 1027 353 1027 q 186 976 242 1027 q 129 846 133 922 l 129 666 l 61 666 l 61 605 l 129 605 l 129 0 l 190 0 l 190 605 "},"ﬅ":{"ha":640,"x_min":14,"x_max":606,"o":"m 409 605 l 409 0 l 470 0 l 470 605 l 606 605 l 606 666 l 470 666 l 470 990 q 301 1027 400 1027 q 139 976 195 1027 q 81 846 85 922 l 81 666 l 14 666 l 14 605 l 81 605 l 81 0 l 142 0 l 142 842 q 182 932 144 895 q 307 971 225 971 q 409 956 361 971 l 409 666 l 273 666 l 273 605 l 409 605 "}}}
